aileron_thin.sfdir

StartChar: exclam
Encoding: 33 33 249
Width: 212
Flags: MW
HStem: -14 62<97.5 115> 670 20G<83 129 129 129>
VStem: 75 62<8 26> 86 40
LayerCount: 2
Fore
SplineSet
123 128 m 1xd0
 89 128 l 1
 83 690 l 1
 129 690 l 1
 123 128 l 1xd0
106 48 m 0xe0
 124 48 137 35 137 17 c 0
 137 -1 124 -14 106 -14 c 0
 89 -14 75 -1 75 17 c 0
 75 35 89 48 106 48 c 0xe0
EndSplineSet
EndChar

StartChar: quotedbl
Encoding: 34 34 256
Width: 197
Flags: MW
HStem: 490 245<42 72 42 42 131 131 131 161>
VStem: 39.5 34.5 128.5 34.5
LayerCount: 2
Fore
SplineSet
72 490 m 1
 42 490 l 1
 37 735 l 1
 76 735 l 1
 72 490 l 1
161 490 m 1
 131 490 l 1
 126 735 l 1
 165 735 l 1
 161 490 l 1
EndSplineSet
EndChar

StartChar: numbersign
Encoding: 35 35 251
Width: 543
Flags: MW
HStem: 0 21G<115 145 115 115 251 281 251 251> 239 29<59 166 59 172 202 302 59 196 338 454> 422 30<89 205 89 211 89 235 241 341 377 484> 670 20G<262 292 292 292 398 428 428 428>
VStem: 59 425<239 452 268 452>
LayerCount: 2
Fore
SplineSet
371 422 m 1
 338 268 l 1
 454 268 l 1
 454 239 l 1
 332 239 l 1
 281 0 l 1
 251 0 l 1
 302 239 l 1
 196 239 l 1
 145 0 l 1
 115 0 l 1
 166 239 l 1
 59 239 l 1
 59 268 l 1
 172 268 l 1
 205 422 l 1
 89 422 l 1
 89 452 l 1
 211 452 l 1
 262 690 l 1
 292 690 l 1
 241 452 l 1
 347 452 l 1
 398 690 l 1
 428 690 l 1
 377 452 l 1
 484 452 l 1
 484 422 l 1
 371 422 l 1
341 422 m 1
 235 422 l 1
 202 268 l 1
 308 268 l 1
 341 422 l 1
EndSplineSet
EndChar

StartChar: dollar
Encoding: 36 36 283
Width: 543
Flags: MW
HStem: -14 33<265 296 296 296> 670 33<265 265> 671 33<296 296>
VStem: 52 40<182 182> 81 41<478.5 570.5 478.5 576> 265 31<-90 -14 -90 -14 20 323 370 670 670 670 704 780> 448 41<118 199>
LayerCount: 2
Fore
SplineSet
296 671 m 1xae
 296 365 l 1
 424 327 489 263 489 162 c 0
 489 68 417 -8 296 -14 c 1
 296 -90 l 1
 265 -90 l 1
 265 -14 l 1
 153 -8 63 57 52 182 c 1
 92 182 l 1xb6
 103 83 170 26 265 20 c 1
 265 329 l 1
 165 357 81 406 81 522 c 0
 81 630 161 696 265 703 c 1
 265 780 l 1
 296 780 l 1xce
 296 704 l 1
 415 698 476 614 489 513 c 1
 450 513 l 1
 439 607 385 666 296 671 c 1xae
122 525 m 0xce
 122 432 182 395 265 370 c 1
 265 670 l 1
 188 664 122 616 122 525 c 0xce
296 323 m 1
 296 19 l 1
 392 24 448 78 448 158 c 0
 448 240 398 291 296 323 c 1
EndSplineSet
EndChar

StartChar: percent
Encoding: 37 37 303
Width: 709
Flags: MW
HStem: -14 31<482.5 543 482.5 554> 0 21G<111 152 111 111> 273 31<482.5 543> 385 31<166.5 227 166.5 238> 670 20G<558 599 599 599> 672 31<166.5 227>
VStem: 64 39<506 582.5 506 590> 291 39<506 582.5> 380 39<107 183.5 107 191> 607 39<107 183.5>
LayerCount: 2
Fore
SplineSet
197 703 m 0xb7c0
 279 703 330 636 330 544 c 0
 330 454 279 385 197 385 c 0
 114 385 64 454 64 544 c 0
 64 636 114 703 197 703 c 0xb7c0
152 0 m 1x7bc0
 111 0 l 1
 558 690 l 1
 599 690 l 1
 152 0 l 1x7bc0
197 672 m 0xb7c0
 136 672 103 621 103 544 c 0
 103 468 136 416 197 416 c 0
 257 416 291 468 291 544 c 0
 291 621 257 672 197 672 c 0xb7c0
513 304 m 0
 595 304 646 237 646 145 c 0
 646 55 595 -14 513 -14 c 0
 430 -14 380 55 380 145 c 0
 380 237 430 304 513 304 c 0
513 273 m 0
 452 273 419 222 419 145 c 0
 419 69 452 17 513 17 c 0
 573 17 607 69 607 145 c 0
 607 222 573 273 513 273 c 0
EndSplineSet
EndChar

StartChar: ampersand
Encoding: 38 38 311
Width: 644
Flags: MW
HStem: -14 33<266 357 266 359> 329 34<366 475 377 475 513 619> 671 33<277 354.5> 674 20G<453 453>
VStem: 69 42<108 213.5> 104 42<462 564.5 455 569> 475 38<30 329 3 329 363 505>
LayerCount: 2
Fore
SplineSet
619 363 m 1xea
 619 329 l 1
 513 329 l 1
 513 3 l 1
 456 -8 384 -14 334 -14 c 0
 173 -14 69 23 69 162 c 0xea
 69 265 144 331 252 346 c 1
 169 359 104 410 104 514 c 0
 104 624 198 704 333 704 c 0xe6
 382 704 415 701 453 694 c 1xda
 453 660 l 1
 412 668 379 671 330 671 c 0
 224 671 146 613 146 516 c 0xe6
 146 394 237 368 316 364 c 0
 335 363 355 363 377 363 c 2
 475 363 l 1
 475 505 l 1
 513 505 l 1
 513 363 l 1
 619 363 l 1xea
111 165 m 0
 111 51 196 19 336 19 c 0
 378 19 434 22 475 30 c 1
 475 329 l 1
 377 329 l 2
 355 329 336 329 316 327 c 0
 201 317 111 275 111 165 c 0
EndSplineSet
EndChar

StartChar: quotesingle
Encoding: 39 39 257
Width: 103
Flags: MW
HStem: 715 20G<27 66 66 66>
VStem: 29 34.5
LayerCount: 2
Fore
SplineSet
61 490 m 1
 31 490 l 1
 27 735 l 1
 66 735 l 1
 61 490 l 1
EndSplineSet
EndChar

StartChar: parenleft
Encoding: 40 40 265
Width: 299
Flags: MW
HStem: -80 860<233 264 233 264>
VStem: 116 33<271.5 429 271.5 429>
LayerCount: 2
Fore
SplineSet
233 780 m 1
 264 780 l 1
 192 660 149 508 149 350 c 0
 149 193 192 40 264 -80 c 1
 233 -80 l 1
 162 28 116 192 116 350 c 0
 116 508 162 672 233 780 c 1
EndSplineSet
EndChar

StartChar: parenright
Encoding: 41 41 266
Width: 299
Flags: MW
HStem: -80 860<33 64 33 64>
VStem: 148 33<271.5 429>
LayerCount: 2
Fore
SplineSet
33 780 m 1
 64 780 l 1
 135 672 181 508 181 350 c 0
 181 192 135 28 64 -80 c 1
 33 -80 l 1
 106 40 148 193 148 350 c 0
 148 508 106 660 33 780 c 1
EndSplineSet
EndChar

StartChar: asterisk
Encoding: 42 42 243
Width: 538
Flags: MW
HStem: 96 378<163 286 252 375>
VStem: 254.5 29
LayerCount: 2
Fore
SplineSet
281 284 m 1
 439 342 l 1
 449 311 l 1
 289 262 l 1
 402 115 l 1
 375 96 l 1
 269 249 l 1
 163 96 l 1
 136 115 l 1
 249 262 l 1
 89 311 l 1
 99 342 l 1
 257 284 l 1
 252 474 l 1
 286 474 l 1
 281 284 l 1
EndSplineSet
EndChar

StartChar: plus
Encoding: 43 43 305
Width: 543
Flags: MW
HStem: 302 30<69 256 69 256 287 474>
VStem: 256 31<87 302 87 302 332 548>
LayerCount: 2
Fore
SplineSet
474 302 m 1
 287 302 l 1
 287 87 l 1
 256 87 l 1
 256 302 l 1
 69 302 l 1
 69 332 l 1
 256 332 l 1
 256 548 l 1
 287 548 l 1
 287 332 l 1
 474 332 l 1
 474 302 l 1
EndSplineSet
EndChar

StartChar: comma
Encoding: 44 44 247
Width: 168
Flags: MW
HStem: -117 160<-9 85 -9 85>
VStem: -9 95
LayerCount: 2
Fore
SplineSet
86 37 m 1
 25 -117 l 1
 -9 -117 l 1
 45 43 l 1
 85 43 l 1
 86 37 l 1
EndSplineSet
EndChar

StartChar: hyphen
Encoding: 45 45 269
Width: 274
Flags: MW
HStem: 267 30<32 242 32 242>
VStem: 32 210<267 297 267 297>
LayerCount: 2
Fore
SplineSet
242 267 m 1
 32 267 l 1
 32 297 l 1
 242 297 l 1
 242 267 l 1
EndSplineSet
EndChar

StartChar: period
Encoding: 46 46 252
Width: 168
Flags: MW
HStem: -14 62<61.5 79>
VStem: 39 62<8 26>
LayerCount: 2
Fore
SplineSet
70 48 m 0
 88 48 101 35 101 17 c 0
 101 -1 88 -14 70 -14 c 0
 53 -14 39 -1 39 17 c 0
 39 35 53 48 70 48 c 0
EndSplineSet
EndChar

StartChar: slash
Encoding: 47 47 259
Width: 273
Flags: MW
HStem: -30 750<-5 278 -5 278>
VStem: -5 283
LayerCount: 2
Fore
SplineSet
27 -30 m 1
 -5 -30 l 1
 246 720 l 1
 278 720 l 1
 27 -30 l 1
EndSplineSet
EndChar

StartChar: zero
Encoding: 48 48 232
Width: 543
Flags: MW
HStem: -14 33<200 342.5 200 357> 671 33<200 342.5>
VStem: 37 42<251.5 439.5 251.5 449.5> 463 42<251 439>
LayerCount: 2
Fore
SplineSet
271 704 m 0
 443 704 505 553 505 345 c 0
 505 137 443 -14 271 -14 c 0
 100 -14 37 138 37 345 c 0
 37 554 100 704 271 704 c 0
271 19 m 0
 414 19 463 157 463 345 c 0
 463 533 414 671 271 671 c 0
 129 671 79 534 79 345 c 0
 79 158 129 19 271 19 c 0
EndSplineSet
EndChar

StartChar: one
Encoding: 49 49 233
Width: 543
Flags: MW
HStem: 0 21G<325 363 325 325> 649 41<325 363> 670 20G<341 363 363 363>
VStem: 325 38<0 649 649 649>
LayerCount: 2
Fore
SplineSet
363 690 m 1xb0
 363 0 l 1
 325 0 l 1
 325 649 l 1xd0
 135 533 l 1
 135 574 l 1
 291 672 l 2
 316 687 327 690 341 690 c 2
 363 690 l 1xb0
EndSplineSet
EndChar

StartChar: two
Encoding: 50 50 234
Width: 543
Flags: MW
HStem: 0 33<102 492 102 492> 671 33<239 340>
VStem: 72.5 38 447 42<475.5 557>
LayerCount: 2
Fore
SplineSet
492 33 m 1
 492 0 l 1
 45 0 l 1
 45 24 l 1
 287 262 l 2
 407 380 447 438 447 513 c 0
 447 601 391 671 289 671 c 0
 189 671 122 603 111 495 c 2
 110 485 l 1
 72 485 l 1
 73 495 l 2
 86 624 172 704 291 704 c 0
 423 704 489 619 489 516 c 0
 489 426 431 352 313 238 c 2
 102 33 l 1
 492 33 l 1
EndSplineSet
EndChar

StartChar: three
Encoding: 51 51 235
Width: 543
Flags: MW
HStem: -14 33<216.5 324.5 216.5 333.5> 336 33<244 261 244 261> 671 33<242 334>
VStem: 45.5 38 75.5 38 445 42<489 575> 458 42<131 228.5>
LayerCount: 2
Fore
SplineSet
346 360 m 1xf2
 441 342 500 285 500 185 c 0
 500 61 398 -14 269 -14 c 0
 146 -14 60 55 46 194 c 2
 45 204 l 1
 83 204 l 1
 84 194 l 2
 95 89 162 19 271 19 c 0
 378 19 458 78 458 184 c 0xf2
 458 273 397 336 261 336 c 2
 244 336 l 1
 244 369 l 1
 261 369 l 2
 350 369 445 427 445 527 c 0
 445 623 378 671 290 671 c 0
 194 671 125 612 114 507 c 2
 113 497 l 1
 75 497 l 1
 76 507 l 2
 88 631 175 704 293 704 c 0
 418 704 487 630 487 531 c 0xec
 487 447 427 379 346 360 c 1xf2
EndSplineSet
EndChar

StartChar: four
Encoding: 52 52 236
Width: 543
Flags: MW
HStem: 0 21G<381 419 381 381> 194 33<74 381 74 381 419 515> 670 20G<385 419 419 419>
VStem: 381 38<0 194 0 194 227 636 636 636>
LayerCount: 2
Fore
SplineSet
515 194 m 1
 419 194 l 1
 419 0 l 1
 381 0 l 1
 381 194 l 1
 24 194 l 1
 24 216 l 1
 385 690 l 1
 419 690 l 1
 419 227 l 1
 515 227 l 1
 515 194 l 1
381 227 m 1
 381 636 l 1
 362 606 334 568 299 523 c 2
 74 227 l 1
 381 227 l 1
EndSplineSet
EndChar

StartChar: five
Encoding: 53 53 237
Width: 543
Flags: MW
HStem: -14 33<215 313.5 215 327> 405 33<255.5 330> 654 33<158 486 158 158>
VStem: 52.5 38 453 42<146.5 271>
LayerCount: 2
Fore
SplineSet
283 438 m 0
 418 438 495 341 495 214 c 0
 495 70 388 -14 266 -14 c 0
 160 -14 67 44 53 179 c 2
 52 189 l 1
 90 189 l 1
 91 179 l 1
 103 85 164 19 266 19 c 0
 361 19 453 81 453 212 c 0
 453 330 382 405 278 405 c 0
 201 405 139 372 102 294 c 1
 65 294 l 1
 126 687 l 1
 486 687 l 1
 486 654 l 1
 158 654 l 1
 107 346 l 1
 146 394 l 1
 185 422 228 438 283 438 c 0
EndSplineSet
EndChar

StartChar: six
Encoding: 54 54 238
Width: 543
Flags: MW
HStem: -14 33<213.5 329.5 213.5 339.5> 427 33<246 335> 671 33<236.5 335>
VStem: 43 38<318 318 318 444> 454 39 462 42<163 278.5>
LayerCount: 2
Fore
SplineSet
282 460 m 0xf4
 425 460 504 353 504 222 c 0xf4
 504 89 408 -14 271 -14 c 0
 131 -14 43 77 43 302 c 0
 43 586 143 704 291 704 c 0
 412 704 473 635 492 526 c 1
 494 516 l 1
 455 516 l 1
 453 526 l 2xf8
 433 624 380 671 290 671 c 0
 183 671 87 603 81 318 c 1
 106 372 l 1
 149 430 210 460 282 460 c 0xf4
272 19 m 0
 387 19 462 107 462 219 c 0
 462 338 393 427 277 427 c 0
 173 427 88 348 88 233 c 0
 88 114 155 19 272 19 c 0
EndSplineSet
EndChar

StartChar: seven
Encoding: 55 55 239
Width: 543
Flags: MW
HStem: 0 21G<106 148 106 106> 657 33<46 458 46 507>
VStem: 46 461<672 690 672 690 672 690>
LayerCount: 2
Fore
SplineSet
507 690 m 1
 507 672 l 1
 148 0 l 1
 106 0 l 1
 458 657 l 1
 46 657 l 1
 46 690 l 1
 507 690 l 1
EndSplineSet
EndChar

StartChar: eight
Encoding: 56 56 240
Width: 543
Flags: MW
HStem: -15 33<223.5 320 223.5 331.5> 342 33<236 322 236 337.5> 671 33<228 330>
VStem: 40 42<124.5 225> 73 42<482.5 567.5 473 574> 443 41<482.5 567.5> 460 42<124.5 225 115 225.5>
LayerCount: 2
Fore
SplineSet
361 361 m 1xf2
 451 337 502 270 502 180 c 0
 502 50 392 -15 271 -15 c 0
 142 -15 40 50 40 180 c 0xf2
 40 270 100 337 191 360 c 1
 118 382 73 442 73 523 c 0
 73 625 148 704 279 704 c 0
 414 704 484 625 484 523 c 0xec
 484 442 435 381 361 361 c 1xf2
115 523 m 0xec
 115 423 193 375 279 375 c 0
 365 375 443 423 443 523 c 0
 443 612 381 671 279 671 c 0
 177 671 115 612 115 523 c 0xec
273 18 m 0xf2
 367 18 460 70 460 179 c 0
 460 272 400 342 275 342 c 0
 150 342 82 272 82 179 c 0
 82 70 174 18 273 18 c 0xf2
EndSplineSet
EndChar

StartChar: nine
Encoding: 57 57 241
Width: 543
Flags: MW
HStem: -14 33<209 306.5 209 326.5> 230 33<208 297> 671 33<213 329.5>
VStem: 39 42<412 527 412 534.5> 49.5 39.5 461 39<370 370>
LayerCount: 2
Fore
SplineSet
271 704 m 0xf4
 412 704 500 613 500 388 c 0
 500 111 401 -14 252 -14 c 0
 131 -14 70 55 50 165 c 1
 49 175 l 1
 88 175 l 1
 90 165 l 2xec
 110 66 164 19 254 19 c 0
 359 19 454 94 461 370 c 1
 436 318 l 1
 394 260 333 230 261 230 c 0
 118 230 39 338 39 468 c 0
 39 601 134 704 271 704 c 0xf4
266 263 m 0
 370 263 454 342 454 457 c 0
 454 576 388 671 271 671 c 0
 155 671 81 583 81 471 c 0
 81 353 150 263 266 263 c 0
EndSplineSet
EndChar

StartChar: colon
Encoding: 58 58 246
Width: 168
Flags: MW
HStem: -14 62<61.5 79> 479 62<61.5 79>
VStem: 39 62<8 26 501.5 519>
LayerCount: 2
Fore
SplineSet
70 541 m 0
 88 541 101 528 101 510 c 0
 101 493 88 479 70 479 c 0
 53 479 39 493 39 510 c 0
 39 528 53 541 70 541 c 0
70 48 m 0
 88 48 101 35 101 17 c 0
 101 -1 88 -14 70 -14 c 0
 53 -14 39 -1 39 17 c 0
 39 35 53 48 70 48 c 0
EndSplineSet
EndChar

StartChar: semicolon
Encoding: 59 59 258
Width: 168
Flags: MW
HStem: -117 163<-9 86 -9 86> 479 62<61.5 79>
VStem: 39 62<501.5 519>
LayerCount: 2
Fore
SplineSet
70 541 m 0
 88 541 101 528 101 510 c 0
 101 493 88 479 70 479 c 0
 53 479 39 493 39 510 c 0
 39 528 53 541 70 541 c 0
86 39 m 1
 26 -117 l 1
 -9 -117 l 1
 45 46 l 1
 86 46 l 1
 86 39 l 1
EndSplineSet
EndChar

StartChar: less
Encoding: 60 60 296
Width: 543
Flags: MW
HStem: 53 425<480 480>
VStem: 79 38<266 266 266 281 266 281>
LayerCount: 2
Fore
SplineSet
480 442 m 1
 117 266 l 1
 480 89 l 1
 480 53 l 1
 79 249 l 1
 79 281 l 1
 480 478 l 1
 480 442 l 1
EndSplineSet
EndChar

StartChar: equal
Encoding: 61 61 291
Width: 543
Flags: MW
HStem: 210 29<61 481 61 481> 395 29<61 481 61 481>
VStem: 61 420<210 239 210 239 395 424 210 424>
LayerCount: 2
Fore
SplineSet
481 395 m 1
 61 395 l 1
 61 424 l 1
 481 424 l 1
 481 395 l 1
481 210 m 1
 61 210 l 1
 61 239 l 1
 481 239 l 1
 481 210 l 1
EndSplineSet
EndChar

StartChar: greater
Encoding: 62 62 292
Width: 543
Flags: MW
HStem: 53 425<61 61>
VStem: 425 37<265 265>
LayerCount: 2
Fore
SplineSet
462 281 m 1
 462 249 l 1
 61 53 l 1
 61 88 l 1
 425 265 l 1
 61 441 l 1
 61 478 l 1
 462 281 l 1
EndSplineSet
EndChar

StartChar: question
Encoding: 63 63 254
Width: 516
Flags: MW
HStem: -14 62<233 250.5> 671 33<206.5 305.5>
VStem: 46 39<494 494> 211 62<8 26> 223 36<128 128> 413 42<493.5 570.5>
LayerCount: 2
Fore
SplineSet
259 704 m 0xec
 387 704 455 625 455 525 c 0
 455 454 418 391 359 334 c 0
 275 253 260 216 259 128 c 1
 223 128 l 1
 225 225 239 263 325 349 c 0
 387 412 413 462 413 525 c 0
 413 616 352 671 259 671 c 0
 154 671 93 602 85 494 c 1
 46 494 l 1
 51 619 137 704 259 704 c 0xec
242 48 m 0xf4
 259 48 273 35 273 17 c 0
 273 -1 259 -14 242 -14 c 0
 224 -14 211 -1 211 17 c 0
 211 35 224 48 242 48 c 0xf4
EndSplineSet
EndChar

StartChar: at
Encoding: 64 64 313
Width: 851
Flags: MW
HStem: -104 30<316.5 442.5> -15 21G<679 679> 67 32<351 392.5> 75 30<590.5 653 590.5 653.5> 451 32<409 475.5 395 486> 634 30<379 551>
VStem: 59 34<140.5 368 140.5 375.5> 243 42<181.5 287 181.5 290> 505 39<167 167> 537.64 14.36 762 33<261.5 428>
LayerCount: 2
Fore
SplineSet
608 465 m 1xef60
 555 242 l 2
 546 202 544 185 544 168 c 0
 544 129 568 105 613 105 c 0
 693 105 762 191 762 332 c 0
 762 524 637 634 465 634 c 0
 293 634 93 490 93 246 c 0
 93 35 237 -74 396 -74 c 0
 494 -74 573 -52 664 12 c 1
 679 -15 l 1
 571 -88 490 -104 395 -104 c 0
 227 -104 59 9 59 244 c 0
 59 507 272 664 470 664 c 0
 663 664 795 530 795 336 c 0
 795 161 701 75 606 75 c 0
 556 75 508 97 505 167 c 1xdfa0
 487 128 l 1xefa0
 452 86 414 67 371 67 c 0
 314 67 243 100 243 221 c 0
 243 359 334 483 456 483 c 0
 495 483 520 469 535 450 c 1
 552 398 l 1
 569 465 l 1
 608 465 l 1xef60
524 272 m 2
 533 312 l 2xef60
 552 394 517 451 455 451 c 0
 363 451 285 349 285 225 c 0
 285 138 323 99 379 99 c 0xefa0
 439 99 496 152 524 272 c 2
EndSplineSet
EndChar

StartChar: A
Encoding: 65 65 1
Width: 622
GlyphClass: 2
Flags: MW
HStem: 0 21G<34 75 34 34 566 566 566 607> 263 33<185 455 185 467 172 455> 659 31<321 321>
VStem: 34 573<0 0>
LayerCount: 2
Fore
SplineSet
467 263 m 1
 172 263 l 1
 75 0 l 1
 34 0 l 1
 297 690 l 1
 347 690 l 1
 607 0 l 1
 566 0 l 1
 467 263 l 1
185 296 m 1
 455 296 l 1
 321 659 l 1
 185 296 l 1
EndSplineSet
Position2: "'cpsp' Capital Spacing in Latin lookup 0 subtable" dx=5 dy=0 dh=10 dv=0
EndChar

StartChar: B
Encoding: 66 66 12
Width: 597
GlyphClass: 2
Flags: MW
HStem: 0 33<135 297> 344 33<135 293 293 301 135 306 135 293> 657 33<135 135 135 278 278 280>
VStem: 97 38<33 344 377 657> 491 41<480.5 567.5> 517 41<135 225.5>
LayerCount: 2
Fore
SplineSet
404 365 m 1xf4
 506 346 558 283 558 188 c 0xf4
 558 74 470 11 370 3 c 0
 342 0 323 0 297 0 c 2
 97 0 l 1
 97 690 l 1
 278 690 l 2
 307 690 325 690 359 688 c 0
 465 679 532 620 532 523 c 0xf8
 532 438 483 382 404 365 c 1xf4
135 657 m 1
 135 377 l 1
 293 377 l 2
 309 377 326 378 348 379 c 0
 420 385 491 421 491 518 c 0xf8
 491 617 418 652 343 656 c 0
 321 657 304 657 280 657 c 2
 135 657 l 1
358 35 m 0xf4
 438 41 517 85 517 185 c 0
 517 266 476 336 359 342 c 0
 336 344 322 344 306 344 c 2
 135 344 l 1
 135 33 l 1
 312 33 l 2
 328 33 345 34 358 35 c 0xf4
EndSplineSet
Position2: "'cpsp' Capital Spacing in Latin lookup 0 subtable" dx=5 dy=0 dh=10 dv=0
EndChar

StartChar: D
Encoding: 68 68 18
Width: 687
GlyphClass: 2
Flags: MW
HStem: 0 33<135 296 296 298> 657 33<135 298 135 135>
VStem: 97 38<33 657 33 690 33 690> 607 42<251 449.5>
LayerCount: 2
Fore
SplineSet
376 688 m 0
 495 677 649 584 649 349 c 0
 649 116 495 17 386 4 c 0
 351 0 331 0 298 0 c 2
 97 0 l 1
 97 690 l 1
 299 690 l 2
 332 690 348 690 376 688 c 0
381 38 m 0
 492 52 607 153 607 349 c 0
 607 550 484 642 373 654 c 0
 351 657 334 657 298 657 c 2
 135 657 l 1
 135 33 l 1
 296 33 l 2
 329 33 351 34 381 38 c 0
EndSplineSet
Position2: "'cpsp' Capital Spacing in Latin lookup 0 subtable" dx=5 dy=0 dh=10 dv=0
EndChar

StartChar: E
Encoding: 69 69 22
Width: 565
GlyphClass: 2
Flags: MW
HStem: 0 33<135 534 135 534> 329 32<135 501 135 501> 658 32<135 524 135 135>
VStem: 97 38<33 329 361 658>
AnchorPoint: "Anchor-0" 294 0 basechar 0
LayerCount: 2
Fore
SplineSet
534 33 m 1
 534 0 l 1
 97 0 l 1
 97 690 l 1
 524 690 l 1
 524 658 l 1
 135 658 l 1
 135 361 l 1
 501 361 l 1
 501 329 l 1
 135 329 l 1
 135 33 l 1
 534 33 l 1
EndSplineSet
Position2: "'cpsp' Capital Spacing in Latin lookup 0 subtable" dx=5 dy=0 dh=10 dv=0
EndChar

StartChar: F
Encoding: 70 70 31
Width: 540
GlyphClass: 2
Flags: MW
HStem: 0 21G<97 135 97 97> 329 32<135 491 135 491> 658 32<135 135 135 524>
VStem: 97 38<0 329 361 658>
LayerCount: 2
Fore
SplineSet
135 658 m 1
 135 361 l 1
 491 361 l 1
 491 329 l 1
 135 329 l 1
 135 0 l 1
 97 0 l 1
 97 690 l 1
 524 690 l 1
 524 658 l 1
 135 658 l 1
EndSplineSet
Position2: "'cpsp' Capital Spacing in Latin lookup 0 subtable" dx=5 dy=0 dh=10 dv=0
EndChar

StartChar: G
Encoding: 71 71 32
Width: 698
GlyphClass: 2
Flags: MW
HStem: -14 33<284 398> 0 21G<602 637 602 602> 281 33<384 599 384 637> 671 33<296 436>
VStem: 50 42<237.5 448.5 237.5 450> 599 38<186 281> 602 38
AnchorPoint: "Anchor-0" 360 0 basechar 0
LayerCount: 2
Fore
SplineSet
384 314 m 1xbc
 637 314 l 1
 637 0 l 1
 602 0 l 1x7c
 602 167 l 1
 579 103 l 1xbc
 526 20 441 -14 355 -14 c 0
 174 -14 50 124 50 343 c 0
 50 557 187 704 374 704 c 0
 531 704 617 607 639 481 c 1
 641 471 l 1
 603 471 l 1
 601 481 l 2xba
 579 590 502 671 370 671 c 0
 222 671 92 552 92 345 c 0
 92 130 210 19 358 19 c 0
 464 19 599 91 599 281 c 1
 384 281 l 1
 384 314 l 1xbc
EndSplineSet
Position2: "'cpsp' Capital Spacing in Latin lookup 0 subtable" dx=5 dy=0 dh=10 dv=0
EndChar

StartChar: H
Encoding: 72 72 36
Width: 674
GlyphClass: 2
Flags: MW
HStem: 0 21G<97 135 97 97 563 601 563 563> 322 33<135 563 135 563> 670 20G<97 135 135 135 563 601 601 601>
VStem: 97 38<0 322 0 355 355 690> 563 38<0 322 322 322 355 690 0 690>
LayerCount: 2
Fore
SplineSet
601 690 m 1
 601 0 l 1
 563 0 l 1
 563 322 l 1
 135 322 l 1
 135 0 l 1
 97 0 l 1
 97 690 l 1
 135 690 l 1
 135 355 l 1
 563 355 l 1
 563 690 l 1
 601 690 l 1
EndSplineSet
Position2: "'cpsp' Capital Spacing in Latin lookup 0 subtable" dx=5 dy=0 dh=10 dv=0
EndChar

StartChar: I
Encoding: 73 73 38
Width: 208
GlyphClass: 2
Flags: MW
HStem: 0 21G<97 135 97 97> 670 20G<97 135 135 135>
VStem: 97 38<0 690>
LayerCount: 2
Fore
SplineSet
135 0 m 1
 97 0 l 1
 97 690 l 1
 135 690 l 1
 135 0 l 1
EndSplineSet
Position2: "'cpsp' Capital Spacing in Latin lookup 0 subtable" dx=5 dy=0 dh=10 dv=0
EndChar

StartChar: J
Encoding: 74 74 47
Width: 507
GlyphClass: 2
Flags: MW
HStem: -14 33<204.5 296.5 204.5 310.5> 670 20G<406 444 444 444>
VStem: 49.5 38 406 38<256 261 261 690>
LayerCount: 2
Fore
SplineSet
444 690 m 1
 444 261 l 2
 444 231 444 205 442 172 c 0
 436 74 376 -14 245 -14 c 0
 126 -14 55 56 50 194 c 2
 49 227 l 1
 87 227 l 1
 88 194 l 1
 93 67 159 19 250 19 c 0
 343 19 396 77 404 176 c 0
 406 197 406 224 406 256 c 2
 406 690 l 1
 444 690 l 1
EndSplineSet
Position2: "'cpsp' Capital Spacing in Latin lookup 0 subtable" dx=5 dy=0 dh=10 dv=0
EndChar

StartChar: K
Encoding: 75 75 48
Width: 567
GlyphClass: 2
Flags: MW
HStem: 0 21G<97 135 97 97 499 554 499 499> 670 20G<97 135 135 135 516 563 563 563>
VStem: 97 38<0 280 323 690>
AnchorPoint: "Anchor-0" 306 0 basechar 0
LayerCount: 2
Fore
SplineSet
214 355 m 1
 554 0 l 1
 499 0 l 1
 185 330 l 1
 135 280 l 1
 135 0 l 1
 97 0 l 1
 97 690 l 1
 135 690 l 1
 135 323 l 1
 516 690 l 1
 563 690 l 1
 214 355 l 1
EndSplineSet
Position2: "'cpsp' Capital Spacing in Latin lookup 0 subtable" dx=5 dy=0 dh=10 dv=0
EndChar

StartChar: L
Encoding: 76 76 50
Width: 548
GlyphClass: 2
Flags: MW
HStem: 0 33<135 534 135 534> 670 20G<97 135 135 135>
VStem: 97 38<33 690 33 690 33 690>
AnchorPoint: "Anchor-0" 300 0 basechar 0
LayerCount: 2
Fore
SplineSet
534 33 m 1
 534 0 l 1
 97 0 l 1
 97 690 l 1
 135 690 l 1
 135 33 l 1
 534 33 l 1
EndSplineSet
Position2: "'cpsp' Capital Spacing in Latin lookup 0 subtable" dx=5 dy=0 dh=10 dv=0
EndChar

StartChar: M
Encoding: 77 77 56
Width: 812
GlyphClass: 2
Flags: MW
HStem: 0 33<419 419 419 442 394 419> 657 33
VStem: 97 38<0 389 0 690> 702 37<0 389 389 432.5>
LayerCount: 2
Fore
SplineSet
739 690 m 1
 739 0 l 1
 702 0 l 1
 702 389 l 2
 702 476 701 574 703 658 c 1
 672 574 634 475 599 389 c 2
 442 0 l 1
 394 0 l 1
 237 390 l 2
 203 475 164 574 133 657 c 1
 135 573 135 476 135 389 c 2
 135 0 l 1
 97 0 l 1
 97 690 l 1
 159 690 l 1
 419 33 l 1
 681 690 l 1
 739 690 l 1
EndSplineSet
Position2: "'cpsp' Capital Spacing in Latin lookup 0 subtable" dx=5 dy=0 dh=10 dv=0
EndChar

StartChar: P
Encoding: 80 80 73
Width: 540
GlyphClass: 2
Flags: MW
HStem: 0 21G<97 135 97 97> 302 33<135 265 135 267> 656 34<135 265 265 267 135 135>
VStem: 97 38<0 302 0 335 335 656> 491 41<449 548.5>
LayerCount: 2
Fore
SplineSet
362 685 m 0
 459 673 532 617 532 500 c 0
 532 380 457 319 362 306 c 0
 330 302 300 302 265 302 c 2
 135 302 l 1
 135 0 l 1
 97 0 l 1
 97 690 l 1
 265 690 l 2
 300 690 330 689 362 685 c 0
358 340 m 0
 433 351 491 398 491 500 c 0
 491 597 433 641 358 651 c 0
 329 655 302 656 267 656 c 2
 135 656 l 1
 135 335 l 1
 267 335 l 2
 302 335 329 336 358 340 c 0
EndSplineSet
Position2: "'cpsp' Capital Spacing in Latin lookup 0 subtable" dx=5 dy=0 dh=10 dv=0
EndChar

StartChar: Q
Encoding: 81 81 75
Width: 720
GlyphClass: 2
Flags: MW
HStem: -14 33<290 380> 2 34 671 33<290 441.5>
VStem: 50 42<241.5 449> 639 42<286.5 449 286.5 449>
LayerCount: 2
Fore
SplineSet
681 345 m 0xb8
 681 228 644 109 526 36 c 1
 582 34 620 15 667 -25 c 1
 645 -52 l 1
 589 -10 552 2 505 2 c 0x78
 482 2 465 -1 437 -7 c 0
 413 -12 394 -14 366 -14 c 0
 172 -14 50 138 50 345 c 0
 50 553 172 704 366 704 c 0
 559 704 681 553 681 345 c 0xb8
92 345 m 0
 92 138 214 19 366 19 c 0
 517 19 639 138 639 345 c 0
 639 553 517 671 366 671 c 0
 214 671 92 553 92 345 c 0
EndSplineSet
Position2: "'cpsp' Capital Spacing in Latin lookup 0 subtable" dx=5 dy=0 dh=10 dv=0
EndChar

StartChar: V
Encoding: 86 86 99
Width: 593
GlyphClass: 2
Flags: MW
HStem: 0 31<314 314 314 339 287 314> 670 20G<28 69 69 69 560 601 601 601>
VStem: 28 573<690 690>
LayerCount: 2
Fore
SplineSet
339 0 m 1
 287 0 l 1
 28 690 l 1
 69 690 l 1
 314 31 l 1
 560 690 l 1
 601 690 l 1
 339 0 l 1
EndSplineSet
Position2: "'cpsp' Capital Spacing in Latin lookup 0 subtable" dx=5 dy=0 dh=10 dv=0
EndChar

StartChar: W
Encoding: 87 87 100
Width: 855
GlyphClass: 2
Flags: MW
HStem: 0 36<229 229 229 252 201 229> 643 37<441 441> 670 20G<26 68 68 68 817 856 856 856>
VStem: 26 830<690 690>
LayerCount: 2
Fore
SplineSet
856 690 m 1xb0
 668 0 l 1
 619 0 l 1
 441 643 l 1xd0
 252 0 l 1
 201 0 l 1
 26 690 l 1
 68 690 l 1xb0
 229 36 l 1
 416 680 l 1
 468 680 l 1xd0
 645 37 l 1
 817 690 l 1
 856 690 l 1xb0
EndSplineSet
Position2: "'cpsp' Capital Spacing in Latin lookup 0 subtable" dx=5 dy=0 dh=10 dv=0
EndChar

StartChar: X
Encoding: 88 88 105
Width: 585
GlyphClass: 2
Flags: MW
HStem: 0 21G<27 73 27 27 525 573 525 525> 670 20G<45 88 88 88 528 575 575 575>
VStem: 27 548
LayerCount: 2
Fore
SplineSet
321 347 m 1
 573 0 l 1
 525 0 l 1
 299 320 l 1
 73 0 l 1
 27 0 l 1
 275 345 l 1
 45 690 l 1
 88 690 l 1
 299 374 l 1
 528 690 l 1
 575 690 l 1
 321 347 l 1
EndSplineSet
Position2: "'cpsp' Capital Spacing in Latin lookup 0 subtable" dx=5 dy=0 dh=10 dv=0
EndChar

StartChar: Y
Encoding: 89 89 106
Width: 554
GlyphClass: 2
Flags: MW
HStem: 0 21G<267 305 267 267> 670 20G<22 66 66 66 506 550 550 550>
VStem: 267 38<0 280 0 280>
LayerCount: 2
Fore
SplineSet
305 280 m 1
 305 0 l 1
 267 0 l 1
 267 280 l 1
 22 690 l 1
 66 690 l 1
 288 318 l 1
 506 690 l 1
 550 690 l 1
 305 280 l 1
EndSplineSet
Position2: "'cpsp' Capital Spacing in Latin lookup 0 subtable" dx=5 dy=0 dh=10 dv=0
EndChar

StartChar: Z
Encoding: 90 90 111
Width: 551
GlyphClass: 2
Flags: MW
HStem: 0 33<85 526 85 526> 657 33<67 476 67 520>
VStem: 39 487<0 29 29 29>
LayerCount: 2
Fore
SplineSet
526 33 m 1
 526 0 l 1
 39 0 l 1
 39 29 l 1
 476 657 l 1
 67 657 l 1
 67 690 l 1
 520 690 l 1
 520 658 l 1
 85 33 l 1
 526 33 l 1
EndSplineSet
Position2: "'cpsp' Capital Spacing in Latin lookup 0 subtable" dx=5 dy=0 dh=10 dv=0
EndChar

StartChar: bracketleft
Encoding: 91 91 263
Width: 310
Flags: MW
HStem: -80 30<155 279 155 279> 750 30<155 279 155 155>
VStem: 124 31<-50 750 -50 780 -50 780>
LayerCount: 2
Fore
SplineSet
279 780 m 1
 279 750 l 1
 155 750 l 1
 155 -50 l 1
 279 -50 l 1
 279 -80 l 1
 124 -80 l 1
 124 780 l 1
 279 780 l 1
EndSplineSet
EndChar

StartChar: backslash
Encoding: 92 92 244
Width: 273
Flags: MW
HStem: -30 750<-5 278 -5 246>
VStem: -5 283
LayerCount: 2
Fore
SplineSet
278 -30 m 1
 246 -30 l 1
 -5 720 l 1
 27 720 l 1
 278 -30 l 1
EndSplineSet
EndChar

StartChar: bracketright
Encoding: 93 93 264
Width: 307
Flags: MW
HStem: -80 30<28 153 28 184 28 153> 750 30<28 153 28 184>
VStem: 153 31<-50 750 750 750>
LayerCount: 2
Fore
SplineSet
184 -80 m 1
 28 -80 l 1
 28 -50 l 1
 153 -50 l 1
 153 750 l 1
 28 750 l 1
 28 780 l 1
 184 780 l 1
 184 -80 l 1
EndSplineSet
EndChar

StartChar: asciicircum
Encoding: 94 94 312
Width: 543
Flags: MW
HStem: 586 30<273 273>
VStem: 82 381<215 215>
LayerCount: 2
Fore
SplineSet
428 215 m 1
 273 586 l 1
 117 215 l 1
 82 215 l 1
 255 616 l 1
 292 616 l 1
 463 215 l 1
 428 215 l 1
EndSplineSet
EndChar

StartChar: underscore
Encoding: 95 95 260
Width: 500
Flags: MW
HStem: -82 30<50 450 50 450>
VStem: 50 400<-82 -52 -82 -52>
LayerCount: 2
Fore
SplineSet
450 -82 m 1
 50 -82 l 1
 50 -52 l 1
 450 -52 l 1
 450 -82 l 1
EndSplineSet
EndChar

StartChar: grave
Encoding: 96 96 331
Width: 300
Flags: MW
HStem: 580 110<66 167 66 139>
VStem: 66 101
LayerCount: 2
Fore
SplineSet
167 580 m 1
 139 580 l 1
 66 690 l 1
 107 690 l 1
 167 580 l 1
EndSplineSet
EndChar

StartChar: d
Encoding: 100 100 132
Width: 562
GlyphClass: 2
Flags: MW
HStem: -14 32<202 294.5> 0 21G<451 489 451 451> 509 32<215 304.5 209.5 314.5> 715 20G<451 489 489 489>
VStem: 30 42<197.5 338 197.5 353> 451 38<0 112 112 112 244 295 295 376.5 420 735 0 735>
LayerCount: 2
Fore
SplineSet
489 735 m 1xbc
 489 0 l 1
 451 0 l 1x7c
 451 112 l 1
 420 52 l 1
 377 4 328 -14 261 -14 c 0
 119 -14 30 100 30 259 c 0
 30 447 145 541 274 541 c 0
 335 541 382 523 421 481 c 1
 451 420 l 1
 451 735 l 1
 489 735 l 1xbc
265 18 m 0xbc
 365 18 451 76 451 244 c 2
 451 295 l 2
 451 458 355 509 274 509 c 0
 156 509 72 412 72 264 c 0
 72 131 139 18 265 18 c 0xbc
EndSplineSet
EndChar

StartChar: f
Encoding: 102 102 145
Width: 245
GlyphClass: 2
Flags: MW
HStem: 0 21G<81 119 81 81> 491 32<24 81 24 81 119 227> 720.15 28.85 720.15 33.85
VStem: 81 38<0 491 0 491 523 597 597 599>
LayerCount: 2
Fore
SplineSet
121 650 m 0xe8
 119 630 119 614 119 599 c 2
 119 523 l 1
 227 523 l 1
 227 491 l 1
 119 491 l 1
 119 0 l 1
 81 0 l 1
 81 491 l 1
 24 491 l 1
 24 523 l 1
 81 523 l 1
 81 597 l 2
 81 613 81 633 83 653 c 0
 90 722 136 754 187 754 c 0xd8
 207 754 219 753 237 749 c 1
 237 716 l 1
 162 733 127 701 121 650 c 0xe8
EndSplineSet
EndChar

StartChar: i
Encoding: 105 105 152
Width: 183
GlyphClass: 2
Flags: MW
HStem: 0 21G<72 110 72 72> 507 20G<72 110 110 110> 608 58<83 99>
VStem: 62 58<629 645> 72 38<0 527>
LayerCount: 2
Fore
SplineSet
91 666 m 0xf0
 107 666 120 653 120 637 c 0
 120 621 107 608 91 608 c 0
 75 608 62 621 62 637 c 0
 62 653 75 666 91 666 c 0xf0
110 0 m 1xe8
 72 0 l 1
 72 527 l 1
 110 527 l 1
 110 0 l 1xe8
EndSplineSet
EndChar

StartChar: j
Encoding: 106 106 161
Width: 175
GlyphClass: 2
Flags: MW
HStem: -210 32.69 507 20G<65 103 103 103> 608 58<76 92>
VStem: 56 57<629 645> 65 38<-76 -66 -66 527>
LayerCount: 2
Fore
SplineSet
84 666 m 0xf0
 100 666 113 653 113 637 c 0
 113 621 100 608 84 608 c 0
 68 608 56 621 56 637 c 0
 56 653 68 666 84 666 c 0xf0
103 527 m 1xc8
 103 -66 l 2
 103 -86 103 -103 102 -121 c 0
 98 -182 61 -210 9 -210 c 0
 -3 -210 -14 -209 -27 -207 c 1
 -27 -175 l 1
 28 -184 61 -171 64 -116 c 0
 65 -102 65 -91 65 -76 c 2
 65 527 l 1
 103 527 l 1xc8
EndSplineSet
EndChar

StartChar: k
Encoding: 107 107 162
Width: 474
GlyphClass: 2
Flags: MW
HStem: 0 21G<72 110 72 72 404 404 404 458> 507 20G<404 456 456 456> 715 20G<72 110 110 110>
VStem: 72 38<0 204 247 735>
AnchorPoint: "Anchor-0" 240 0 basechar 0
LayerCount: 2
Fore
SplineSet
157 249 m 1
 110 204 l 1
 110 0 l 1
 72 0 l 1
 72 735 l 1
 110 735 l 1
 110 247 l 1
 404 527 l 1
 456 527 l 1
 185 273 l 1
 458 0 l 1
 404 0 l 1
 157 249 l 1
EndSplineSet
EndChar

StartChar: m
Encoding: 109 109 170
Width: 821
GlyphClass: 2
Flags: MW
HStem: 0 21G<72 110 72 72 394 432 394 394 715 753 715 715> 507 20G<72 110 110 110> 509 32<242.5 300 563.5 622>
VStem: 72 38<0 292 424 527> 394 38<0 283 283 292 0 303> 715 38<0 283 283 300 0 303>
LayerCount: 2
Fore
SplineSet
749 387 m 0xbc
 752 360 753 343 753 300 c 2
 753 0 l 1
 715 0 l 1
 715 283 l 2
 715 323 714 347 711 374 c 0
 702 456 662 509 582 509 c 0
 499 509 432 445 432 292 c 2
 432 0 l 1
 394 0 l 1
 394 283 l 2
 394 323 393 347 390 374 c 0
 380 456 340 509 260 509 c 0xbc
 178 509 110 445 110 292 c 2
 110 0 l 1
 72 0 l 1
 72 527 l 1
 110 527 l 1xdc
 110 424 l 1
 136 482 l 1
 170 522 216 541 269 541 c 0
 354 541 405 494 423 414 c 1
 458 482 l 1
 492 522 537 541 590 541 c 0
 685 541 738 483 749 387 c 0xbc
EndSplineSet
EndChar

StartChar: n
Encoding: 110 110 171
Width: 546
GlyphClass: 2
Flags: MW
HStem: 0 21G<72 110 72 72 441 479 441 441> 507 20G<72 110 110 110> 508 33<261 335.5>
VStem: 72 38<0 292 414 527> 441 38<0 285 285 294 0 302.5>
AnchorPoint: "Anchor-0" 271 0 basechar 0
LayerCount: 2
Fore
SplineSet
475 381 m 0xb8
 478 354 479 337 479 294 c 2
 479 0 l 1
 441 0 l 1
 441 285 l 2
 441 320 440 343 437 370 c 0
 428 452 383 508 288 508 c 0xb8
 195 508 110 443 110 292 c 2
 110 0 l 1
 72 0 l 1
 72 527 l 1
 110 527 l 1xd8
 110 414 l 1
 134 469 l 1
 174 519 230 541 292 541 c 0
 401 541 465 481 475 381 c 0xb8
EndSplineSet
EndChar

StartChar: p
Encoding: 112 112 187
Width: 561
GlyphClass: 2
Flags: MW
HStem: -14 32<256.5 346 246.5 351.5> 509 32<266.5 359> 513 20G<72 110 110 110>
VStem: 72 38<-196 108 150.5 232 232 284 416 533> 489 42<189 330>
LayerCount: 2
Fore
SplineSet
300 541 m 0xd8
 442 541 531 427 531 269 c 0
 531 80 416 -14 287 -14 c 0
 226 -14 179 4 140 46 c 1
 110 108 l 1
 110 -196 l 1
 72 -196 l 1
 72 533 l 1
 110 533 l 1xb8
 110 416 l 1
 141 475 l 1
 184 523 233 541 300 541 c 0xd8
287 18 m 0
 405 18 489 115 489 263 c 0
 489 397 422 509 296 509 c 0
 196 509 110 451 110 284 c 2
 110 232 l 2
 110 69 206 18 287 18 c 0
EndSplineSet
EndChar

StartChar: q
Encoding: 113 113 189
Width: 563
GlyphClass: 2
Flags: MW
HStem: -14 32<202 294.5> 509 32<215 304.5 209.5 314.5> 513 20G<452 490 490 490>
VStem: 30 42<197.5 338 197.5 353> 452 38<-196 114 114 114 233 302 302 302 418 533 -196 533>
LayerCount: 2
Fore
SplineSet
490 533 m 1xb8
 490 -196 l 1
 452 -196 l 1
 452 114 l 1
 420 52 l 1
 377 4 328 -14 261 -14 c 0
 119 -14 30 100 30 259 c 0
 30 447 145 541 274 541 c 0
 335 541 382 523 421 481 c 1xd8
 452 418 l 1
 452 533 l 1
 490 533 l 1xb8
452 233 m 1
 452 302 l 1
 451 295 l 1
 451 458 355 509 274 509 c 0
 156 509 72 412 72 264 c 0
 72 131 139 18 265 18 c 0
 365 18 451 76 451 244 c 1
 452 233 l 1
EndSplineSet
EndChar

StartChar: r
Encoding: 114 114 190
Width: 275
GlyphClass: 2
Flags: MW
HStem: 0 21G<72 110 72 72> 507 20 518 20G<272 272> 521 20G<223.5 250>
VStem: 72 38<0 292 420 527>
AnchorPoint: "Anchor-0" 91 0 basechar 0
LayerCount: 2
Fore
SplineSet
245 541 m 0x98
 255 541 264 540 272 538 c 1xa8
 272 507 l 1
 177 514 110 452 110 292 c 2
 110 0 l 1
 72 0 l 1
 72 527 l 1
 110 527 l 1xc8
 110 420 l 1
 138 484 l 1
 164 520 202 541 245 541 c 0x98
EndSplineSet
EndChar

StartChar: s
Encoding: 115 115 194
Width: 441
GlyphClass: 2
Flags: MW
HStem: -14 32<186.5 265 186.5 276.5> 509 32<181 256>
VStem: 26 39<156 156> 50 39<364.5 433.5 364.5 438.5> 367 39<90 158.5>
AnchorPoint: "Anchor-0" 227 0 basechar 0
LayerCount: 2
Fore
SplineSet
218 541 m 0xd8
 330 541 387 472 401 382 c 1
 362 382 l 1
 342 467 296 509 216 509 c 0
 146 509 89 468 89 399 c 0xd8
 89 330 144 303 225 284 c 0
 346 256 406 216 406 127 c 0
 406 39 329 -14 224 -14 c 0
 123 -14 39 36 26 156 c 1
 65 156 l 1xe8
 81 54 146 18 227 18 c 0
 303 18 367 55 367 125 c 0
 367 192 326 222 209 250 c 0
 123 271 50 306 50 396 c 0
 50 481 119 541 218 541 c 0xd8
EndSplineSet
EndChar

StartChar: t
Encoding: 116 116 200
Width: 255
GlyphClass: 2
Flags: MW
HStem: -7 29.8 493 30<26 91 26 91 129 231>
VStem: 91 38<137 493 523 635>
AnchorPoint: "Anchor-0" 161 0 basechar 0
LayerCount: 2
Fore
SplineSet
130 82 m 0
 134 30 157 15 232 26 c 1
 232 -4 l 1
 216 -6 195 -7 176 -7 c 0
 124 -7 97 16 93 67 c 0
 91 89 91 107 91 137 c 2
 91 493 l 1
 26 493 l 1
 26 523 l 1
 91 523 l 1
 91 635 l 1
 129 635 l 1
 129 523 l 1
 231 523 l 1
 231 493 l 1
 129 493 l 1
 129 135 l 2
 129 109 129 96 130 82 c 0
EndSplineSet
EndChar

StartChar: u
Encoding: 117 117 205
Width: 543
GlyphClass: 2
Flags: MW
HStem: -14 33<208.5 281> 0 21G<432 470 432 432> 507 20G<63 101 101 101 432 470 470 470>
VStem: 63 38<229 239 239 527> 432 38<0 113 113 113 235 527 0 527>
LayerCount: 2
Fore
SplineSet
470 527 m 1xb8
 470 0 l 1
 432 0 l 1x78
 432 113 l 1
 408 58 l 1
 367 9 312 -14 250 -14 c 0
 143 -14 79 46 67 141 c 0
 64 168 63 186 63 229 c 2
 63 527 l 1
 101 527 l 1
 101 239 l 2
 101 207 102 183 105 156 c 0
 115 74 162 19 255 19 c 0
 348 19 432 85 432 235 c 2
 432 527 l 1
 470 527 l 1xb8
EndSplineSet
EndChar

StartChar: v
Encoding: 118 118 214
Width: 480
GlyphClass: 2
Flags: MW
HStem: 0 29<242 242 242 266 216 242> 507 20G<10 53 53 53 431 472 472 472>
VStem: 10 462<527 527>
LayerCount: 2
Fore
SplineSet
472 527 m 1
 266 0 l 1
 216 0 l 1
 10 527 l 1
 53 527 l 1
 242 29 l 1
 431 527 l 1
 472 527 l 1
EndSplineSet
EndChar

StartChar: w
Encoding: 119 119 215
Width: 733
GlyphClass: 2
Flags: MW
HStem: 0 37<204 204 204 229 178 204> 487 39<371 371>
VStem: 10 716<527 527>
LayerCount: 2
Fore
SplineSet
726 527 m 1
 559 0 l 1
 513 0 l 1
 371 487 l 1
 229 0 l 1
 178 0 l 1
 10 527 l 1
 54 527 l 1
 204 37 l 1
 346 526 l 1
 396 526 l 1
 539 39 l 1
 685 527 l 1
 726 527 l 1
EndSplineSet
EndChar

StartChar: x
Encoding: 120 120 220
Width: 433
GlyphClass: 2
Flags: MW
HStem: 0 21G<1 46 1 1 375 421 375 375> 507 20G<9 54 54 54 375 420 420 420>
VStem: 1 420<0 0>
LayerCount: 2
Fore
SplineSet
234 266 m 1
 421 0 l 1
 375 0 l 1
 212 240 l 1
 46 0 l 1
 1 0 l 1
 189 265 l 1
 9 527 l 1
 54 527 l 1
 213 291 l 1
 375 527 l 1
 420 527 l 1
 234 266 l 1
EndSplineSet
EndChar

StartChar: y
Encoding: 121 121 221
Width: 471
GlyphClass: 2
Flags: MW
HStem: -210 33<76 103.5 76 114.5> 507 20G<10 53 53 53 421 464 464 464>
VStem: 10 454<527 527>
LayerCount: 2
Fore
SplineSet
464 527 m 1
 257 -11 l 2
 193 -178 147 -210 82 -210 c 0
 67 -210 56 -209 45 -207 c 1
 45 -174 l 1
 58 -177 70 -177 82 -177 c 0
 125 -177 162 -151 203 -51 c 1
 218 -13 l 1
 10 527 l 1
 53 527 l 1
 237 30 l 1
 421 527 l 1
 464 527 l 1
EndSplineSet
EndChar

StartChar: z
Encoding: 122 122 226
Width: 449
GlyphClass: 2
Flags: MW
HStem: 0 31<61 425 61 425> 487 33<41 374 41 421>
VStem: 15 410<0 30 30 30>
LayerCount: 2
Fore
SplineSet
425 31 m 1
 425 0 l 1
 15 0 l 1
 15 30 l 1
 374 487 l 1
 41 487 l 1
 41 520 l 1
 421 520 l 1
 421 488 l 1
 61 31 l 1
 425 31 l 1
EndSplineSet
EndChar

StartChar: braceleft
Encoding: 123 123 261
Width: 298
Flags: MW
HStem: -80 30<264 265 265 281> 750 30<233.5 281 265 281 265 281>
VStem: 75 33 134 31<-0.5 40.5 -0.5 40.5 659.5 700.5> 156 31<234 267 433 466.5>
LayerCount: 2
Fore
SplineSet
281 750 m 1xd0
 264 750 l 2
 203 750 165 730 165 671 c 0xd0
 165 648 168 632 176 575 c 0
 185 508 187 479 187 454 c 0
 187 410 167 363 108 351 c 1
 166 338 187 290 187 246 c 0xe8
 187 222 185 192 176 125 c 0
 168 69 165 52 165 29 c 0
 165 -30 203 -50 264 -50 c 2
 281 -50 l 1
 281 -80 l 1
 265 -80 l 2
 187 -80 134 -53 134 30 c 0xd0
 134 51 136 72 146 135 c 1
 154 192 156 220 156 245 c 0
 156 289 135 329 75 335 c 1
 75 365 l 1
 135 371 156 411 156 455 c 0xe8
 156 480 154 508 146 565 c 0
 136 629 134 649 134 670 c 0
 134 753 187 780 265 780 c 2
 281 780 l 1
 281 750 l 1xd0
EndSplineSet
EndChar

StartChar: bar
Encoding: 124 124 314
Width: 250
Flags: MW
HStem: -200 1000<110 141 110 141>
VStem: 110 31<-200 800>
LayerCount: 2
Fore
SplineSet
141 -200 m 1
 110 -200 l 1
 110 800 l 1
 141 800 l 1
 141 -200 l 1
EndSplineSet
EndChar

StartChar: braceright
Encoding: 125 125 262
Width: 298
Flags: MW
HStem: -80 30<17 33 17 34> 750 30<17 33 33 34 17 33>
VStem: 111 31<234 267 232.5 268 433 466.5> 133 31<-0.5 40.5 659.5 700.5> 190 33
LayerCount: 2
Fore
SplineSet
142 455 m 0xe0
 142 411 163 371 223 365 c 1
 223 335 l 1
 163 329 142 289 142 245 c 0xe8
 142 220 144 192 152 135 c 1
 162 72 164 51 164 30 c 0
 164 -53 111 -80 33 -80 c 2
 17 -80 l 1
 17 -50 l 1
 34 -50 l 2
 95 -50 133 -30 133 29 c 0xd0
 133 52 130 69 122 125 c 0
 113 192 111 222 111 246 c 0
 111 290 131 337 190 349 c 1
 132 362 111 411 111 454 c 0xe8
 111 479 113 508 122 575 c 0
 130 632 133 648 133 671 c 0
 133 730 95 750 34 750 c 2
 17 750 l 1
 17 780 l 1
 33 780 l 2
 111 780 164 753 164 670 c 0xd0
 164 649 162 629 152 565 c 0
 144 508 142 480 142 455 c 0xe0
EndSplineSet
EndChar

StartChar: asciitilde
Encoding: 126 126 288
Width: 543
Flags: MW
HStem: 231 30<376.5 413 376.5 418.5> 319 30<129.5 166.5>
VStem: 61 30<228 257 228 269.5> 452 30<322.5 352>
LayerCount: 2
Fore
SplineSet
452 352 m 1
 482 352 l 1
 482 268 448 231 389 231 c 0
 352 231 330 239 263 276 c 0
 207 307 182 319 151 319 c 0
 108 319 91 286 91 228 c 1
 61 228 l 1
 61 311 95 349 153 349 c 0
 192 349 214 339 280 303 c 0
 338 271 362 261 391 261 c 0
 435 261 452 293 452 352 c 1
EndSplineSet
EndChar

StartChar: exclamdown
Encoding: 161 161 250
Width: 212
Flags: MW
HStem: 482 62<97.5 115>
VStem: 75 62<504.5 522> 86 40
LayerCount: 2
Fore
SplineSet
106 482 m 0xc0
 89 482 75 496 75 513 c 0
 75 531 89 544 106 544 c 0
 124 544 137 531 137 513 c 0
 137 496 124 482 106 482 c 0xc0
89 403 m 1xa0
 123 403 l 1
 129 -160 l 1
 83 -160 l 1
 89 403 l 1xa0
EndSplineSet
EndChar

StartChar: cent
Encoding: 162 162 281
Width: 538
Flags: MW
HStem: -13 31<295 295> 513 31<295 295>
VStem: 45 41<189 345 189 345.5> 264 31<-90 -14 -14 -14 19 512 512 512 544 620>
LayerCount: 2
Fore
SplineSet
295 513 m 1
 295 18 l 1
 375 24 439 73 458 160 c 1
 497 160 l 1
 476 56 398 -7 295 -13 c 1
 295 -90 l 1
 264 -90 l 1
 264 -14 l 1
 141 -7 45 92 45 265 c 0
 45 426 143 531 264 543 c 1
 264 620 l 1
 295 620 l 1
 295 544 l 1
 408 541 486 469 501 363 c 1
 462 363 l 1
 446 453 388 509 295 513 c 1
86 270 m 0
 86 108 171 27 264 19 c 1
 264 512 l 1
 176 500 86 420 86 270 c 0
EndSplineSet
EndChar

StartChar: sterling
Encoding: 163 163 285
Width: 543
Flags: MW
HStem: 0 33<127 485 127 485> 343 30<67 140 67 157 67 140 203 203 203 416> 671 33<246.5 336>
VStem: 97 42<496.5 566 496.5 573.5> 203 40<169 228> 444 40<508 508>
LayerCount: 2
Fore
SplineSet
485 33 m 1
 485 0 l 1
 58 0 l 1
 58 31 l 1
 137 52 203 111 203 204 c 0
 203 252 188 291 157 343 c 1
 67 343 l 1
 67 373 l 1
 140 373 l 1
 115 418 97 462 97 518 c 0
 97 629 182 704 290 704 c 0
 418 704 476 621 484 508 c 1
 444 508 l 1
 436 614 384 671 288 671 c 0
 205 671 139 609 139 523 c 0
 139 470 155 429 186 373 c 1
 416 373 l 1
 416 343 l 1
 203 343 l 1
 230 296 243 251 243 208 c 0
 243 130 204 71 127 33 c 1
 485 33 l 1
EndSplineSet
EndChar

StartChar: currency
Encoding: 164 164 282
Width: 543
Flags: MW
HStem: 121 30<249 293> 451 30<249 293 249 313>
VStem: 94 34<278 324> 415 33<278.5 323.5 278.5 343.5>
LayerCount: 2
Fore
SplineSet
448 301 m 0
 448 256 433 215 408 184 c 1
 466 126 l 1
 443 104 l 1
 386 162 l 1
 355 136 315 121 271 121 c 0
 227 121 187 136 157 162 c 1
 100 104 l 1
 77 127 l 1
 135 184 l 1
 109 215 94 255 94 301 c 0
 94 347 109 387 135 418 c 1
 77 476 l 1
 100 498 l 1
 157 441 l 1
 188 466 227 481 271 481 c 0
 315 481 355 466 385 440 c 1
 443 498 l 1
 466 476 l 1
 408 418 l 1
 433 387 448 346 448 301 c 0
271 151 m 0
 355 151 415 216 415 301 c 0
 415 386 355 451 271 451 c 0
 188 451 128 386 128 301 c 0
 128 216 188 151 271 151 c 0
EndSplineSet
EndChar

StartChar: yen
Encoding: 165 165 286
Width: 543
Flags: MW
HStem: 0 21G<252 290 252 252> 211 30<74 252 74 252 290 469> 316 30<74 233 74 251 74 233 309 469> 670 20G<22 71 71 71 473 520 520 520>
VStem: 252 38<0 211 0 211 241 315>
LayerCount: 2
Fore
SplineSet
309 346 m 1
 469 346 l 1
 469 316 l 1
 291 316 l 1
 290 315 l 1
 290 241 l 1
 469 241 l 1
 469 211 l 1
 290 211 l 1
 290 0 l 1
 252 0 l 1
 252 211 l 1
 74 211 l 1
 74 241 l 1
 252 241 l 1
 252 315 l 1
 251 316 l 1
 74 316 l 1
 74 346 l 1
 233 346 l 1
 22 690 l 1
 71 690 l 1
 272 349 l 1
 473 690 l 1
 520 690 l 1
 309 346 l 1
EndSplineSet
EndChar

StartChar: brokenbar
Encoding: 166 166 315
Width: 250
Flags: MW
HStem: 670 20G<110 141 141 141>
VStem: 110 31<-160 180 350 690>
LayerCount: 2
Fore
SplineSet
141 350 m 1
 110 350 l 1
 110 690 l 1
 141 690 l 1
 141 350 l 1
141 -160 m 1
 110 -160 l 1
 110 180 l 1
 141 180 l 1
 141 -160 l 1
EndSplineSet
EndChar

StartChar: section
Encoding: 167 167 322
Width: 538
Flags: MW
HStem: -174 32<232 312 232 322.5> 672 32<231.5 304.5>
VStem: 45 41<248 325> 99 41<528.5 598.5 523 603> 413 41<-68.5 -0.5 -76 1> 466 41<214.5 289.5>
LayerCount: 2
Fore
SplineSet
507 256 m 0
 507 173 448 122 374 104 c 1
 429 73 454 30 454 -31 c 0
 454 -121 374 -174 271 -174 c 0
 166 -174 94 -123 72 -7 c 1
 111 -7 l 1
 134 -100 190 -142 274 -142 c 0
 350 -142 413 -103 413 -34 c 0
 413 36 377 79 231 111 c 0
 141 131 45 185 45 282 c 0xec
 45 368 102 416 175 434 c 1
 131 460 99 499 99 558 c 0
 99 648 168 704 266 704 c 0
 377 704 434 638 450 546 c 1
 411 546 l 1
 390 629 344 672 265 672 c 0
 198 672 140 634 140 563 c 0xf4
 140 483 213 448 299 430 c 0
 426 404 507 352 507 256 c 0
321 126 m 1
 395 130 466 171 466 252 c 0
 466 327 403 368 283 395 c 0
 262 400 241 405 220 413 c 1
 155 406 86 374 86 285 c 0
 86 211 163 164 247 146 c 0
 275 140 299 134 321 126 c 1
EndSplineSet
EndChar

StartChar: dieresis
Encoding: 168 168 329
Width: 300
Flags: MW
HStem: 606 53<94.5 109 191 205.5>
VStem: 75 53<625 639.5> 172 53<625 639.5>
LayerCount: 2
Fore
SplineSet
102 659 m 0
 116 659 128 647 128 632 c 0
 128 618 116 606 102 606 c 0
 87 606 75 618 75 632 c 0
 75 647 87 659 102 659 c 0
198 659 m 0
 213 659 225 647 225 632 c 0
 225 618 213 606 198 606 c 0
 184 606 172 618 172 632 c 0
 172 647 184 659 198 659 c 0
EndSplineSet
EndChar

StartChar: guillemotleft
Encoding: 171 171 270
Width: 516
Flags: MW
HStem: 82 332<271 311 271 311 271 404 404 444>
VStem: 134 310<82 248>
LayerCount: 2
Fore
SplineSet
311 414 m 1
 174 248 l 1
 311 82 l 1
 271 82 l 1
 134 248 l 1
 271 414 l 1
 311 414 l 1
444 414 m 1
 307 248 l 1
 444 82 l 1
 404 82 l 1
 267 248 l 1
 404 414 l 1
 444 414 l 1
EndSplineSet
EndChar

StartChar: logicalnot
Encoding: 172 172 298
Width: 543
Flags: MW
HStem: 340 30<90 414 90 445>
VStem: 414 31<210 340 340 340>
LayerCount: 2
Fore
SplineSet
445 210 m 1
 414 210 l 1
 414 340 l 1
 90 340 l 1
 90 370 l 1
 445 370 l 1
 445 210 l 1
EndSplineSet
EndChar

StartChar: registered
Encoding: 174 174 321
Width: 519
Flags: MW
HStem: 344 27<206 312.5 206 320.5> 534 24<225 251 251 255.5 225 261 225 251> 635 25<225 252 252 256 197 257 225 225> 737 27<206 312.5>
VStem: 49 30<501.5 608 501.5 616> 197 28<456 534 558 635> 305 30<588 608.5> 440 29<501.5 608>
LayerCount: 2
Fore
SplineSet
259 764 m 0
 382 764 469 677 469 555 c 0
 469 431 382 344 259 344 c 0
 136 344 49 431 49 555 c 0
 49 677 136 764 259 764 c 0
259 371 m 0
 366 371 440 448 440 555 c 0
 440 661 366 737 259 737 c 0
 153 737 79 661 79 555 c 0
 79 448 153 371 259 371 c 0
294 550 m 1
 310 545 318 531 321 510 c 0
 325 484 331 467 338 456 c 1
 305 456 l 1
 300 468 296 482 292 505 c 1
 290 524 281 534 261 534 c 2
 225 534 l 1
 225 456 l 1
 197 456 l 1
 197 660 l 1
 252 660 l 2
 260 660 267 660 276 659 c 0
 311 655 335 637 335 601 c 0
 335 575 319 557 294 550 c 1
225 558 m 1
 251 558 l 2
 260 558 267 558 273 559 c 0
 291 562 305 574 305 596 c 0
 305 621 290 631 273 634 c 0
 267 635 263 635 257 635 c 2
 225 635 l 1
 225 558 l 1
EndSplineSet
EndChar

StartChar: macron
Encoding: 175 175 333
Width: 300
Flags: MW
HStem: 616 29<68 233 68 233>
VStem: 68 165<616 645 616 645>
LayerCount: 2
Fore
SplineSet
233 616 m 1
 68 616 l 1
 68 645 l 1
 233 645 l 1
 233 616 l 1
EndSplineSet
EndChar

StartChar: degree
Encoding: 176 176 319
Width: 282
Flags: MW
HStem: 493 30<119 163 119 172> 674 30<119 163>
VStem: 34 33<576 621.5 576 630> 215 33<576 621.5>
LayerCount: 2
Fore
SplineSet
141 704 m 0
 203 704 248 661 248 599 c 0
 248 537 203 493 141 493 c 0
 79 493 34 537 34 599 c 0
 34 661 79 704 141 704 c 0
141 674 m 0
 97 674 67 644 67 599 c 0
 67 553 97 523 141 523 c 0
 185 523 215 553 215 599 c 0
 215 644 185 674 141 674 c 0
EndSplineSet
EndChar

StartChar: plusminus
Encoding: 177 177 306
Width: 543
Flags: MW
HStem: 0 30<58 463 58 463> 303 30<58 245 58 245 276 463> 514 20G<245 276 276 276>
VStem: 245 31<101 303 101 303 333 534>
LayerCount: 2
Fore
SplineSet
276 333 m 1
 463 333 l 1
 463 303 l 1
 276 303 l 1
 276 101 l 1
 245 101 l 1
 245 303 l 1
 58 303 l 1
 58 333 l 1
 245 333 l 1
 245 534 l 1
 276 534 l 1
 276 333 l 1
463 0 m 1
 58 0 l 1
 58 30 l 1
 463 30 l 1
 463 0 l 1
EndSplineSet
EndChar

StartChar: acute
Encoding: 180 180 324
Width: 300
Flags: MW
HStem: 580 110<133 234 133 234>
VStem: 133 101
LayerCount: 2
Fore
SplineSet
161 580 m 1
 133 580 l 1
 193 690 l 1
 234 690 l 1
 161 580 l 1
EndSplineSet
EndChar

StartChar: paragraph
Encoding: 182 182 320
Width: 538
Flags: MW
HStem: 660 30<316 435 316 316>
VStem: 285 31<-110 320 320 320> 435 31<-110 660 660 660>
LayerCount: 2
Fore
SplineSet
466 690 m 1
 466 -110 l 1
 435 -110 l 1
 435 660 l 1
 316 660 l 1
 316 -110 l 1
 285 -110 l 1
 285 320 l 1
 262 320 l 2
 244 320 223 320 206 321 c 0
 104 327 49 410 49 505 c 0
 49 600 104 683 206 689 c 0
 223 690 244 690 262 690 c 2
 466 690 l 1
EndSplineSet
EndChar

StartChar: periodcentered
Encoding: 183 183 253
Width: 153
Flags: MW
HStem: 271 68<66.5 86>
VStem: 43 67<295.5 315>
LayerCount: 2
Fore
SplineSet
76 339 m 0
 96 339 110 325 110 305 c 0
 110 286 96 271 76 271 c 0
 57 271 43 286 43 305 c 0
 43 325 57 339 76 339 c 0
EndSplineSet
EndChar

StartChar: cedilla
Encoding: 184 184 327
Width: 300
Flags: MW
HStem: -210 26<110 143 110 147.5> -71 23
VStem: 195 31<-146 -108>
LayerCount: 2
Fore
SplineSet
170 8 m 1
 140 -48 l 1
 194 -54 226 -78 226 -127 c 0
 226 -184 175 -210 120 -210 c 0
 99 -210 82 -207 68 -200 c 1
 68 -173 l 1
 83 -181 99 -184 121 -184 c 0
 165 -184 195 -165 195 -127 c 0
 195 -89 165 -68 97 -71 c 1
 138 8 l 1
 170 8 l 1
EndSplineSet
EndChar

StartChar: guillemotright
Encoding: 187 187 271
Width: 516
Flags: MW
HStem: 82 332<72 112 72 112 72 205 205 245>
VStem: 72 310<82 248 248 414>
LayerCount: 2
Fore
SplineSet
249 248 m 1
 112 82 l 1
 72 82 l 1
 209 248 l 1
 72 414 l 1
 112 414 l 1
 249 248 l 1
382 248 m 1
 245 82 l 1
 205 82 l 1
 342 248 l 1
 205 414 l 1
 245 414 l 1
 382 248 l 1
EndSplineSet
EndChar

StartChar: questiondown
Encoding: 191 191 255
Width: 477
Flags: MW
HStem: -178 33<220.5 319 220.5 327.5> 478 62<274.5 292>
VStem: 71 42<-44 33.5 -44 37> 252 62<500.5 518> 266 36<399 399> 440 39<32 32>
LayerCount: 2
Fore
SplineSet
283 478 m 0xf4
 266 478 252 492 252 509 c 0
 252 527 266 540 283 540 c 0
 301 540 314 527 314 509 c 0
 314 492 301 478 283 478 c 0xf4
266 -178 m 0
 139 -178 71 -99 71 2 c 0
 71 72 107 135 167 193 c 0
 250 273 265 311 266 399 c 1
 302 399 l 1xec
 300 302 286 264 200 177 c 0
 139 114 113 65 113 2 c 0
 113 -90 174 -145 267 -145 c 0
 371 -145 432 -76 440 32 c 1
 479 32 l 1
 474 -93 389 -178 266 -178 c 0
EndSplineSet
EndChar

StartChar: Aacute
Encoding: 193 193 2
Width: 622
GlyphClass: 2
Flags: MW
HStem: 0 21G<34 75 34 34 566 566 566 607> 263 33<185 455 185 467 172 455> 659 31<321 321> 736 94<305 399 305 399>
VStem: 34 573<0 0>
LayerCount: 2
Fore
SplineSet
333 736 m 1
 305 736 l 1
 358 830 l 1
 399 830 l 1
 333 736 l 1
467 263 m 1
 172 263 l 1
 75 0 l 1
 34 0 l 1
 297 690 l 1
 347 690 l 1
 607 0 l 1
 566 0 l 1
 467 263 l 1
185 296 m 1
 455 296 l 1
 321 659 l 1
 185 296 l 1
EndSplineSet
Position2: "'cpsp' Capital Spacing in Latin lookup 0 subtable" dx=5 dy=0 dh=10 dv=0
EndChar

StartChar: Atilde
Encoding: 195 195 10
Width: 622
GlyphClass: 2
Flags: MW
HStem: 0 21G<34 75 34 34 566 566 566 607> 263 33<185 455 185 467 172 455> 659 31<321 321> 757 28<369.5 379 369.5 388> 782 28<265 274.5>
VStem: 230 24<761 768.5 761 778> 390 25<798.5 806>
LayerCount: 2
Fore
SplineSet
270 782 m 0xee
 260 782 254 776 254 761 c 1
 230 761 l 1
 230 795 244 810 270 810 c 0xee
 286 810 301 806 328 797 c 0
 352 789 365 785 374 785 c 0
 384 785 390 791 390 806 c 1
 415 806 l 1
 415 772 401 757 375 757 c 0xf6
 358 757 343 761 316 770 c 0
 292 778 279 782 270 782 c 0xee
467 263 m 1xf6
 172 263 l 1
 75 0 l 1
 34 0 l 1
 297 690 l 1
 347 690 l 1
 607 0 l 1
 566 0 l 1
 467 263 l 1xf6
185 296 m 1
 455 296 l 1
 321 659 l 1
 185 296 l 1
EndSplineSet
Position2: "'cpsp' Capital Spacing in Latin lookup 0 subtable" dx=5 dy=0 dh=10 dv=0
EndChar

StartChar: Adieresis
Encoding: 196 196 5
Width: 622
GlyphClass: 2
Flags: MW
HStem: 0 21G<34 75 34 34 566 566 566 607> 263 33<185 455 185 467 172 455> 659 31<321 321> 757 53<271 285.5 358.5 373>
VStem: 252 53<776 790.5> 339 53<776 790.5>
LayerCount: 2
Fore
SplineSet
278 757 m 0
 264 757 252 769 252 783 c 0
 252 798 264 810 278 810 c 0
 293 810 305 798 305 783 c 0
 305 769 293 757 278 757 c 0
366 757 m 0
 351 757 339 769 339 783 c 0
 339 798 351 810 366 810 c 0
 380 810 392 798 392 783 c 0
 392 769 380 757 366 757 c 0
467 263 m 1
 172 263 l 1
 75 0 l 1
 34 0 l 1
 297 690 l 1
 347 690 l 1
 607 0 l 1
 566 0 l 1
 467 263 l 1
185 296 m 1
 455 296 l 1
 321 659 l 1
 185 296 l 1
EndSplineSet
Position2: "'cpsp' Capital Spacing in Latin lookup 0 subtable" dx=5 dy=0 dh=10 dv=0
EndChar

StartChar: Aring
Encoding: 197 197 9
Width: 622
GlyphClass: 2
Flags: MW
HStem: 0 21G<34 75 34 34 566 566 566 607> 263 33<185 455 185 467 172 455> 659 31<321 321> 721 24<309.5 334.5 309.5 341.5> 827 25<309.5 334.5>
VStem: 252 31<774.5 797.5 774.5 806> 362 30<774.5 797.5>
LayerCount: 2
Fore
SplineSet
322 721 m 0
 283 721 252 746 252 786 c 0
 252 826 283 852 322 852 c 0
 361 852 392 826 392 786 c 0
 392 746 361 721 322 721 c 0
322 827 m 0
 297 827 283 809 283 786 c 0
 283 763 297 745 322 745 c 0
 347 745 362 763 362 786 c 0
 362 809 347 827 322 827 c 0
467 263 m 1
 172 263 l 1
 75 0 l 1
 34 0 l 1
 297 690 l 1
 347 690 l 1
 607 0 l 1
 566 0 l 1
 467 263 l 1
185 296 m 1
 455 296 l 1
 321 659 l 1
 185 296 l 1
EndSplineSet
Position2: "'cpsp' Capital Spacing in Latin lookup 0 subtable" dx=5 dy=0 dh=10 dv=0
EndChar

StartChar: AE
Encoding: 198 198 11
Width: 900
GlyphClass: 2
Flags: MW
HStem: 0 33<495 869 495 869> 263 33<208 445 208 446 187 445> 329 32<481 836 481 481> 658 32<466 859 466 466>
VStem: 436.5 36.5 452.5 35.5
LayerCount: 2
Fore
SplineSet
869 33 m 1xf8
 869 0 l 1
 459 0 l 1
 446 263 l 1xf4
 187 263 l 1
 27 0 l 1
 -16 0 l 1
 409 690 l 1
 859 690 l 1
 859 658 l 1
 466 658 l 1
 480 361 l 1xf8
 836 361 l 1
 836 329 l 1
 481 329 l 1
 495 33 l 1xf4
 869 33 l 1xf8
445 296 m 1xf8
 428 657 l 1
 208 296 l 1
 445 296 l 1xf8
EndSplineSet
Position2: "'cpsp' Capital Spacing in Latin lookup 0 subtable" dx=5 dy=0 dh=10 dv=0
EndChar

StartChar: Ccedilla
Encoding: 199 199 16
Width: 683
GlyphClass: 2
Flags: MW
HStem: -210 26<317 350 317 354.5> -71 23 -13 32<334 334> 671 33<291.5 428.5>
VStem: 50 42<237.5 448.5 237.5 450> 402 31<-146 -108> 594 38.5
AnchorPoint: "Anchor-0" 357 0 basechar 0
LayerCount: 2
Fore
SplineSet
595 228 m 1
 633 228 l 1
 632 218 l 1
 610 93 526 -9 365 -14 c 1
 347 -48 l 1
 401 -54 433 -78 433 -127 c 0
 433 -184 382 -210 327 -210 c 0
 306 -210 289 -207 275 -200 c 1
 275 -173 l 1
 290 -181 306 -184 328 -184 c 0
 372 -184 402 -165 402 -127 c 0
 402 -89 372 -68 304 -71 c 1
 334 -13 l 1
 165 -4 50 132 50 343 c 0
 50 557 185 704 366 704 c 0
 523 704 609 607 632 481 c 1
 633 471 l 1
 595 471 l 1
 593 481 l 2
 571 590 494 671 363 671 c 0
 220 671 92 552 92 345 c 0
 92 130 210 19 355 19 c 0
 495 19 570 105 593 218 c 2
 595 228 l 1
EndSplineSet
Position2: "'cpsp' Capital Spacing in Latin lookup 0 subtable" dx=5 dy=0 dh=10 dv=0
EndChar

StartChar: Eacute
Encoding: 201 201 23
Width: 565
GlyphClass: 2
Flags: MW
HStem: 0 33<135 534 135 534> 329 32<135 501 135 501> 658 32<135 524 135 135> 658 172<338 379 338 524>
VStem: 97 38<33 329 361 658>
AnchorPoint: "Anchor-0" 294 0 basechar 0
LayerCount: 2
Fore
SplineSet
313 736 m 1xd8
 285 736 l 1
 338 830 l 1
 379 830 l 1
 313 736 l 1xd8
534 33 m 1
 534 0 l 1
 97 0 l 1
 97 690 l 1
 524 690 l 1
 524 658 l 1
 135 658 l 1xe8
 135 361 l 1
 501 361 l 1
 501 329 l 1
 135 329 l 1
 135 33 l 1
 534 33 l 1
EndSplineSet
Position2: "'cpsp' Capital Spacing in Latin lookup 0 subtable" dx=5 dy=0 dh=10 dv=0
EndChar

StartChar: Ecircumflex
Encoding: 202 202 25
Width: 565
GlyphClass: 2
Flags: MW
HStem: 0 33<135 534 135 534> 329 32<135 501 135 501> 658 32<135 524 135 135> 658 172<287 319 287 524 135 319>
VStem: 97 38<33 329 361 658>
AnchorPoint: "Anchor-0" 294 0 basechar 0
LayerCount: 2
Fore
SplineSet
255 736 m 1xd8
 221 736 l 1
 287 830 l 1
 319 830 l 1
 384 736 l 1
 349 736 l 1
 302 810 l 1
 255 736 l 1xd8
534 33 m 1
 534 0 l 1
 97 0 l 1
 97 690 l 1
 524 690 l 1
 524 658 l 1
 135 658 l 1xe8
 135 361 l 1
 501 361 l 1
 501 329 l 1
 135 329 l 1
 135 33 l 1
 534 33 l 1
EndSplineSet
Position2: "'cpsp' Capital Spacing in Latin lookup 0 subtable" dx=5 dy=0 dh=10 dv=0
EndChar

StartChar: Edieresis
Encoding: 203 203 26
Width: 565
GlyphClass: 2
Flags: MW
HStem: 0 33<135 534 135 534> 329 32<135 501 135 501> 658 32<135 524 135 135> 658 152<251 265.5 338.5 353 251 524 135 265.5>
VStem: 97 38<33 329 361 658> 232 53<776 790.5> 319 53<776 790.5>
AnchorPoint: "Anchor-0" 294 0 basechar 0
LayerCount: 2
Fore
SplineSet
258 757 m 0xde
 244 757 232 769 232 783 c 0
 232 798 244 810 258 810 c 0
 273 810 285 798 285 783 c 0
 285 769 273 757 258 757 c 0xde
346 757 m 0
 331 757 319 769 319 783 c 0
 319 798 331 810 346 810 c 0
 360 810 372 798 372 783 c 0
 372 769 360 757 346 757 c 0
534 33 m 1
 534 0 l 1
 97 0 l 1
 97 690 l 1
 524 690 l 1
 524 658 l 1
 135 658 l 1xe8
 135 361 l 1
 501 361 l 1
 501 329 l 1
 135 329 l 1
 135 33 l 1
 534 33 l 1
EndSplineSet
Position2: "'cpsp' Capital Spacing in Latin lookup 0 subtable" dx=5 dy=0 dh=10 dv=0
EndChar

StartChar: Igrave
Encoding: 204 204 44
Width: 208
GlyphClass: 2
Flags: MW
HStem: 0 21G<97 135 97 97> 670 20G<97 135 135 135> 736 94<37 131 37 103>
VStem: 97 38<0 690>
LayerCount: 2
Fore
SplineSet
131 736 m 1
 103 736 l 1
 37 830 l 1
 78 830 l 1
 131 736 l 1
135 0 m 1
 97 0 l 1
 97 690 l 1
 135 690 l 1
 135 0 l 1
EndSplineSet
Position2: "'cpsp' Capital Spacing in Latin lookup 0 subtable" dx=5 dy=0 dh=10 dv=0
EndChar

StartChar: Iacute
Encoding: 205 205 40
Width: 208
GlyphClass: 2
Flags: MW
HStem: 0 21G<97 135 97 97> 670 20G<97 135 135 135> 736 94<99 193 99 193>
VStem: 97 38<0 690>
LayerCount: 2
Fore
SplineSet
127 736 m 1
 99 736 l 1
 152 830 l 1
 193 830 l 1
 127 736 l 1
135 0 m 1
 97 0 l 1
 97 690 l 1
 135 690 l 1
 135 0 l 1
EndSplineSet
Position2: "'cpsp' Capital Spacing in Latin lookup 0 subtable" dx=5 dy=0 dh=10 dv=0
EndChar

StartChar: Icircumflex
Encoding: 206 206 41
Width: 208
GlyphClass: 2
Flags: MW
HStem: 0 21G<97 135 97 97> 670 20G<97 135 135 135> 810 20<116 116>
VStem: 97 38<0 690 0 690>
LayerCount: 2
Fore
SplineSet
198 736 m 1
 163 736 l 1
 116 810 l 1
 69 736 l 1
 35 736 l 1
 101 830 l 1
 133 830 l 1
 198 736 l 1
97 690 m 1
 135 690 l 1
 135 0 l 1
 97 0 l 1
 97 690 l 1
EndSplineSet
Position2: "'cpsp' Capital Spacing in Latin lookup 0 subtable" dx=5 dy=0 dh=10 dv=0
EndChar

StartChar: Idieresis
Encoding: 207 207 42
Width: 208
GlyphClass: 2
Flags: MW
HStem: 0 21G<97 135 97 97> 670 20G<97 135 135 135> 757 53<65 79.5 152.5 167>
VStem: 46 53<776 790.5> 97 38<0 690> 133 53<776 790.5>
LayerCount: 2
Fore
SplineSet
72 810 m 0xf4
 87 810 99 798 99 783 c 0
 99 769 87 757 72 757 c 0
 58 757 46 769 46 783 c 0
 46 798 58 810 72 810 c 0xf4
160 810 m 0
 174 810 186 798 186 783 c 0
 186 769 174 757 160 757 c 0
 145 757 133 769 133 783 c 0
 133 798 145 810 160 810 c 0
135 0 m 1xe8
 97 0 l 1
 97 690 l 1
 135 690 l 1
 135 0 l 1xe8
EndSplineSet
Position2: "'cpsp' Capital Spacing in Latin lookup 0 subtable" dx=5 dy=0 dh=10 dv=0
EndChar

StartChar: Eth
Encoding: 208 208 19
Width: 689
GlyphClass: 2
Flags: MW
HStem: 0 33<138 299 299 300> 319 29<40 100 40 100 138 310> 657 33<138 300 138 138>
VStem: 100 38<33 319 33 319 33 319 348 657> 610 41<251 449.5>
LayerCount: 2
Fore
SplineSet
378 688 m 0
 498 677 651 584 651 349 c 0
 651 116 498 17 388 4 c 0
 353 0 333 0 300 0 c 2
 100 0 l 1
 100 319 l 1
 40 319 l 1
 40 348 l 1
 100 348 l 1
 100 690 l 1
 301 690 l 2
 335 690 351 690 378 688 c 0
384 38 m 0
 495 52 610 153 610 349 c 0
 610 550 486 642 375 654 c 0
 353 657 336 657 300 657 c 2
 138 657 l 1
 138 348 l 1
 310 348 l 1
 310 319 l 1
 138 319 l 1
 138 33 l 1
 299 33 l 2
 331 33 353 34 384 38 c 0
EndSplineSet
Position2: "'cpsp' Capital Spacing in Latin lookup 0 subtable" dx=5 dy=0 dh=10 dv=0
EndChar

StartChar: Ntilde
Encoding: 209 209 62
Width: 657
GlyphClass: 2
Flags: MW
HStem: 0 36<549 549 549 585 526 549> 654 36<133 133> 757 28<388.5 398 388.5 407> 782 28<284 293.5>
VStem: 97 38<0 368 0 690> 249 24<761 768.5 761 778> 409 25<798.5 806> 547 37.5
AnchorPoint: "Anchor-0" 341 0 basechar 0
LayerCount: 2
Fore
SplineSet
289 810 m 0xdf
 305 810 320 806 347 797 c 0
 371 789 384 785 393 785 c 0
 403 785 409 791 409 806 c 1
 434 806 l 1
 434 772 420 757 394 757 c 0xef
 377 757 362 761 335 770 c 0
 311 778 298 782 289 782 c 0
 279 782 273 776 273 761 c 1
 249 761 l 1
 249 795 263 810 289 810 c 0xdf
585 0 m 1xe9
 526 0 l 1
 133 654 l 1
 135 564 135 458 135 368 c 2
 135 0 l 1
 97 0 l 1
 97 690 l 1
 155 690 l 1
 549 36 l 1
 547 126 547 233 547 323 c 2
 547 690 l 1
 584 690 l 1
 585 0 l 1xe9
EndSplineSet
Position2: "'cpsp' Capital Spacing in Latin lookup 0 subtable" dx=5 dy=0 dh=10 dv=0
EndChar

StartChar: Ograve
Encoding: 210 210 67
Width: 719
GlyphClass: 2
Flags: MW
HStem: -14 33<290 441.5 290 462.5> 671 33<290 441.5> 736 94<287 353 287 381>
VStem: 50 42<241.5 449> 639 42<241.5 449>
LayerCount: 2
Fore
SplineSet
353 736 m 1
 287 830 l 1
 328 830 l 1
 381 736 l 1
 353 736 l 1
366 704 m 0
 559 704 681 553 681 345 c 0
 681 138 559 -14 366 -14 c 0
 172 -14 50 138 50 345 c 0
 50 553 172 704 366 704 c 0
366 19 m 0
 517 19 639 138 639 345 c 0
 639 553 517 671 366 671 c 0
 214 671 92 553 92 345 c 0
 92 138 214 19 366 19 c 0
EndSplineSet
Position2: "'cpsp' Capital Spacing in Latin lookup 0 subtable" dx=5 dy=0 dh=10 dv=0
EndChar

StartChar: Ocircumflex
Encoding: 212 212 65
Width: 719
GlyphClass: 2
Flags: MW
HStem: -14 33<290 441.5 290 462.5> 671 33<290 441.5> 810 20<366 366>
VStem: 50 42<241.5 449> 639 42<241.5 449>
LayerCount: 2
Fore
SplineSet
319 736 m 1
 285 736 l 1
 351 830 l 1
 383 830 l 1
 448 736 l 1
 413 736 l 1
 366 810 l 1
 319 736 l 1
366 704 m 0
 559 704 681 553 681 345 c 0
 681 138 559 -14 366 -14 c 0
 172 -14 50 138 50 345 c 0
 50 553 172 704 366 704 c 0
366 19 m 0
 517 19 639 138 639 345 c 0
 639 553 517 671 366 671 c 0
 214 671 92 553 92 345 c 0
 92 138 214 19 366 19 c 0
EndSplineSet
Position2: "'cpsp' Capital Spacing in Latin lookup 0 subtable" dx=5 dy=0 dh=10 dv=0
EndChar

StartChar: Otilde
Encoding: 213 213 71
Width: 719
GlyphClass: 2
Flags: MW
HStem: -14 33<290 441.5 290 462.5> 671 33<290 441.5> 757 28<413.5 423 413.5 432> 782 28<309 318.5>
VStem: 50 42<241.5 449> 274 24<761 768.5 761 778> 434 25<798.5 806> 639 42<241.5 449>
LayerCount: 2
Fore
SplineSet
314 782 m 0xdf
 304 782 298 776 298 761 c 1
 274 761 l 1
 274 795 288 810 314 810 c 0xdf
 330 810 345 806 372 797 c 0
 396 789 409 785 418 785 c 0
 428 785 434 791 434 806 c 1
 459 806 l 1
 459 772 445 757 419 757 c 0xef
 402 757 387 761 360 770 c 0
 336 778 323 782 314 782 c 0xdf
366 704 m 0
 559 704 681 553 681 345 c 0
 681 138 559 -14 366 -14 c 0
 172 -14 50 138 50 345 c 0
 50 553 172 704 366 704 c 0
366 19 m 0
 517 19 639 138 639 345 c 0
 639 553 517 671 366 671 c 0
 214 671 92 553 92 345 c 0
 92 138 214 19 366 19 c 0
EndSplineSet
Position2: "'cpsp' Capital Spacing in Latin lookup 0 subtable" dx=5 dy=0 dh=10 dv=0
EndChar

StartChar: Odieresis
Encoding: 214 214 66
Width: 719
GlyphClass: 2
Flags: MW
HStem: -14 33<290 441.5 290 462.5> 671 33<290 441.5> 757 53<315 329.5 402.5 417>
VStem: 50 42<241.5 449> 296 53<776 790.5> 383 53<776 790.5> 639 42<241.5 449>
LayerCount: 2
Fore
SplineSet
322 757 m 0
 308 757 296 769 296 783 c 0
 296 798 308 810 322 810 c 0
 337 810 349 798 349 783 c 0
 349 769 337 757 322 757 c 0
410 757 m 0
 395 757 383 769 383 783 c 0
 383 798 395 810 410 810 c 0
 424 810 436 798 436 783 c 0
 436 769 424 757 410 757 c 0
366 704 m 0
 559 704 681 553 681 345 c 0
 681 138 559 -14 366 -14 c 0
 172 -14 50 138 50 345 c 0
 50 553 172 704 366 704 c 0
366 19 m 0
 517 19 639 138 639 345 c 0
 639 553 517 671 366 671 c 0
 214 671 92 553 92 345 c 0
 92 138 214 19 366 19 c 0
EndSplineSet
Position2: "'cpsp' Capital Spacing in Latin lookup 0 subtable" dx=5 dy=0 dh=10 dv=0
EndChar

StartChar: multiply
Encoding: 215 215 300
Width: 543
Flags: MW
HStem: 144 339<124 124 124 419>
VStem: 102 339<166 166 166 461>
LayerCount: 2
Fore
SplineSet
294 314 m 1
 441 166 l 1
 419 144 l 1
 272 292 l 1
 124 144 l 1
 102 166 l 1
 250 314 l 1
 102 461 l 1
 124 483 l 1
 272 336 l 1
 419 483 l 1
 441 461 l 1
 294 314 l 1
EndSplineSet
EndChar

StartChar: Oslash
Encoding: 216 216 70
Width: 721
GlyphClass: 2
Flags: MW
HStem: -14 33<325.5 442.5 325.5 463.5> 671 33<291 408>
VStem: 51 42<304.5 449 304.5 449> 640 42<241.5 386>
LayerCount: 2
Fore
SplineSet
687 644 m 1
 618 575 l 1
 659 514 682 435 682 345 c 0
 682 138 560 -14 367 -14 c 0
 269 -14 189 25 134 91 c 1
 68 25 l 1
 46 46 l 1
 115 115 l 1
 74 176 51 256 51 345 c 0
 51 553 173 704 367 704 c 0
 465 704 545 665 599 599 c 1
 666 666 l 1
 687 644 l 1
93 345 m 0
 93 264 112 196 144 144 c 1
 572 572 l 1
 522 636 449 671 367 671 c 0
 215 671 93 553 93 345 c 0
640 345 m 0
 640 427 621 494 589 546 c 1
 161 118 l 1
 211 54 284 19 367 19 c 0
 518 19 640 138 640 345 c 0
EndSplineSet
Position2: "'cpsp' Capital Spacing in Latin lookup 0 subtable" dx=5 dy=0 dh=10 dv=0
EndChar

StartChar: Uacute
Encoding: 218 218 91
Width: 621
GlyphClass: 2
Flags: MW
HStem: -14 33<260 384.5 260 395> 670 20G<91 129 129 129 516 554 554 554> 736 94<305 399 305 399>
VStem: 91 38<239 690> 516 38<238 239 239 690>
LayerCount: 2
Fore
SplineSet
333 736 m 1
 305 736 l 1
 358 830 l 1
 399 830 l 1
 333 736 l 1
554 690 m 1
 554 239 l 2
 554 222 553 201 551 173 c 0
 543 65 468 -14 322 -14 c 0
 177 -14 102 65 94 173 c 0
 92 201 91 222 91 239 c 2
 91 690 l 1
 129 690 l 1
 129 238 l 2
 129 215 130 196 132 176 c 0
 140 89 198 19 322 19 c 0
 447 19 505 89 513 176 c 0
 515 196 516 215 516 238 c 2
 516 690 l 1
 554 690 l 1
EndSplineSet
Position2: "'cpsp' Capital Spacing in Latin lookup 0 subtable" dx=5 dy=0 dh=10 dv=0
EndChar

StartChar: Udieresis
Encoding: 220 220 93
Width: 621
GlyphClass: 2
Flags: MW
HStem: -14 33<260 384.5 260 395> 670 20G<91 129 129 129 516 554 554 554> 757 53<271 285.5 358.5 373>
VStem: 91 38<239 690> 252 53<776 790.5> 339 53<776 790.5> 516 38<238 239 239 690>
LayerCount: 2
Fore
SplineSet
278 810 m 0
 293 810 305 798 305 783 c 0
 305 769 293 757 278 757 c 0
 264 757 252 769 252 783 c 0
 252 798 264 810 278 810 c 0
366 810 m 0
 380 810 392 798 392 783 c 0
 392 769 380 757 366 757 c 0
 351 757 339 769 339 783 c 0
 339 798 351 810 366 810 c 0
554 690 m 1
 554 239 l 2
 554 222 553 201 551 173 c 0
 543 65 468 -14 322 -14 c 0
 177 -14 102 65 94 173 c 0
 92 201 91 222 91 239 c 2
 91 690 l 1
 129 690 l 1
 129 238 l 2
 129 215 130 196 132 176 c 0
 140 89 198 19 322 19 c 0
 447 19 505 89 513 176 c 0
 515 196 516 215 516 238 c 2
 516 690 l 1
 554 690 l 1
EndSplineSet
Position2: "'cpsp' Capital Spacing in Latin lookup 0 subtable" dx=5 dy=0 dh=10 dv=0
EndChar

StartChar: Thorn
Encoding: 222 222 74
Width: 638
GlyphClass: 2
Flags: MW
HStem: 0 21G<97 135 97 97> 210 34<135 267 135 267> 546 34<135 267 135 267> 546 144<97 267 97 135>
VStem: 97 38<0 210 0 244 244 546 580 690> 491 41<350.5 445>
LayerCount: 2
Fore
SplineSet
363 575 m 0xec
 458 563 532 511 532 399 c 0
 532 285 458 227 363 215 c 0
 332 211 302 210 267 210 c 2
 135 210 l 1
 135 0 l 1
 97 0 l 1
 97 690 l 1
 135 690 l 1xdc
 135 580 l 1
 267 580 l 2
 302 580 332 579 363 575 c 0xec
357 249 m 0
 432 259 491 302 491 399 c 0
 491 491 432 531 357 541 c 0
 328 545 301 546 267 546 c 2
 135 546 l 1
 135 244 l 1
 267 244 l 2
 301 244 328 245 357 249 c 0
EndSplineSet
Position2: "'cpsp' Capital Spacing in Latin lookup 0 subtable" dx=5 dy=0 dh=10 dv=0
EndChar

StartChar: germandbls
Encoding: 223 223 199
Width: 552
GlyphClass: 2
Flags: MW
HStem: -4 32<313 371 313 383.5> 0 21G<72 110 72 72> 721 33<234.5 323>
VStem: 72 38<0 488 488 491 0 498> 311 42<376 413.5 376 419.5> 429 42<572.5 629> 466 42<100.5 154.5>
LayerCount: 2
Fore
SplineSet
283 754 m 0xbc
 388 754 471 692 471 587 c 0xbc
 471 552 463 521 439 484 c 1
 383 457 353 433 353 394 c 0
 353 358 367 333 413 293 c 0
 477 238 508 193 508 135 c 0
 508 47 438 -4 329 -4 c 0
 296 -4 263 -2 224 6 c 1
 224 41 l 1
 265 31 298 28 328 28 c 0
 414 28 466 67 466 134 c 0xba
 466 175 450 207 386 266 c 0
 326 320 311 347 311 394 c 0
 311 445 344 475 408 508 c 1
 423 532 429 559 429 586 c 0
 429 672 366 721 280 721 c 0
 189 721 120 661 112 550 c 0
 111 536 110 517 110 491 c 2
 110 0 l 1
 72 0 l 1x7c
 72 488 l 2
 72 508 73 534 74 552 c 0
 81 683 170 754 283 754 c 0xbc
EndSplineSet
EndChar

StartChar: agrave
Encoding: 224 224 120
Width: 503
GlyphClass: 2
Flags: MW
HStem: -14 32<174 242> 0 21G<401 401 401 440> 275 32<359 393> 509 32<219.5 297.5> 580 110<162 235 162 263> 670 20G<162 203 203 203>
VStem: 44 42<96.5 188.5 96.5 191> 393 38<207 275 275 275 307 331 331 333>
LayerCount: 2
Fore
SplineSet
235 580 m 1x7b
 162 690 l 1
 203 690 l 1
 263 580 l 1
 235 580 l 1x7b
401 0 m 1
 394 115 l 1
 369 62 l 1
 333 11 275 -14 209 -14 c 0xb7
 110 -14 44 35 44 130 c 0
 44 252 184 307 359 307 c 2
 393 307 l 1
 393 331 l 2
 393 355 393 376 391 398 c 0
 385 469 339 509 256 509 c 0
 183 509 115 470 104 378 c 1
 65 378 l 1
 72 472 149 541 256 541 c 0
 365 541 421 490 429 402 c 0
 431 376 431 359 431 333 c 2
 431 161 l 2
 431 106 434 67 440 0 c 1
 401 0 l 1
218 18 m 0
 323 18 393 105 393 207 c 2
 393 275 l 1
 241 285 86 245 86 132 c 0
 86 61 130 18 218 18 c 0
EndSplineSet
EndChar

StartChar: adieresis
Encoding: 228 228 119
Width: 503
GlyphClass: 2
Flags: MW
HStem: -14 32<174 242> 0 21G<401 401 401 440> 275 32<359 393> 509 32<219.5 297.5> 606 53<201.5 216 298 312.5>
VStem: 44 42<96.5 188.5 96.5 191> 182 53<625 639.5> 279 53<625 639.5> 393 38<207 275 275 275 307 331 331 333>
LayerCount: 2
Fore
SplineSet
209 606 m 0xbf80
 194 606 182 618 182 632 c 0
 182 647 194 659 209 659 c 0
 223 659 235 647 235 632 c 0
 235 618 223 606 209 606 c 0xbf80
305 606 m 0
 291 606 279 618 279 632 c 0
 279 647 291 659 305 659 c 0
 320 659 332 647 332 632 c 0
 332 618 320 606 305 606 c 0
401 0 m 1x7f80
 394 115 l 1
 369 62 l 1
 333 11 275 -14 209 -14 c 0xbf80
 110 -14 44 35 44 130 c 0
 44 252 184 307 359 307 c 2
 393 307 l 1
 393 331 l 2
 393 355 393 376 391 398 c 0
 385 469 339 509 256 509 c 0
 183 509 115 470 104 378 c 1
 65 378 l 1
 72 472 149 541 256 541 c 0
 365 541 421 490 429 402 c 0
 431 376 431 359 431 333 c 2
 431 161 l 2
 431 106 434 67 440 0 c 1
 401 0 l 1x7f80
218 18 m 0
 323 18 393 105 393 207 c 2
 393 275 l 1
 241 285 86 245 86 132 c 0
 86 61 130 18 218 18 c 0
EndSplineSet
EndChar

StartChar: aring
Encoding: 229 229 123
Width: 503
GlyphClass: 2
Flags: MW
HStem: -14 32<174 242> 0 21G<401 401 401 440> 275 32<359 393> 509 32<219.5 297.5> 570 25<244.5 269.5 244.5 276.5> 681 24<244.5 269.5>
VStem: 44 42<96.5 188.5 96.5 191> 188 30<626 650 626 658.5> 297 29<626 650> 393 38<207 275 275 275 307 331 331 333>
LayerCount: 2
Fore
SplineSet
257 570 m 0x7fc0
 218 570 188 597 188 638 c 0
 188 679 218 705 257 705 c 0
 296 705 326 679 326 638 c 0
 326 597 296 570 257 570 c 0x7fc0
257 681 m 0
 232 681 218 662 218 638 c 0
 218 614 232 595 257 595 c 0
 282 595 297 614 297 638 c 0
 297 662 282 681 257 681 c 0
401 0 m 1
 394 115 l 1
 369 62 l 1
 333 11 275 -14 209 -14 c 0
 110 -14 44 35 44 130 c 0
 44 252 184 307 359 307 c 2
 393 307 l 1
 393 331 l 2
 393 355 393 376 391 398 c 0
 385 469 339 509 256 509 c 0
 183 509 115 470 104 378 c 1
 65 378 l 1
 72 472 149 541 256 541 c 0xb7c0
 365 541 421 490 429 402 c 0
 431 376 431 359 431 333 c 2
 431 161 l 2
 431 106 434 67 440 0 c 1
 401 0 l 1
218 18 m 0
 323 18 393 105 393 207 c 2
 393 275 l 1
 241 285 86 245 86 132 c 0
 86 61 130 18 218 18 c 0
EndSplineSet
EndChar

StartChar: ae
Encoding: 230 230 125
Width: 914
GlyphClass: 2
Flags: MW
HStem: -14 32<183 257.5 601.5 687.5> 253 33<384 418 457 837> 509 32<223 312.5 205 316 609.5 700>
VStem: 44 42<96.5 185 96.5 191> 63 39<378 378> 418 39<224 253 253 253 253 311> 837 40<286 286>
LayerCount: 2
Fore
SplineSet
877 278 m 0xf6
 877 273 877 266 875 253 c 1
 457 253 l 1
 462 84 548 18 648 18 c 0
 727 18 804 64 830 164 c 1
 869 164 l 1
 840 45 748 -14 645 -14 c 0
 558 -14 467 31 436 142 c 1
 413 84 l 1
 362 15 297 -14 218 -14 c 0
 126 -14 44 30 44 130 c 0xf6
 44 252 201 286 384 286 c 2
 418 286 l 1
 418 311 l 2
 418 438 372 509 260 509 c 0
 186 509 112 470 102 378 c 1
 63 378 l 1xee
 68 472 150 541 260 541 c 0
 365 541 426 495 446 405 c 1
 482 494 564 541 655 541 c 0
 809 541 877 415 877 278 c 0xf6
457 286 m 1
 837 286 l 1
 832 450 747 509 653 509 c 0
 551 509 462 438 457 286 c 1
418 224 m 2
 418 253 l 1
 256 260 86 238 86 132 c 0
 86 61 140 18 226 18 c 0
 336 18 418 101 418 224 c 2
EndSplineSet
EndChar

StartChar: ccedilla
Encoding: 231 231 130
Width: 520
GlyphClass: 2
Flags: MW
HStem: -210 26<216 249 216 253.5> -71 23 -14 32<264 309.5 217 319> -12 30<234 234> 510 31<223.5 320>
VStem: 30 42<183 349.5> 301 31<-146 -108>
AnchorPoint: "Anchor-0" 256 0 basechar 0
LayerCount: 2
Fore
SplineSet
267 18 m 0xae
 352 18 424 68 443 160 c 1
 482 160 l 1
 460 50 374 -14 264 -14 c 1xae
 246 -48 l 1
 300 -54 332 -78 332 -127 c 0
 332 -184 281 -210 226 -210 c 0
 205 -210 188 -207 174 -200 c 1
 174 -173 l 1
 189 -181 205 -184 227 -184 c 0
 271 -184 301 -165 301 -127 c 0
 301 -89 271 -68 203 -71 c 1
 234 -12 l 1xde
 118 2 30 98 30 263 c 0
 30 436 141 541 273 541 c 0
 390 541 471 468 487 360 c 1
 448 360 l 1
 430 453 369 510 271 510 c 0
 176 510 72 432 72 269 c 0
 72 97 167 18 267 18 c 0xae
EndSplineSet
EndChar

StartChar: ecircumflex
Encoding: 234 234 139
Width: 528
GlyphClass: 2
Flags: MW
HStem: -14 32<216 302 216 311> 253 33<70 452 70 490 70 452> 509 32<221 311.5> 580 110<180 278 180 278 246 309 246 343> 666 24<261 261>
VStem: 30 40<253 253 253 286 253 348.5> 452 39<286 286>
AnchorPoint: "Anchor-0" 259 0 basechar 0
LayerCount: 2
Fore
SplineSet
213 580 m 1xf6
 180 580 l 1xf6
 246 690 l 1
 278 690 l 1xee
 343 580 l 1
 309 580 l 1xf6
 261 666 l 1xee
 213 580 l 1xf6
491 278 m 0
 491 273 491 266 490 253 c 1
 70 253 l 1
 76 82 170 18 262 18 c 0
 342 18 418 64 444 164 c 1
 483 164 l 1
 454 45 362 -14 260 -14 c 0
 134 -14 30 80 30 265 c 0
 30 432 135 541 269 541 c 0
 418 541 491 415 491 278 c 0
267 509 m 0
 175 509 76 437 70 286 c 1
 452 286 l 1
 446 449 356 509 267 509 c 0
EndSplineSet
EndChar

StartChar: edieresis
Encoding: 235 235 140
Width: 528
GlyphClass: 2
Flags: MW
HStem: -14 32<216 302 216 311> 253 33<70 452 70 490 70 452> 509 32<221 311.5> 606 53<205.5 220 302 316.5>
VStem: 30 40<253 253 253 286 253 348.5> 186 53<625 639.5> 283 53<625 639.5> 452 39<286 286>
AnchorPoint: "Anchor-0" 259 0 basechar 0
LayerCount: 2
Fore
SplineSet
213 606 m 0
 198 606 186 618 186 632 c 0
 186 647 198 659 213 659 c 0
 227 659 239 647 239 632 c 0
 239 618 227 606 213 606 c 0
309 606 m 0
 295 606 283 618 283 632 c 0
 283 647 295 659 309 659 c 0
 324 659 336 647 336 632 c 0
 336 618 324 606 309 606 c 0
491 278 m 0
 491 273 491 266 490 253 c 1
 70 253 l 1
 76 82 170 18 262 18 c 0
 342 18 418 64 444 164 c 1
 483 164 l 1
 454 45 362 -14 260 -14 c 0
 134 -14 30 80 30 265 c 0
 30 432 135 541 269 541 c 0
 418 541 491 415 491 278 c 0
267 509 m 0
 175 509 76 437 70 286 c 1
 452 286 l 1
 446 449 356 509 267 509 c 0
EndSplineSet
EndChar

StartChar: igrave
Encoding: 236 236 157
Width: 183
GlyphClass: 2
Flags: MW
HStem: 0 21G<72 110 72 72> 507 20G<72 110 110 110> 580 110<-5 96 -5 68>
VStem: 72 38<0 527>
LayerCount: 2
Fore
SplineSet
96 580 m 1
 68 580 l 1
 -5 690 l 1
 36 690 l 1
 96 580 l 1
110 0 m 1
 72 0 l 1
 72 527 l 1
 110 527 l 1
 110 0 l 1
EndSplineSet
EndChar

StartChar: iacute
Encoding: 237 237 154
Width: 183
GlyphClass: 2
Flags: MW
HStem: 0 21G<72 110 72 72> 507 20G<72 110 110 110> 580 110<74 175 74 175>
VStem: 72 38<0 527>
LayerCount: 2
Fore
SplineSet
102 580 m 1
 74 580 l 1
 134 690 l 1
 175 690 l 1
 102 580 l 1
110 0 m 1
 72 0 l 1
 72 527 l 1
 110 527 l 1
 110 0 l 1
EndSplineSet
EndChar

StartChar: icircumflex
Encoding: 238 238 155
Width: 183
GlyphClass: 2
Flags: MW
HStem: 0 21G<72 110 72 72> 507 20G<72 110 110 110> 580 110<10 108 10 108 76 173 76 139> 666 24<91 91>
VStem: 72 38<0 527 0 527>
LayerCount: 2
Fore
SplineSet
173 580 m 1xe8
 139 580 l 1xe8
 91 666 l 1xd8
 43 580 l 1
 10 580 l 1xe8
 76 690 l 1
 108 690 l 1xd8
 173 580 l 1xe8
72 527 m 1
 110 527 l 1
 110 0 l 1
 72 0 l 1
 72 527 l 1
EndSplineSet
EndChar

StartChar: idieresis
Encoding: 239 239 156
Width: 183
GlyphClass: 2
Flags: MW
HStem: 0 21G<72 110 72 72> 507 20G<72 110 110 110> 606 53<35.5 50 132 146.5>
VStem: 16 53<625 639.5> 72 38<0 527> 113 53<625 639.5>
LayerCount: 2
Fore
SplineSet
43 659 m 0
 57 659 69 647 69 632 c 0
 69 618 57 606 43 606 c 0
 28 606 16 618 16 632 c 0
 16 647 28 659 43 659 c 0
139 659 m 0
 154 659 166 647 166 632 c 0
 166 618 154 606 139 606 c 0
 125 606 113 618 113 632 c 0
 113 647 125 659 139 659 c 0
110 0 m 1xe8
 72 0 l 1
 72 527 l 1
 110 527 l 1
 110 0 l 1xe8
EndSplineSet
EndChar

StartChar: eth
Encoding: 240 240 133
Width: 538
GlyphClass: 2
Flags: MW
HStem: -14 32 512 32<214 289.5 194 319.5> 725 20G<260 260>
VStem: 30 42<182 340.5> 449 42<283 304 304 369>
LayerCount: 2
Fore
SplineSet
457 686 m 1
 397 661 l 1
 459 592 491 482 491 307 c 0
 491 81 392 -13 255 -14 c 0
 111 -15 30 102 30 257 c 0
 30 424 123 544 265 544 c 0
 314 544 356 532 394 503 c 1
 443 439 l 1
 434 532 406 600 362 647 c 1
 202 581 l 1
 191 609 l 1
 337 669 l 1
 308 691 275 707 236 716 c 1
 260 745 l 1
 304 731 342 712 373 684 c 1
 446 714 l 1
 457 686 l 1
449 283 m 2
 449 304 l 2
 449 434 371 512 268 512 c 0
 160 512 72 422 72 260 c 0
 72 104 153 18 259 18 c 0
 377 18 449 116 449 283 c 2
EndSplineSet
EndChar

StartChar: ntilde
Encoding: 241 241 176
Width: 546
GlyphClass: 2
Flags: MW
HStem: 0 21G<72 110 72 72 441 479 441 441> 507 20G<72 110 110 110> 508 33<261 335.5> 619 27<320.5 330 320.5 339> 643 28<216 225.5>
VStem: 72 38<0 292 414 527> 181 24<623 630.5 623 639.5> 341 25<659.5 667> 441 38<0 285 285 294 0 302.5>
AnchorPoint: "Anchor-0" 271 0 basechar 0
LayerCount: 2
Fore
SplineSet
221 643 m 0xaf80
 211 643 205 638 205 623 c 1
 181 623 l 1
 181 656 195 671 221 671 c 0xaf80
 237 671 252 667 279 658 c 0
 303 650 316 646 325 646 c 0
 335 646 341 652 341 667 c 1
 366 667 l 1
 366 634 352 619 326 619 c 0xb780
 309 619 294 623 267 632 c 0
 243 640 230 643 221 643 c 0xaf80
475 381 m 0
 478 354 479 337 479 294 c 2
 479 0 l 1
 441 0 l 1
 441 285 l 2
 441 320 440 343 437 370 c 0
 428 452 383 508 288 508 c 0xaf80
 195 508 110 443 110 292 c 2
 110 0 l 1
 72 0 l 1
 72 527 l 1
 110 527 l 1xcf80
 110 414 l 1
 134 469 l 1
 174 519 230 541 292 541 c 0
 401 541 465 481 475 381 c 0
EndSplineSet
EndChar

StartChar: ograve
Encoding: 242 242 181
Width: 562
GlyphClass: 2
Flags: MW
HStem: -14 32<225 337 225 359> 509 32<225 337> 580 110<200 273 200 301>
VStem: 30 42<182 344.5> 491 41<182 344.5 182 345>
LayerCount: 2
Fore
SplineSet
273 580 m 1
 200 690 l 1
 241 690 l 1
 301 580 l 1
 273 580 l 1
281 541 m 0
 437 541 532 426 532 263 c 0
 532 101 437 -14 281 -14 c 0
 125 -14 30 101 30 263 c 0
 30 426 125 541 281 541 c 0
281 18 m 0
 393 18 491 100 491 263 c 0
 491 427 393 509 281 509 c 0
 169 509 72 427 72 263 c 0
 72 100 169 18 281 18 c 0
EndSplineSet
EndChar

StartChar: oacute
Encoding: 243 243 178
Width: 562
GlyphClass: 2
Flags: MW
HStem: -14 32<225 337 225 359> 509 32<225 337> 580 110<264 365 264 365>
VStem: 30 42<182 344.5> 491 41<182 344.5 182 345>
LayerCount: 2
Fore
SplineSet
292 580 m 1
 264 580 l 1
 324 690 l 1
 365 690 l 1
 292 580 l 1
281 541 m 0
 437 541 532 426 532 263 c 0
 532 101 437 -14 281 -14 c 0
 125 -14 30 101 30 263 c 0
 30 426 125 541 281 541 c 0
281 18 m 0
 393 18 491 100 491 263 c 0
 491 427 393 509 281 509 c 0
 169 509 72 427 72 263 c 0
 72 100 169 18 281 18 c 0
EndSplineSet
EndChar

StartChar: ocircumflex
Encoding: 244 244 179
Width: 562
GlyphClass: 2
Flags: MW
HStem: -14 32<225 337 225 359> 509 32<225 337> 580 110<200 298 200 298 266 329 266 363> 666 24<281 281>
VStem: 30 42<182 344.5> 491 41<182 344.5 182 345>
LayerCount: 2
Fore
SplineSet
233 580 m 1xec
 200 580 l 1xec
 266 690 l 1
 298 690 l 1xdc
 363 580 l 1
 329 580 l 1xec
 281 666 l 1xdc
 233 580 l 1xec
281 541 m 0
 437 541 532 426 532 263 c 0
 532 101 437 -14 281 -14 c 0
 125 -14 30 101 30 263 c 0
 30 426 125 541 281 541 c 0
281 18 m 0
 393 18 491 100 491 263 c 0
 491 427 393 509 281 509 c 0
 169 509 72 427 72 263 c 0
 72 100 169 18 281 18 c 0
EndSplineSet
EndChar

StartChar: otilde
Encoding: 245 245 185
Width: 562
GlyphClass: 2
Flags: MW
HStem: -14 32<225 337 225 359> 509 32<225 337> 619 27<328.5 338 328.5 347> 643 28<224 233.5>
VStem: 30 42<182 344.5> 189 24<623 630.5 623 639.5> 349 25<659.5 667> 491 41<182 344.5 182 345>
LayerCount: 2
Fore
SplineSet
229 643 m 0xdf
 219 643 213 638 213 623 c 1
 189 623 l 1
 189 656 203 671 229 671 c 0xdf
 245 671 260 667 287 658 c 0
 311 650 324 646 333 646 c 0
 343 646 349 652 349 667 c 1
 374 667 l 1
 374 634 360 619 334 619 c 0xef
 317 619 302 623 275 632 c 0
 251 640 238 643 229 643 c 0xdf
281 541 m 0
 437 541 532 426 532 263 c 0
 532 101 437 -14 281 -14 c 0
 125 -14 30 101 30 263 c 0
 30 426 125 541 281 541 c 0
281 18 m 0
 393 18 491 100 491 263 c 0
 491 427 393 509 281 509 c 0
 169 509 72 427 72 263 c 0
 72 100 169 18 281 18 c 0
EndSplineSet
EndChar

StartChar: odieresis
Encoding: 246 246 180
Width: 562
GlyphClass: 2
Flags: MW
HStem: -14 32<225 337 225 359> 509 32<225 337> 606 53<225.5 240 322 336.5>
VStem: 30 42<182 344.5> 206 53<625 639.5> 303 53<625 639.5> 491 41<182 344.5 182 345>
LayerCount: 2
Fore
SplineSet
233 606 m 0
 218 606 206 618 206 632 c 0
 206 647 218 659 233 659 c 0
 247 659 259 647 259 632 c 0
 259 618 247 606 233 606 c 0
329 606 m 0
 315 606 303 618 303 632 c 0
 303 647 315 659 329 659 c 0
 344 659 356 647 356 632 c 0
 356 618 344 606 329 606 c 0
281 541 m 0
 437 541 532 426 532 263 c 0
 532 101 437 -14 281 -14 c 0
 125 -14 30 101 30 263 c 0
 30 426 125 541 281 541 c 0
281 18 m 0
 393 18 491 100 491 263 c 0
 491 427 393 509 281 509 c 0
 169 509 72 427 72 263 c 0
 72 100 169 18 281 18 c 0
EndSplineSet
EndChar

StartChar: divide
Encoding: 247 247 289
Width: 543
Flags: MW
HStem: 127 67<262.5 281.5> 303 30<69 474 69 474> 440 67<262.5 281.5>
VStem: 238 67<151.5 170.5 463.5 483>
LayerCount: 2
Fore
SplineSet
272 507 m 0
 291 507 305 493 305 473 c 0
 305 454 291 440 272 440 c 0
 253 440 238 454 238 473 c 0
 238 493 253 507 272 507 c 0
474 303 m 1
 69 303 l 1
 69 333 l 1
 474 333 l 1
 474 303 l 1
272 194 m 0
 291 194 305 180 305 161 c 0
 305 142 291 127 272 127 c 0
 253 127 238 142 238 161 c 0
 238 180 253 194 272 194 c 0
EndSplineSet
EndChar

StartChar: oslash
Encoding: 248 248 184
Width: 601
GlyphClass: 2
Flags: MW
HStem: -14 32<266 351.5 266 373> -11 21G<48 48> 509 32<239 325.5> 518 20G<553 553>
VStem: 44 42<231.5 344.5> 505 41<182 293>
LayerCount: 2
Fore
SplineSet
575 516 m 1x9c
 498 439 l 1
 529 392 546 332 546 263 c 0
 546 101 451 -14 295 -14 c 0
 220 -14 160 12 117 58 c 1x9c
 48 -11 l 1
 26 11 l 1
 97 82 l 1
 63 129 44 191 44 263 c 0
 44 426 139 541 295 541 c 0
 373 541 435 512 479 464 c 1x6c
 553 538 l 1
 575 516 l 1x9c
86 263 m 0
 86 200 101 149 125 110 c 1
 452 437 l 1
 413 485 356 509 295 509 c 0xac
 183 509 86 427 86 263 c 0
505 263 m 0
 505 323 492 373 470 411 c 1
 144 85 l 1
 183 40 237 18 295 18 c 0
 408 18 505 100 505 263 c 0
EndSplineSet
EndChar

StartChar: ugrave
Encoding: 249 249 209
Width: 543
GlyphClass: 2
Flags: MW
HStem: -14 33<208.5 281> 0 21G<432 470 432 432> 507 20G<63 101 101 101 432 470 470 470> 580 110<174 247 174 275> 670 20G<174 215 215 215>
VStem: 63 38<229 239 239 527> 432 38<0 113 113 113 235 527 0 527>
LayerCount: 2
Fore
SplineSet
247 580 m 1xb6
 174 690 l 1
 215 690 l 1
 275 580 l 1
 247 580 l 1xb6
470 527 m 1
 470 0 l 1
 432 0 l 1x6e
 432 113 l 1
 408 58 l 1
 367 9 312 -14 250 -14 c 0
 143 -14 79 46 67 141 c 0
 64 168 63 186 63 229 c 2
 63 527 l 1
 101 527 l 1
 101 239 l 2
 101 207 102 183 105 156 c 0
 115 74 162 19 255 19 c 0
 348 19 432 85 432 235 c 2
 432 527 l 1
 470 527 l 1
EndSplineSet
EndChar

StartChar: uacute
Encoding: 250 250 206
Width: 543
GlyphClass: 2
Flags: MW
HStem: -14 33<208.5 281> 0 21G<432 470 432 432> 507 20G<63 101 101 101 432 470 470 470> 580 110<249 350 249 350> 670 20G<309 350 350 350>
VStem: 63 38<229 239 239 527> 432 38<0 113 113 113 235 527 0 527>
LayerCount: 2
Fore
SplineSet
277 580 m 1xb6
 249 580 l 1
 309 690 l 1
 350 690 l 1
 277 580 l 1xb6
470 527 m 1
 470 0 l 1
 432 0 l 1x6e
 432 113 l 1
 408 58 l 1
 367 9 312 -14 250 -14 c 0
 143 -14 79 46 67 141 c 0
 64 168 63 186 63 229 c 2
 63 527 l 1
 101 527 l 1
 101 239 l 2
 101 207 102 183 105 156 c 0
 115 74 162 19 255 19 c 0
 348 19 432 85 432 235 c 2
 432 527 l 1
 470 527 l 1
EndSplineSet
EndChar

StartChar: ucircumflex
Encoding: 251 251 207
Width: 543
GlyphClass: 2
Flags: MW
HStem: -14 33<208.5 281> 0 21G<432 470 432 432> 507 20G<63 101 101 101 432 470 470 470> 580 110<185 283 185 283 251 314 251 348> 666 24<266 266>
VStem: 63 38<229 239 239 527> 432 38<0 113 113 113 235 527 0 527>
LayerCount: 2
Fore
SplineSet
218 580 m 1xb6
 185 580 l 1xb6
 251 690 l 1
 283 690 l 1xae
 348 580 l 1
 314 580 l 1xb6
 266 666 l 1xae
 218 580 l 1xb6
470 527 m 1
 470 0 l 1
 432 0 l 1x6e
 432 113 l 1
 408 58 l 1
 367 9 312 -14 250 -14 c 0
 143 -14 79 46 67 141 c 0
 64 168 63 186 63 229 c 2
 63 527 l 1
 101 527 l 1
 101 239 l 2
 101 207 102 183 105 156 c 0
 115 74 162 19 255 19 c 0
 348 19 432 85 432 235 c 2
 432 527 l 1
 470 527 l 1
EndSplineSet
EndChar

StartChar: udieresis
Encoding: 252 252 208
Width: 543
GlyphClass: 2
Flags: MW
HStem: -14 33<208.5 281> 0 21G<432 470 432 432> 507 20G<63 101 101 101 432 470 470 470> 606 53<210.5 225 307 321.5>
VStem: 63 38<229 239 239 527> 191 53<625 639.5> 288 53<625 639.5> 432 38<0 113 113 113 235 527 0 527>
LayerCount: 2
Fore
SplineSet
218 606 m 0xbf
 203 606 191 618 191 632 c 0
 191 647 203 659 218 659 c 0
 232 659 244 647 244 632 c 0
 244 618 232 606 218 606 c 0xbf
314 606 m 0
 300 606 288 618 288 632 c 0
 288 647 300 659 314 659 c 0
 329 659 341 647 341 632 c 0
 341 618 329 606 314 606 c 0
470 527 m 1
 470 0 l 1
 432 0 l 1x7f
 432 113 l 1
 408 58 l 1
 367 9 312 -14 250 -14 c 0
 143 -14 79 46 67 141 c 0
 64 168 63 186 63 229 c 2
 63 527 l 1
 101 527 l 1
 101 239 l 2
 101 207 102 183 105 156 c 0
 115 74 162 19 255 19 c 0
 348 19 432 85 432 235 c 2
 432 527 l 1
 470 527 l 1
EndSplineSet
EndChar

StartChar: ydieresis
Encoding: 255 255 224
Width: 471
GlyphClass: 2
Flags: MW
HStem: -210 33<76 103.5 76 114.5> 507 20G<10 53 53 53 421 464 464 464> 606 53<181.5 196 278 292.5>
VStem: 162 53<625 639.5> 259 53<625 639.5>
LayerCount: 2
Fore
SplineSet
189 606 m 0
 174 606 162 618 162 632 c 0
 162 647 174 659 189 659 c 0
 203 659 215 647 215 632 c 0
 215 618 203 606 189 606 c 0
285 606 m 0
 271 606 259 618 259 632 c 0
 259 647 271 659 285 659 c 0
 300 659 312 647 312 632 c 0
 312 618 300 606 285 606 c 0
464 527 m 1
 257 -11 l 2
 193 -178 147 -210 82 -210 c 0
 67 -210 56 -209 45 -207 c 1
 45 -174 l 1
 58 -177 70 -177 82 -177 c 0
 125 -177 162 -151 203 -51 c 1
 218 -13 l 1
 10 527 l 1
 53 527 l 1
 237 30 l 1
 421 527 l 1
 464 527 l 1
EndSplineSet
EndChar

StartChar: Abreve
Encoding: 258 258 3
Width: 622
GlyphClass: 2
Flags: MW
HStem: 0 21G<34 75 34 34 566 566 566 607> 263 33<185 455 185 467 172 455> 659 31<321 321> 722 30<301.5 342.5 301.5 352.5>
VStem: 224 27<796.5 830> 394 26<796.5 830>
LayerCount: 2
Fore
SplineSet
322 722 m 0
 261 722 224 763 224 830 c 1
 251 830 l 1
 252 779 281 752 322 752 c 0
 363 752 393 779 394 830 c 1
 420 830 l 1
 420 763 383 722 322 722 c 0
467 263 m 1
 172 263 l 1
 75 0 l 1
 34 0 l 1
 297 690 l 1
 347 690 l 1
 607 0 l 1
 566 0 l 1
 467 263 l 1
185 296 m 1
 455 296 l 1
 321 659 l 1
 185 296 l 1
EndSplineSet
Position2: "'cpsp' Capital Spacing in Latin lookup 0 subtable" dx=5 dy=0 dh=10 dv=0
EndChar

StartChar: abreve
Encoding: 259 259 117
Width: 503
GlyphClass: 2
Flags: MW
HStem: -14 32<174 242> 0 21G<401 401 401 440> 275 32<359 393> 509 32<219.5 297.5> 569 30<236 278 236 289> 670 20G<163 190 190 190 323 350 350 350>
VStem: 44 42<96.5 188.5 96.5 191> 163 27<652.5 690> 323 27<652.5 690> 393 38<207 275 275 275 307 331 331 333>
LayerCount: 2
Fore
SplineSet
257 569 m 0x7fc0
 193 569 163 615 163 690 c 1
 190 690 l 1
 191 631 215 599 257 599 c 0
 299 599 322 631 323 690 c 1
 350 690 l 1
 350 615 321 569 257 569 c 0x7fc0
401 0 m 1
 394 115 l 1
 369 62 l 1
 333 11 275 -14 209 -14 c 0
 110 -14 44 35 44 130 c 0
 44 252 184 307 359 307 c 2
 393 307 l 1
 393 331 l 2
 393 355 393 376 391 398 c 0
 385 469 339 509 256 509 c 0
 183 509 115 470 104 378 c 1
 65 378 l 1
 72 472 149 541 256 541 c 0xb7c0
 365 541 421 490 429 402 c 0
 431 376 431 359 431 333 c 2
 431 161 l 2
 431 106 434 67 440 0 c 1
 401 0 l 1
218 18 m 0
 323 18 393 105 393 207 c 2
 393 275 l 1
 241 285 86 245 86 132 c 0
 86 61 130 18 218 18 c 0
EndSplineSet
EndChar

StartChar: Aogonek
Encoding: 260 260 8
Width: 622
GlyphClass: 2
Flags: MW
HStem: -223 28<513.5 530.5> 0 21G<34 75 34 34 595 607 595 595> 263 33<185 455 185 467 172 455> 659 31<321 321>
VStem: 445 37<-161.5 -114.5>
LayerCount: 2
Fore
SplineSet
607 0 m 1
 595 0 l 1
 531 -25 482 -77 482 -143 c 0
 482 -180 500 -195 527 -195 c 0
 549 -195 569 -186 590 -166 c 1
 590 -196 l 1
 569 -214 545 -223 516 -223 c 0
 478 -223 445 -206 445 -150 c 0
 445 -79 493 -21 562 9 c 1
 467 263 l 1
 172 263 l 1
 75 0 l 1
 34 0 l 1
 297 690 l 1
 347 690 l 1
 607 0 l 1
185 296 m 1
 455 296 l 1
 321 659 l 1
 185 296 l 1
EndSplineSet
Position2: "'cpsp' Capital Spacing in Latin lookup 0 subtable" dx=5 dy=0 dh=10 dv=0
EndChar

StartChar: aogonek
Encoding: 261 261 122
Width: 503
GlyphClass: 2
Flags: MW
HStem: -223 28<343.5 360.5> -14 32<174 242> 0 21G<427 440 427 427> 275 32<359 393> 509 32<219.5 297.5>
VStem: 44 42<96.5 188.5 96.5 191> 275 37<-161.5 -113> 393 38<207 275 275 275 307 331 331 333>
LayerCount: 2
Fore
SplineSet
440 0 m 1xbf
 427 0 l 1xbf
 360 -17 312 -77 312 -143 c 0
 312 -180 330 -195 357 -195 c 0
 379 -195 399 -186 420 -166 c 1
 420 -196 l 1
 399 -214 375 -223 346 -223 c 0
 308 -223 275 -206 275 -150 c 0
 275 -76 327 -11 400 13 c 1
 394 115 l 1
 369 62 l 1
 333 11 275 -14 209 -14 c 0xdf
 110 -14 44 35 44 130 c 0
 44 252 184 307 359 307 c 2
 393 307 l 1
 393 331 l 2
 393 355 393 376 391 398 c 0
 385 469 339 509 256 509 c 0
 183 509 115 470 104 378 c 1
 65 378 l 1
 72 472 149 541 256 541 c 0
 365 541 421 490 429 402 c 0
 431 376 431 359 431 333 c 2
 431 161 l 2
 431 106 434 67 440 0 c 1xbf
218 18 m 0xdf
 323 18 393 105 393 207 c 2
 393 275 l 1
 241 285 86 245 86 132 c 0
 86 61 130 18 218 18 c 0xdf
EndSplineSet
EndChar

StartChar: Cacute
Encoding: 262 262 14
Width: 683
GlyphClass: 2
Flags: MW
HStem: -14 33<282.5 425 282.5 437.5> 671 33<291.5 428.5> 736 94<333 427 333 427>
VStem: 50 42<237.5 448.5 237.5 450> 594 38.5
AnchorPoint: "Anchor-0" 357 0 basechar 0
LayerCount: 2
Fore
SplineSet
361 736 m 1
 333 736 l 1
 386 830 l 1
 427 830 l 1
 361 736 l 1
366 704 m 0
 523 704 609 607 632 481 c 1
 633 471 l 1
 595 471 l 1
 593 481 l 2
 571 590 494 671 363 671 c 0
 220 671 92 552 92 345 c 0
 92 130 210 19 355 19 c 0
 495 19 570 105 593 218 c 2
 595 228 l 1
 633 228 l 1
 632 218 l 1
 609 90 522 -14 353 -14 c 0
 174 -14 50 124 50 343 c 0
 50 557 185 704 366 704 c 0
EndSplineSet
Position2: "'cpsp' Capital Spacing in Latin lookup 0 subtable" dx=5 dy=0 dh=10 dv=0
EndChar

StartChar: cacute
Encoding: 263 263 128
Width: 520
GlyphClass: 2
Flags: MW
HStem: -14 32<217 309.5 217 319> 510 31<223.5 320> 580 110<249 350 249 350>
VStem: 30 42<183 349.5>
AnchorPoint: "Anchor-0" 256 0 basechar 0
LayerCount: 2
Fore
SplineSet
277 580 m 1
 249 580 l 1
 309 690 l 1
 350 690 l 1
 277 580 l 1
273 541 m 0
 390 541 471 468 487 360 c 1
 448 360 l 1
 430 453 369 510 271 510 c 0
 176 510 72 432 72 269 c 0
 72 97 167 18 267 18 c 0
 352 18 424 68 443 160 c 1
 482 160 l 1
 460 50 374 -14 264 -14 c 0
 134 -14 30 84 30 263 c 0
 30 436 141 541 273 541 c 0
EndSplineSet
EndChar

StartChar: Cdotaccent
Encoding: 266 266 17
Width: 683
GlyphClass: 2
Flags: MW
HStem: -14 33<282.5 425 282.5 437.5> 671 33<291.5 428.5> 757 53<343 357.5>
VStem: 50 42<237.5 448.5 237.5 450> 324 53<776 790.5> 594 38.5
AnchorPoint: "Anchor-0" 357 0 basechar 0
LayerCount: 2
Fore
SplineSet
350 810 m 0
 365 810 377 798 377 783 c 0
 377 769 365 757 350 757 c 0
 336 757 324 769 324 783 c 0
 324 798 336 810 350 810 c 0
366 704 m 0
 523 704 609 607 632 481 c 1
 633 471 l 1
 595 471 l 1
 593 481 l 2
 571 590 494 671 363 671 c 0
 220 671 92 552 92 345 c 0
 92 130 210 19 355 19 c 0
 495 19 570 105 593 218 c 2
 595 228 l 1
 633 228 l 1
 632 218 l 1
 609 90 522 -14 353 -14 c 0
 174 -14 50 124 50 343 c 0
 50 557 185 704 366 704 c 0
EndSplineSet
Position2: "'cpsp' Capital Spacing in Latin lookup 0 subtable" dx=5 dy=0 dh=10 dv=0
EndChar

StartChar: cdotaccent
Encoding: 267 267 131
Width: 520
GlyphClass: 2
Flags: MW
HStem: -14 32<217 309.5 217 319> 510 31<223.5 320> 608 58<258 274>
VStem: 30 42<183 349.5> 237 58<629 645>
AnchorPoint: "Anchor-0" 256 0 basechar 0
LayerCount: 2
Fore
SplineSet
266 666 m 0
 282 666 295 653 295 637 c 0
 295 621 282 608 266 608 c 0
 250 608 237 621 237 637 c 0
 237 653 250 666 266 666 c 0
273 541 m 0
 390 541 471 468 487 360 c 1
 448 360 l 1
 430 453 369 510 271 510 c 0
 176 510 72 432 72 269 c 0
 72 97 167 18 267 18 c 0
 352 18 424 68 443 160 c 1
 482 160 l 1
 460 50 374 -14 264 -14 c 0
 134 -14 30 84 30 263 c 0
 30 436 141 541 273 541 c 0
EndSplineSet
EndChar

StartChar: ccaron
Encoding: 269 269 129
Width: 520
GlyphClass: 2
Flags: MW
HStem: -14 32<217 309.5 217 319> 510 31<223.5 320> 580 24<251 267 267 267 267 283> 580 110<185 251 185 283>
VStem: 30 42<183 349.5>
AnchorPoint: "Anchor-0" 256 0 basechar 0
LayerCount: 2
Fore
SplineSet
251 580 m 1xd8
 185 690 l 1
 219 690 l 1xd8
 267 604 l 1xe8
 315 690 l 1
 348 690 l 1
 283 580 l 1
 251 580 l 1xd8
267 18 m 0
 352 18 424 68 443 160 c 1
 482 160 l 1
 460 50 374 -14 264 -14 c 0
 134 -14 30 84 30 263 c 0
 30 436 141 541 273 541 c 0
 390 541 471 468 487 360 c 1
 448 360 l 1
 430 453 369 510 271 510 c 0
 176 510 72 432 72 269 c 0
 72 97 167 18 267 18 c 0
EndSplineSet
EndChar

StartChar: Dcaron
Encoding: 270 270 20
Width: 687
GlyphClass: 2
Flags: MW
HStem: 0 33<135 296 296 298> 657 33<135 298 135 135> 736 20<334 350 350 350 350 366>
VStem: 97 38<33 657 33 690 33 690> 607 42<251 449.5>
LayerCount: 2
Fore
SplineSet
334 736 m 1
 268 830 l 1
 303 830 l 1
 350 756 l 1
 397 830 l 1
 431 830 l 1
 366 736 l 1
 334 736 l 1
376 688 m 0
 495 677 649 584 649 349 c 0
 649 116 495 17 386 4 c 0
 351 0 331 0 298 0 c 2
 97 0 l 1
 97 690 l 1
 299 690 l 2
 332 690 348 690 376 688 c 0
381 38 m 0
 492 52 607 153 607 349 c 0
 607 550 484 642 373 654 c 0
 351 657 334 657 298 657 c 2
 135 657 l 1
 135 33 l 1
 296 33 l 2
 329 33 351 34 381 38 c 0
EndSplineSet
Position2: "'cpsp' Capital Spacing in Latin lookup 0 subtable" dx=5 dy=0 dh=10 dv=0
EndChar

StartChar: dcaron
Encoding: 271 271 134
Width: 562
GlyphClass: 2
Flags: MW
HStem: -14 32<202 294.5> 0 21G<451 489 451 451> 509 32<215 304.5 209.5 314.5> 607 127<519 600 519 600> 714 20G<564 600 600 600> 715 20G<451 489 489 489>
VStem: 30 42<197.5 338 197.5 353> 451 38<0 112 112 112 244 295 295 376.5 420 735 0 735>
LayerCount: 2
Fore
SplineSet
451 735 m 1xa7
 489 735 l 1
 489 0 l 1
 451 0 l 1x67
 451 112 l 1
 420 52 l 1
 377 4 328 -14 261 -14 c 0
 119 -14 30 100 30 259 c 0
 30 447 145 541 274 541 c 0
 335 541 382 523 421 481 c 1
 451 420 l 1
 451 735 l 1xa7
600 734 m 1xab
 600 727 l 1
 548 607 l 1
 519 607 l 1xb3
 564 734 l 1
 600 734 l 1xab
265 18 m 0
 365 18 451 76 451 244 c 2
 451 295 l 2
 451 458 355 509 274 509 c 0
 156 509 72 412 72 264 c 0
 72 131 139 18 265 18 c 0
EndSplineSet
EndChar

StartChar: dcroat
Encoding: 273 273 135
Width: 564
GlyphClass: 2
Flags: MW
HStem: -14 32<202 294.5> 0 21G<451 489 451 451> 509 32<215 304.5 209.5 314.5> 609 29<334 451 334 451 489 532> 609 126<334 489 334 489 451 532 451 489>
VStem: 30 42<197.5 338 197.5 353> 451 38<0 112 112 112 244 295 295 376.5 420 609 0 609 638 735>
LayerCount: 2
Fore
SplineSet
532 609 m 1xb6
 489 609 l 1
 489 0 l 1
 451 0 l 1x76
 451 112 l 1
 420 52 l 1
 377 4 328 -14 261 -14 c 0
 119 -14 30 100 30 259 c 0
 30 447 145 541 274 541 c 0
 335 541 382 523 421 481 c 1
 451 420 l 1
 451 609 l 1
 334 609 l 1
 334 638 l 1
 451 638 l 1xb6
 451 735 l 1
 489 735 l 1xae
 489 638 l 1
 532 638 l 1
 532 609 l 1xb6
265 18 m 0xb6
 365 18 451 76 451 244 c 2
 451 295 l 2
 451 458 355 509 274 509 c 0
 156 509 72 412 72 264 c 0
 72 131 139 18 265 18 c 0xb6
EndSplineSet
EndChar

StartChar: Emacron
Encoding: 274 274 29
Width: 565
GlyphClass: 2
Flags: MW
HStem: 0 33<135 534 135 534> 329 32<135 501 135 501> 658 32<135 524 135 135> 768 29<220 385 220 385>
VStem: 97 38<33 329 361 658> 220 165<768 797 768 797>
AnchorPoint: "Anchor-0" 294 0 basechar 0
LayerCount: 2
Fore
SplineSet
385 768 m 1
 220 768 l 1
 220 797 l 1
 385 797 l 1
 385 768 l 1
534 33 m 1
 534 0 l 1
 97 0 l 1
 97 690 l 1
 524 690 l 1
 524 658 l 1
 135 658 l 1
 135 361 l 1
 501 361 l 1
 501 329 l 1
 135 329 l 1
 135 33 l 1
 534 33 l 1
EndSplineSet
Position2: "'cpsp' Capital Spacing in Latin lookup 0 subtable" dx=5 dy=0 dh=10 dv=0
EndChar

StartChar: Edotaccent
Encoding: 278 278 27
Width: 565
GlyphClass: 2
Flags: MW
HStem: 0 33<135 534 135 534> 329 32<135 501 135 501> 658 32<135 524 135 135> 757 53<295 309.5>
VStem: 97 38<33 329 361 658> 276 53<776 790.5>
AnchorPoint: "Anchor-0" 294 0 basechar 0
LayerCount: 2
Fore
SplineSet
302 757 m 0
 288 757 276 769 276 783 c 0
 276 798 288 810 302 810 c 0
 317 810 329 798 329 783 c 0
 329 769 317 757 302 757 c 0
534 33 m 1
 534 0 l 1
 97 0 l 1
 97 690 l 1
 524 690 l 1
 524 658 l 1
 135 658 l 1
 135 361 l 1
 501 361 l 1
 501 329 l 1
 135 329 l 1
 135 33 l 1
 534 33 l 1
EndSplineSet
Position2: "'cpsp' Capital Spacing in Latin lookup 0 subtable" dx=5 dy=0 dh=10 dv=0
EndChar

StartChar: Eogonek
Encoding: 280 280 30
Width: 565
GlyphClass: 2
Flags: MW
HStem: -223 28<452.5 469.5> 0 33<135 482 135 534> 329 32<135 501 135 501> 658 32<135 524 135 135>
VStem: 97 38<33 329 361 658> 384 37<-161.5 -118>
AnchorPoint: "Anchor-0" 294 0 basechar 0
LayerCount: 2
Fore
SplineSet
534 33 m 1
 534 0 l 1
 470 -25 421 -77 421 -143 c 0
 421 -180 439 -195 466 -195 c 0
 488 -195 508 -186 529 -166 c 1
 529 -196 l 1
 508 -214 484 -223 455 -223 c 0
 417 -223 384 -206 384 -150 c 0
 384 -86 423 -32 482 0 c 1
 97 0 l 1
 97 690 l 1
 524 690 l 1
 524 658 l 1
 135 658 l 1
 135 361 l 1
 501 361 l 1
 501 329 l 1
 135 329 l 1
 135 33 l 1
 534 33 l 1
EndSplineSet
Position2: "'cpsp' Capital Spacing in Latin lookup 0 subtable" dx=5 dy=0 dh=10 dv=0
EndChar

StartChar: eogonek
Encoding: 281 281 144
Width: 528
GlyphClass: 2
Flags: MW
HStem: -223 28<259.5 276.5> -14 32<216 260 260 264> -1 21G<341 341> 253 33<70 452 70 490 70 452> 509 32<221 311.5>
VStem: 30 40<253 253 253 286 253 348.5> 191 37<-161.5 -123> 452 39<286 286>
AnchorPoint: "Anchor-0" 259 0 basechar 0
LayerCount: 2
Fore
SplineSet
491 278 m 0xdf
 491 273 491 266 490 253 c 1
 70 253 l 1
 76 82 170 18 262 18 c 0xdf
 342 18 418 64 444 164 c 1
 483 164 l 1
 462 79 409 24 343 0 c 1
 341 -1 l 2
 337 -2 332 -4 328 -5 c 0xbf
 269 -26 228 -82 228 -143 c 0
 228 -180 246 -195 273 -195 c 0
 295 -195 315 -186 336 -166 c 1
 336 -196 l 1
 315 -214 291 -223 262 -223 c 0
 224 -223 191 -206 191 -150 c 0
 191 -96 219 -46 264 -14 c 1
 260 -14 l 2
 134 -14 30 80 30 265 c 0
 30 432 135 541 269 541 c 0
 418 541 491 415 491 278 c 0xdf
267 509 m 0
 175 509 76 437 70 286 c 1
 452 286 l 1
 446 449 356 509 267 509 c 0
EndSplineSet
EndChar

StartChar: Ecaron
Encoding: 282 282 24
Width: 565
GlyphClass: 2
Flags: MW
HStem: 0 33<135 534 135 534> 329 32<135 501 135 501> 658 32<135 524 135 135> 658 172<221 256 350 384 221 524 135 256> 736 20<287 303 303 303 303 319>
VStem: 97 38<33 329 361 658>
AnchorPoint: "Anchor-0" 294 0 basechar 0
LayerCount: 2
Fore
SplineSet
287 736 m 1xec
 221 830 l 1
 256 830 l 1xd4
 303 756 l 1xec
 350 830 l 1
 384 830 l 1xd4
 319 736 l 1
 287 736 l 1xec
534 33 m 1
 534 0 l 1
 97 0 l 1
 97 690 l 1
 524 690 l 1
 524 658 l 1
 135 658 l 1xec
 135 361 l 1
 501 361 l 1
 501 329 l 1
 135 329 l 1
 135 33 l 1
 534 33 l 1
EndSplineSet
Position2: "'cpsp' Capital Spacing in Latin lookup 0 subtable" dx=5 dy=0 dh=10 dv=0
EndChar

StartChar: Gbreve
Encoding: 286 286 33
Width: 698
GlyphClass: 2
Flags: MW
HStem: -14 33<284 398> 0 21G<602 637 602 602> 281 33<384 599 384 637> 671 33<296 436> 722 30<340.5 381.5 340.5 391.5>
VStem: 50 42<237.5 448.5 237.5 450> 263 27<796.5 830> 433 26<796.5 830> 599 38<186 281> 602 38
AnchorPoint: "Anchor-0" 360 0 basechar 0
LayerCount: 2
Fore
SplineSet
361 722 m 0xbf80
 300 722 263 763 263 830 c 1
 290 830 l 1
 291 779 320 752 361 752 c 0
 402 752 432 779 433 830 c 1
 459 830 l 1
 459 763 422 722 361 722 c 0xbf80
384 314 m 1
 637 314 l 1
 637 0 l 1
 602 0 l 1x7780
 602 167 l 1
 579 103 l 1xb780
 526 20 441 -14 355 -14 c 0
 174 -14 50 124 50 343 c 0
 50 557 187 704 374 704 c 0
 531 704 617 607 639 481 c 1
 641 471 l 1
 603 471 l 1
 601 481 l 2
 579 590 502 671 370 671 c 0xb740
 222 671 92 552 92 345 c 0
 92 130 210 19 358 19 c 0
 464 19 599 91 599 281 c 1
 384 281 l 1
 384 314 l 1
EndSplineSet
Position2: "'cpsp' Capital Spacing in Latin lookup 0 subtable" dx=5 dy=0 dh=10 dv=0
EndChar

StartChar: gbreve
Encoding: 287 287 147
Width: 562
GlyphClass: 2
Flags: MW
HStem: -218 33<221 324.5 221 332.5> -14 32<202 294.5> 509 32<215 304.5 209.5 314.5> 510 20G<451 489 489 489> 569 30<256 298 256 309> 670 20G<183 210 210 210 343 370 370 370>
VStem: 30 42<197.5 338 197.5 353> 52 38.5 183 27<652.5 690> 343 27<652.5 690> 451 38<102.5 112 112 112 244 295 295 376.5 420 530>
LayerCount: 2
Fore
SplineSet
277 569 m 0xdee0
 213 569 183 615 183 690 c 1
 210 690 l 1
 211 631 235 599 277 599 c 0
 319 599 342 631 343 690 c 1
 370 690 l 1
 370 615 341 569 277 569 c 0xdee0
489 530 m 1
 489 138 l 2
 489 67 489 26 488 -7 c 0
 484 -135 402 -218 263 -218 c 0
 153 -218 68 -173 53 -55 c 1
 51 -42 l 1
 90 -42 l 1
 91 -55 l 1xe5e0
 103 -147 177 -185 265 -185 c 0
 384 -185 447 -112 450 -4 c 0
 451 29 451 53 451 94 c 2
 451 112 l 1
 420 52 l 1
 377 4 328 -14 261 -14 c 0
 119 -14 30 100 30 259 c 0
 30 447 145 541 274 541 c 0
 335 541 382 523 421 481 c 1xe6e0
 451 420 l 1
 451 530 l 1
 489 530 l 1
265 18 m 0
 365 18 451 76 451 244 c 2
 451 295 l 2
 451 458 355 509 274 509 c 0
 156 509 72 412 72 264 c 0xe6e0
 72 131 139 18 265 18 c 0
EndSplineSet
EndChar

StartChar: Gdotaccent
Encoding: 288 288 35
Width: 698
GlyphClass: 2
Flags: MW
HStem: -14 33<284 398> 0 21G<602 637 602 602> 281 33<384 599 384 637> 671 33<296 436> 757 53<354 368.5>
VStem: 50 42<237.5 448.5 237.5 450> 335 53<776 790.5> 599 38<186 281> 602 38
AnchorPoint: "Anchor-0" 360 0 basechar 0
LayerCount: 2
Fore
SplineSet
361 757 m 0xbf
 347 757 335 769 335 783 c 0
 335 798 347 810 361 810 c 0
 376 810 388 798 388 783 c 0
 388 769 376 757 361 757 c 0xbf
384 314 m 1
 637 314 l 1
 637 0 l 1
 602 0 l 1x7f
 602 167 l 1
 579 103 l 1xbf
 526 20 441 -14 355 -14 c 0
 174 -14 50 124 50 343 c 0
 50 557 187 704 374 704 c 0
 531 704 617 607 639 481 c 1
 641 471 l 1
 603 471 l 1
 601 481 l 2xbe80
 579 590 502 671 370 671 c 0
 222 671 92 552 92 345 c 0
 92 130 210 19 358 19 c 0
 464 19 599 91 599 281 c 1
 384 281 l 1
 384 314 l 1
EndSplineSet
Position2: "'cpsp' Capital Spacing in Latin lookup 0 subtable" dx=5 dy=0 dh=10 dv=0
EndChar

StartChar: gdotaccent
Encoding: 289 289 149
Width: 562
GlyphClass: 2
Flags: MW
HStem: -218 33<221 324.5 221 332.5> -14 32<202 294.5> 509 32<215 304.5 209.5 314.5> 510 20G<451 489 489 489> 608 58<269 285>
VStem: 30 42<197.5 338 197.5 353> 52 38.5 248 58<629 645> 451 38<102.5 112 112 112 244 295 295 376.5 420 530>
LayerCount: 2
Fore
SplineSet
277 608 m 0xed80
 261 608 248 621 248 637 c 0
 248 653 261 666 277 666 c 0
 293 666 306 653 306 637 c 0
 306 621 293 608 277 608 c 0xed80
489 530 m 1xdd80
 489 138 l 2
 489 67 489 26 488 -7 c 0
 484 -135 402 -218 263 -218 c 0
 153 -218 68 -173 53 -55 c 1
 51 -42 l 1
 90 -42 l 1
 91 -55 l 1xeb80
 103 -147 177 -185 265 -185 c 0
 384 -185 447 -112 450 -4 c 0
 451 29 451 53 451 94 c 2
 451 112 l 1
 420 52 l 1
 377 4 328 -14 261 -14 c 0
 119 -14 30 100 30 259 c 0
 30 447 145 541 274 541 c 0
 335 541 382 523 421 481 c 1xed80
 451 420 l 1
 451 530 l 1
 489 530 l 1xdd80
265 18 m 0
 365 18 451 76 451 244 c 2
 451 295 l 2
 451 458 355 509 274 509 c 0
 156 509 72 412 72 264 c 0xed80
 72 131 139 18 265 18 c 0
EndSplineSet
EndChar

StartChar: gcommaaccent
Encoding: 291 291 148
Width: 562
GlyphClass: 2
Flags: MW
HStem: -218 33<221 324.5 221 332.5> -14 32<202 294.5> 509 32<215 304.5 209.5 314.5> 510 20G<451 489 489 489> 581 128<257 339 257 339>
VStem: 30 42<197.5 338 197.5 353> 52 38.5 451 38<102.5 112 112 112 244 295 295 376.5 420 530>
LayerCount: 2
Fore
SplineSet
293 581 m 1xed
 257 581 l 1
 257 588 l 1
 309 709 l 1
 339 709 l 1
 293 581 l 1xed
489 530 m 1xdd
 489 138 l 2
 489 67 489 26 488 -7 c 0
 484 -135 402 -218 263 -218 c 0
 153 -218 68 -173 53 -55 c 1
 51 -42 l 1
 90 -42 l 1
 91 -55 l 1xeb
 103 -147 177 -185 265 -185 c 0
 384 -185 447 -112 450 -4 c 0
 451 29 451 53 451 94 c 2
 451 112 l 1
 420 52 l 1
 377 4 328 -14 261 -14 c 0
 119 -14 30 100 30 259 c 0
 30 447 145 541 274 541 c 0
 335 541 382 523 421 481 c 1xed
 451 420 l 1
 451 530 l 1
 489 530 l 1xdd
265 18 m 0
 365 18 451 76 451 244 c 2
 451 295 l 2
 451 458 355 509 274 509 c 0
 156 509 72 412 72 264 c 0xed
 72 131 139 18 265 18 c 0
EndSplineSet
EndChar

StartChar: Hbar
Encoding: 294 294 37
Width: 674
GlyphClass: 2
Flags: MW
HStem: 0 21G<97 135 97 97 563 601 563 563> 322 33<135 563 135 563> 516 29<57 97 57 97 135 563 601 641> 516 174<57 135 57 135 97 135 97 563>
VStem: 97 38<0 322 0 355 355 516 545 690> 563 38<0 322 322 322 355 516 0 516 545 690>
LayerCount: 2
Fore
SplineSet
641 516 m 1xec
 601 516 l 1
 601 0 l 1
 563 0 l 1
 563 322 l 1
 135 322 l 1
 135 0 l 1
 97 0 l 1
 97 516 l 1
 57 516 l 1
 57 545 l 1
 97 545 l 1xec
 97 690 l 1
 135 690 l 1xdc
 135 545 l 1
 563 545 l 1xec
 563 690 l 1
 601 690 l 1xdc
 601 545 l 1
 641 545 l 1
 641 516 l 1xec
563 516 m 1
 135 516 l 1
 135 355 l 1
 563 355 l 1
 563 516 l 1
EndSplineSet
Position2: "'cpsp' Capital Spacing in Latin lookup 0 subtable" dx=5 dy=0 dh=10 dv=0
EndChar

StartChar: hbar
Encoding: 295 295 151
Width: 557
GlyphClass: 2
Flags: MW
HStem: 0 21G<83 121 83 83 452 490 452 452> 508 33<272.5 299> 609 29<32 83 32 83 121 230> 609 131<32 121 32 121 83 121 83 230>
VStem: 83 38<0 292 414 609 638 740> 452 38<0 285 285 294 0 302.5>
LayerCount: 2
Fore
SplineSet
487 381 m 0xec
 489 354 490 337 490 294 c 2
 490 0 l 1
 452 0 l 1
 452 285 l 2
 452 320 451 343 449 370 c 0
 440 452 395 509 299 508 c 0
 206 508 121 443 121 292 c 2
 121 0 l 1
 83 0 l 1
 83 609 l 1
 32 609 l 1
 32 638 l 1
 83 638 l 1xec
 83 740 l 1
 121 740 l 1xdc
 121 638 l 1
 230 638 l 1
 230 609 l 1
 121 609 l 1
 121 414 l 1
 145 469 l 1
 186 519 241 541 304 541 c 0
 412 541 476 481 487 381 c 0xec
EndSplineSet
EndChar

StartChar: Imacron
Encoding: 298 298 45
Width: 208
GlyphClass: 2
Flags: MW
HStem: 0 21G<97 135 97 97> 670 20G<97 135 135 135> 768 29<34 199 34 199>
VStem: 97 38<0 690>
LayerCount: 2
Fore
SplineSet
199 768 m 1
 34 768 l 1
 34 797 l 1
 199 797 l 1
 199 768 l 1
135 0 m 1
 97 0 l 1
 97 690 l 1
 135 690 l 1
 135 0 l 1
EndSplineSet
Position2: "'cpsp' Capital Spacing in Latin lookup 0 subtable" dx=5 dy=0 dh=10 dv=0
EndChar

StartChar: imacron
Encoding: 299 299 159
Width: 183
GlyphClass: 2
Flags: MW
HStem: 0 21G<72 110 72 72> 507 20G<72 110 110 110> 616 29<9 174 9 174>
VStem: 72 38<0 527>
LayerCount: 2
Fore
SplineSet
174 616 m 1
 9 616 l 1
 9 645 l 1
 174 645 l 1
 174 616 l 1
110 0 m 1
 72 0 l 1
 72 527 l 1
 110 527 l 1
 110 0 l 1
EndSplineSet
EndChar

StartChar: Iogonek
Encoding: 302 302 46
Width: 208
GlyphClass: 2
Flags: MW
HStem: -223 28<47.5 64.5> 0 21G<129 135 129 129> 670 20G<97 135 135 135>
VStem: -22 38<-161.5 -114.5> 97 38<10 690 0 690>
LayerCount: 2
Fore
SplineSet
135 690 m 1
 135 0 l 1
 129 0 l 1
 65 -25 16 -77 16 -143 c 0
 16 -180 34 -195 61 -195 c 0
 83 -195 103 -186 124 -166 c 1
 124 -196 l 1
 103 -214 79 -223 50 -223 c 0
 12 -223 -22 -206 -22 -150 c 0
 -22 -79 27 -20 97 10 c 1
 97 690 l 1
 135 690 l 1
EndSplineSet
Position2: "'cpsp' Capital Spacing in Latin lookup 0 subtable" dx=5 dy=0 dh=10 dv=0
EndChar

StartChar: iogonek
Encoding: 303 303 160
Width: 183
GlyphClass: 2
Flags: MW
HStem: -223 28<14.5 31.5> 0 13 0 21G<98 110 98 98> 507 20G<72 110 110 110> 608 58<83 99>
VStem: -55 37<-161.5 -113> 62 58<629 645> 72 38<13 527 0 527>
LayerCount: 2
Fore
SplineSet
91 666 m 0xbe
 107 666 120 653 120 637 c 0
 120 621 107 608 91 608 c 0
 75 608 62 621 62 637 c 0
 62 653 75 666 91 666 c 0xbe
72 527 m 1xd5
 110 527 l 1
 110 0 l 1
 98 0 l 1
 31 -17 -18 -77 -18 -143 c 0
 -18 -180 1 -195 28 -195 c 0
 50 -195 70 -186 91 -166 c 1
 91 -196 l 1
 70 -214 46 -223 17 -223 c 0
 -21 -223 -55 -206 -55 -150 c 0
 -55 -76 -2 -11 72 13 c 1
 72 527 l 1xd5
EndSplineSet
EndChar

StartChar: Idotaccent
Encoding: 304 304 43
Width: 208
GlyphClass: 2
Flags: MW
HStem: 0 21G<97 135 97 97> 670 20G<97 135 135 135> 757 53<109 123.5>
VStem: 97 38<0 690>
LayerCount: 2
Fore
SplineSet
116 810 m 0
 131 810 143 798 143 783 c 0
 143 769 131 757 116 757 c 0
 102 757 90 769 90 783 c 0
 90 798 102 810 116 810 c 0
135 0 m 1
 97 0 l 1
 97 690 l 1
 135 690 l 1
 135 0 l 1
EndSplineSet
Position2: "'cpsp' Capital Spacing in Latin lookup 0 subtable" dx=5 dy=0 dh=10 dv=0
EndChar

StartChar: dotlessi
Encoding: 305 305 153
Width: 183
GlyphClass: 2
Flags: MW
HStem: 0 21G<72 110 72 72> 507 20G<72 110 110 110>
VStem: 72 38<0 527>
LayerCount: 2
Fore
SplineSet
110 0 m 1
 72 0 l 1
 72 527 l 1
 110 527 l 1
 110 0 l 1
EndSplineSet
EndChar

StartChar: IJ
Encoding: 306 306 39
Width: 715
GlyphClass: 2
Flags: MW
HStem: -14 33<412.5 504.5 412.5 518.5> 0 21G<97 135 97 97> 670 20G<97 135 135 135 614 652 652 652>
VStem: 97 38<0 690> 257.5 38 614 38<256 261 261 690>
LayerCount: 2
Fore
SplineSet
135 0 m 1x7c
 97 0 l 1
 97 690 l 1
 135 690 l 1
 135 0 l 1x7c
652 690 m 1
 652 261 l 2
 652 231 652 205 650 172 c 0
 644 74 584 -14 453 -14 c 0
 334 -14 263 56 258 194 c 2
 257 227 l 1
 295 227 l 1
 296 194 l 1
 301 67 367 19 458 19 c 0xbc
 551 19 604 77 612 176 c 0
 614 197 614 224 614 256 c 2
 614 690 l 1
 652 690 l 1
EndSplineSet
Position2: "'cpsp' Capital Spacing in Latin lookup 0 subtable" dx=5 dy=0 dh=10 dv=0
EndChar

StartChar: ij
Encoding: 307 307 158
Width: 358
GlyphClass: 2
Flags: MW
HStem: -210 32.69 0 21G<72 110 72 72> 507 20G<72 110 110 110 248 286 286 286> 608 58<83 99 259 275>
VStem: 62 58<629 645> 72 38<0 527> 239 57<629 645> 248 38<-76 -66 -66 527>
LayerCount: 2
Fore
SplineSet
91 666 m 0xfa
 107 666 120 653 120 637 c 0
 120 621 107 608 91 608 c 0
 75 608 62 621 62 637 c 0
 62 653 75 666 91 666 c 0xfa
267 666 m 0
 283 666 296 653 296 637 c 0
 296 621 283 608 267 608 c 0
 251 608 239 621 239 637 c 0
 239 653 251 666 267 666 c 0
110 0 m 1xe5
 72 0 l 1
 72 527 l 1
 110 527 l 1
 110 0 l 1xe5
286 527 m 1
 286 -66 l 2
 286 -86 286 -103 285 -121 c 0
 281 -182 244 -210 192 -210 c 0
 180 -210 169 -209 156 -207 c 1
 156 -175 l 1
 211 -184 244 -171 247 -116 c 0
 248 -102 248 -91 248 -76 c 2
 248 527 l 1
 286 527 l 1
EndSplineSet
EndChar

StartChar: kcommaaccent
Encoding: 311 311 163
Width: 474
GlyphClass: 2
Flags: MW
HStem: -179 128<179 260 179 260> 0 21G<72 110 72 72 404 458 404 404> 507 20G<404 456 456 456> 715 20G<72 110 110 110>
VStem: 72 38<0 204 247 735>
AnchorPoint: "Anchor-0" 240 0 basechar 0
LayerCount: 2
Fore
SplineSet
458 0 m 1
 404 0 l 1
 157 249 l 1
 110 204 l 1
 110 0 l 1
 72 0 l 1
 72 735 l 1
 110 735 l 1
 110 247 l 1
 404 527 l 1
 456 527 l 1
 185 273 l 1
 458 0 l 1
224 -51 m 1
 260 -51 l 1
 260 -58 l 1
 208 -179 l 1
 179 -179 l 1
 224 -51 l 1
EndSplineSet
EndChar

StartChar: lacute
Encoding: 314 314 165
Width: 192
GlyphClass: 2
Flags: MW
HStem: -5 33<112.5 166> 715 20G<69 107 107 107> 785 110<70 171 70 171>
VStem: 69 38<127 128 128 735>
AnchorPoint: "Anchor-0" 115 0 basechar 0
LayerCount: 2
Fore
SplineSet
98 785 m 1
 70 785 l 1
 130 895 l 1
 171 895 l 1
 98 785 l 1
107 735 m 1
 107 128 l 2
 107 98 107 79 108 64 c 0
 110 31 123 23 166 28 c 1
 166 -2 l 1
 154 -5 141 -5 129 -5 c 0
 96 -5 72 8 70 54 c 0
 69 74 69 92 69 127 c 2
 69 735 l 1
 107 735 l 1
EndSplineSet
EndChar

StartChar: Lcommaaccent
Encoding: 315 315 53
Width: 548
GlyphClass: 2
Flags: MW
HStem: -179 128<240 321 240 321> 0 33<135 534 135 534> 670 20G<97 135 135 135>
VStem: 97 38<33 690 33 690 33 690>
AnchorPoint: "Anchor-0" 300 0 basechar 0
LayerCount: 2
Fore
SplineSet
534 33 m 1
 534 0 l 1
 97 0 l 1
 97 690 l 1
 135 690 l 1
 135 33 l 1
 534 33 l 1
285 -51 m 1
 321 -51 l 1
 321 -58 l 1
 269 -179 l 1
 240 -179 l 1
 285 -51 l 1
EndSplineSet
Position2: "'cpsp' Capital Spacing in Latin lookup 0 subtable" dx=5 dy=0 dh=10 dv=0
EndChar

StartChar: lcommaaccent
Encoding: 316 316 167
Width: 192
GlyphClass: 2
Flags: MW
HStem: -179 128<53 134 53 134> -5 33<112.5 166> 715 20G<69 107 107 107>
VStem: 69 38<127 128 128 735>
AnchorPoint: "Anchor-0" 115 0 basechar 0
LayerCount: 2
Fore
SplineSet
107 735 m 1
 107 128 l 2
 107 98 107 79 108 64 c 0
 110 31 123 23 166 28 c 1
 166 -2 l 1
 154 -5 141 -5 129 -5 c 0
 96 -5 72 8 70 54 c 0
 69 74 69 92 69 127 c 2
 69 735 l 1
 107 735 l 1
134 -58 m 1
 82 -179 l 1
 53 -179 l 1
 98 -51 l 1
 134 -51 l 1
 134 -58 l 1
EndSplineSet
EndChar

StartChar: Ldot
Encoding: 319 319 54
Width: 548
GlyphClass: 2
Flags: MW
HStem: 0 33<135 534 135 534> 371 58<338 354> 670 20G<97 135 135 135>
VStem: 97 38<33 690 33 690 33 690> 317 57<392 408>
AnchorPoint: "Anchor-0" 300 0 basechar 0
LayerCount: 2
Fore
SplineSet
534 33 m 1
 534 0 l 1
 97 0 l 1
 97 690 l 1
 135 690 l 1
 135 33 l 1
 534 33 l 1
346 371 m 0
 330 371 317 384 317 400 c 0
 317 416 330 429 346 429 c 0
 362 429 374 416 374 400 c 0
 374 384 362 371 346 371 c 0
EndSplineSet
Ligature2: "Ligature Substitution lookup 5 subtable" L periodcentered
Position2: "'cpsp' Capital Spacing in Latin lookup 0 subtable" dx=5 dy=0 dh=10 dv=0
EndChar

StartChar: ldot
Encoding: 320 320 168
Width: 223
GlyphClass: 2
Flags: MW
HStem: -5 33<112.5 166> 371 58<180 196> 715 20G<69 107 107 107>
VStem: 69 38<127 128 128 735> 159 58<392 408>
AnchorPoint: "Anchor-0" 115 0 basechar 0
LayerCount: 2
Fore
SplineSet
107 735 m 1
 107 128 l 2
 107 98 107 79 108 64 c 0
 110 31 123 23 166 28 c 1
 166 -2 l 1
 154 -5 141 -5 129 -5 c 0
 96 -5 72 8 70 54 c 0
 69 74 69 92 69 127 c 2
 69 735 l 1
 107 735 l 1
188 429 m 0
 204 429 217 416 217 400 c 0
 217 384 204 371 188 371 c 0
 172 371 159 384 159 400 c 0
 159 416 172 429 188 429 c 0
EndSplineSet
Ligature2: "Ligature Substitution lookup 5 subtable" l periodcentered
EndChar

StartChar: Lslash
Encoding: 321 321 55
Width: 578
GlyphClass: 2
Flags: MW
HStem: 0 33<165 563 165 563> 670 20G<127 165 165 165>
VStem: 127 38<33 307 307 307 365 690>
AnchorPoint: "Anchor-0" 330 0 basechar 0
LayerCount: 2
Fore
SplineSet
563 33 m 1
 563 0 l 1
 127 0 l 1
 127 307 l 1
 14 240 l 1
 14 275 l 1
 127 342 l 1
 127 690 l 1
 165 690 l 1
 165 365 l 1
 334 465 l 1
 334 430 l 1
 165 330 l 1
 165 33 l 1
 563 33 l 1
EndSplineSet
Position2: "'cpsp' Capital Spacing in Latin lookup 0 subtable" dx=5 dy=0 dh=10 dv=0
EndChar

StartChar: lslash
Encoding: 322 322 169
Width: 223
GlyphClass: 2
Flags: MW
HStem: -5 33<133.5 187> 715 20G<90 128 128 128>
VStem: 90 38<127 128 128 291 291 291 353 735>
AnchorPoint: "Anchor-0" 136 0 basechar 0
LayerCount: 2
Fore
SplineSet
128 317 m 1
 128 128 l 2
 128 98 128 79 129 64 c 0
 131 31 144 23 187 28 c 1
 187 -2 l 1
 175 -5 162 -5 150 -5 c 0
 117 -5 93 8 91 54 c 0
 90 74 90 92 90 127 c 2
 90 291 l 1
 31 251 l 1
 31 288 l 1
 90 328 l 1
 90 735 l 1
 128 735 l 1
 128 353 l 1
 187 393 l 1
 187 357 l 1
 128 317 l 1
EndSplineSet
EndChar

StartChar: Nacute
Encoding: 323 323 58
Width: 657
GlyphClass: 2
Flags: MW
HStem: 0 36<549 549 549 585 526 549> 654 36<133 133> 736 94<324 418 324 418>
VStem: 97 38<0 368 0 690> 547 37.5
AnchorPoint: "Anchor-0" 341 0 basechar 0
LayerCount: 2
Fore
SplineSet
352 736 m 1
 324 736 l 1
 377 830 l 1
 418 830 l 1
 352 736 l 1
585 0 m 1
 526 0 l 1
 133 654 l 1
 135 564 135 458 135 368 c 2
 135 0 l 1
 97 0 l 1
 97 690 l 1
 155 690 l 1
 549 36 l 1
 547 126 547 233 547 323 c 2
 547 690 l 1
 584 690 l 1
 585 0 l 1
EndSplineSet
Position2: "'cpsp' Capital Spacing in Latin lookup 0 subtable" dx=5 dy=0 dh=10 dv=0
EndChar

StartChar: nacute
Encoding: 324 324 172
Width: 546
GlyphClass: 2
Flags: MW
HStem: 0 21G<72 110 72 72 441 479 441 441> 507 20G<72 110 110 110> 508 33<261 335.5> 580 110<256 357 256 357> 670 20G<316 357 357 357>
VStem: 72 38<0 292 414 527> 441 38<0 285 285 294 0 302.5>
AnchorPoint: "Anchor-0" 271 0 basechar 0
LayerCount: 2
Fore
SplineSet
284 580 m 1xb6
 256 580 l 1
 316 690 l 1
 357 690 l 1
 284 580 l 1xb6
475 381 m 0
 478 354 479 337 479 294 c 2
 479 0 l 1
 441 0 l 1
 441 285 l 2
 441 320 440 343 437 370 c 0
 428 452 383 508 288 508 c 0xae
 195 508 110 443 110 292 c 2
 110 0 l 1
 72 0 l 1
 72 527 l 1
 110 527 l 1xce
 110 414 l 1
 134 469 l 1
 174 519 230 541 292 541 c 0
 401 541 465 481 475 381 c 0
EndSplineSet
EndChar

StartChar: ncommaaccent
Encoding: 326 326 174
Width: 546
GlyphClass: 2
Flags: MW
HStem: -179 128<209 290 209 290> 0 21G<72 110 72 72 441 479 441 441> 507 20G<72 110 110 110> 508 33<261 335.5>
VStem: 72 38<0 292 414 527> 441 38<0 285 285 294 0 302.5>
AnchorPoint: "Anchor-0" 271 0 basechar 0
LayerCount: 2
Fore
SplineSet
475 381 m 0xdc
 478 354 479 337 479 294 c 2
 479 0 l 1
 441 0 l 1
 441 285 l 2
 441 320 440 343 437 370 c 0
 428 452 383 508 288 508 c 0xdc
 195 508 110 443 110 292 c 2
 110 0 l 1
 72 0 l 1
 72 527 l 1
 110 527 l 1xec
 110 414 l 1
 134 469 l 1
 174 519 230 541 292 541 c 0
 401 541 465 481 475 381 c 0xdc
254 -51 m 1
 290 -51 l 1
 290 -58 l 1
 238 -179 l 1
 209 -179 l 1
 254 -51 l 1
EndSplineSet
EndChar

StartChar: Ncaron
Encoding: 327 327 59
Width: 657
GlyphClass: 2
Flags: MW
HStem: 0 36<549 549 549 585 526 549> 654 36<133 133> 736 20<326 342 342 342 342 358>
VStem: 97 38<0 368 0 690> 547 37.5
AnchorPoint: "Anchor-0" 341 0 basechar 0
LayerCount: 2
Fore
SplineSet
326 736 m 1
 260 830 l 1
 295 830 l 1
 342 756 l 1
 389 830 l 1
 423 830 l 1
 358 736 l 1
 326 736 l 1
526 0 m 1
 133 654 l 1
 135 564 135 458 135 368 c 2
 135 0 l 1
 97 0 l 1
 97 690 l 1
 155 690 l 1
 549 36 l 1
 547 126 547 233 547 323 c 2
 547 690 l 1
 584 690 l 1
 585 0 l 1
 526 0 l 1
EndSplineSet
Position2: "'cpsp' Capital Spacing in Latin lookup 0 subtable" dx=5 dy=0 dh=10 dv=0
EndChar

StartChar: ncaron
Encoding: 328 328 173
Width: 546
GlyphClass: 2
Flags: MW
HStem: 0 21G<72 110 72 72 441 479 441 441> 507 20G<72 110 110 110> 508 33<261 335.5> 580 24<258 274 274 274 274 290> 580 110<192 258 192 290>
VStem: 72 38<0 292 414 527> 441 38<0 285 285 294 0 302.5>
AnchorPoint: "Anchor-0" 271 0 basechar 0
LayerCount: 2
Fore
SplineSet
258 580 m 1xae
 192 690 l 1
 226 690 l 1xae
 274 604 l 1xb6
 322 690 l 1
 355 690 l 1
 290 580 l 1
 258 580 l 1xae
475 381 m 0
 478 354 479 337 479 294 c 2
 479 0 l 1
 441 0 l 1
 441 285 l 2
 441 320 440 343 437 370 c 0
 428 452 383 508 288 508 c 0xae
 195 508 110 443 110 292 c 2
 110 0 l 1
 72 0 l 1
 72 527 l 1
 110 527 l 1xce
 110 414 l 1
 134 469 l 1
 174 519 230 541 292 541 c 0
 401 541 465 481 475 381 c 0
EndSplineSet
EndChar

StartChar: Eng
Encoding: 330 330 61
Width: 657
GlyphClass: 2
Flags: MW
HStem: -223 33<442 477.5> 0 21G<97 135 97 97> 652 38<133 133>
VStem: 97 38<0 368 0 690> 547 38<328 690>
LayerCount: 2
Fore
SplineSet
585 690 m 1
 585 -67 l 2
 585 -85 585 -94 584 -108 c 0
 577 -191 529 -221 442 -223 c 1
 442 -190 l 1
 513 -190 546 -163 546 -83 c 2
 546 -22 l 1
 133 652 l 1
 135 562 135 458 135 368 c 2
 135 0 l 1
 97 0 l 1
 97 690 l 1
 155 690 l 1
 549 46 l 1
 547 136 547 238 547 328 c 2
 547 690 l 1
 585 690 l 1
EndSplineSet
Position2: "'cpsp' Capital Spacing in Latin lookup 0 subtable" dx=5 dy=0 dh=10 dv=0
EndChar

StartChar: eng
Encoding: 331 331 175
Width: 546
GlyphClass: 2
Flags: MW
HStem: -210 33<333 365.5 333 378> 0 21G<72 110 72 72> 507 20G<72 110 110 110> 508 33<261 335.5>
VStem: 72 38<0 292 414 527> 441 38<-58 -54 -54 285 285 294>
LayerCount: 2
Fore
SplineSet
475 381 m 0xdc
 478 354 479 337 479 294 c 2
 479 -54 l 2
 479 -72 479 -81 478 -95 c 0
 471 -179 423 -210 333 -210 c 1
 333 -177 l 1
 398 -177 435 -158 440 -96 c 0
 441 -83 441 -72 441 -58 c 2
 441 285 l 2
 441 320 440 343 437 370 c 0
 428 452 383 508 288 508 c 0xdc
 195 508 110 443 110 292 c 2
 110 0 l 1
 72 0 l 1
 72 527 l 1
 110 527 l 1xec
 110 414 l 1
 134 469 l 1
 174 519 230 541 292 541 c 0
 401 541 465 481 475 381 c 0xdc
EndSplineSet
EndChar

StartChar: Omacron
Encoding: 332 332 69
Width: 719
GlyphClass: 2
Flags: MW
HStem: -14 33<290 441.5 290 462.5> 671 33<290 441.5> 768 29<284 449 284 449>
VStem: 50 42<241.5 449> 284 165<768 797 768 797> 639 42<241.5 449>
LayerCount: 2
Fore
SplineSet
449 768 m 1
 284 768 l 1
 284 797 l 1
 449 797 l 1
 449 768 l 1
366 704 m 0
 559 704 681 553 681 345 c 0
 681 138 559 -14 366 -14 c 0
 172 -14 50 138 50 345 c 0
 50 553 172 704 366 704 c 0
366 19 m 0
 517 19 639 138 639 345 c 0
 639 553 517 671 366 671 c 0
 214 671 92 553 92 345 c 0
 92 138 214 19 366 19 c 0
EndSplineSet
Position2: "'cpsp' Capital Spacing in Latin lookup 0 subtable" dx=5 dy=0 dh=10 dv=0
EndChar

StartChar: omacron
Encoding: 333 333 183
Width: 562
GlyphClass: 2
Flags: MW
HStem: -14 32<225 337 225 359> 509 32<225 337> 616 29<199 364 199 364>
VStem: 30 42<182 344.5> 199 165<616 645 616 645> 491 41<182 344.5 182 345>
LayerCount: 2
Fore
SplineSet
364 616 m 1
 199 616 l 1
 199 645 l 1
 364 645 l 1
 364 616 l 1
281 541 m 0
 437 541 532 426 532 263 c 0
 532 101 437 -14 281 -14 c 0
 125 -14 30 101 30 263 c 0
 30 426 125 541 281 541 c 0
281 18 m 0
 393 18 491 100 491 263 c 0
 491 427 393 509 281 509 c 0
 169 509 72 427 72 263 c 0
 72 100 169 18 281 18 c 0
EndSplineSet
EndChar

StartChar: ohungarumlaut
Encoding: 337 337 182
Width: 562
GlyphClass: 2
Flags: MW
HStem: -14 32<225 337 225 359> 509 32<225 337> 580 110<211 312 211 312 271 316 271 344>
VStem: 30 42<182 344.5> 491 41<182 344.5 182 345>
LayerCount: 2
Fore
SplineSet
239 580 m 1
 211 580 l 1
 271 690 l 1
 312 690 l 1
 239 580 l 1
344 580 m 1
 316 580 l 1
 376 690 l 1
 417 690 l 1
 344 580 l 1
281 541 m 0
 437 541 532 426 532 263 c 0
 532 101 437 -14 281 -14 c 0
 125 -14 30 101 30 263 c 0
 30 426 125 541 281 541 c 0
281 18 m 0
 393 18 491 100 491 263 c 0
 491 427 393 509 281 509 c 0
 169 509 72 427 72 263 c 0
 72 100 169 18 281 18 c 0
EndSplineSet
EndChar

StartChar: OE
Encoding: 338 338 72
Width: 1107
GlyphClass: 2
Flags: MW
HStem: -14 33<290 416> 0 33<677 1076 677 1076> 329 32<677 1043 677 1043> 658 32<677 1066 677 677> 671 33<290 419 267.5 445.5>
VStem: 50 42<243 448> 639 38<33 189 189 189 242.5 329 361 448 500 658>
LayerCount: 2
Fore
SplineSet
1076 33 m 1x76
 1076 0 l 1
 639 0 l 1x76
 639 189 l 1
 609 113 l 1
 547 23 469 -14 363 -14 c 0
 172 -14 50 141 50 345 c 0
 50 551 172 704 363 704 c 0xae
 475 704 540 670 609 579 c 1
 639 500 l 1
 639 690 l 1
 1066 690 l 1
 1066 658 l 1
 677 658 l 1
 677 361 l 1
 1043 361 l 1
 1043 329 l 1
 677 329 l 1
 677 33 l 1
 1076 33 l 1x76
366 19 m 0xae
 525 19 639 140 639 345 c 0
 639 551 525 671 366 671 c 0
 214 671 92 551 92 345 c 0
 92 140 214 19 366 19 c 0xae
EndSplineSet
Position2: "'cpsp' Capital Spacing in Latin lookup 0 subtable" dx=5 dy=0 dh=10 dv=0
EndChar

StartChar: oe
Encoding: 339 339 186
Width: 989
GlyphClass: 2
Flags: MW
HStem: -14 32<225 336.5 677 762.5> 253 33<532 913 532 950 532 913> 509 32<225 337 681.5 772.5>
VStem: 30 42<182 344.5> 491 41<253 253 253 286 253 345> 913 39<286 286>
LayerCount: 2
Fore
SplineSet
952 278 m 0
 952 273 952 266 950 253 c 1
 532 253 l 1
 537 84 631 18 723 18 c 0
 802 18 879 64 905 164 c 1
 944 164 l 1
 915 45 823 -14 720 -14 c 0
 627 -14 542 39 509 155 c 1
 476 46 392 -14 281 -14 c 0
 125 -14 30 101 30 263 c 0
 30 426 125 541 281 541 c 0
 393 541 479 481 512 371 c 1
 545 482 633 541 730 541 c 0
 880 541 952 415 952 278 c 0
281 18 m 0
 393 18 491 100 491 263 c 0
 491 427 393 509 281 509 c 0
 169 509 72 427 72 263 c 0
 72 100 169 18 281 18 c 0
532 286 m 1
 913 286 l 1
 907 450 817 509 728 509 c 0
 635 509 538 438 532 286 c 1
EndSplineSet
EndChar

StartChar: Racute
Encoding: 340 340 77
Width: 583
GlyphClass: 2
Flags: MW
HStem: 0 21G<97 135 97 97 511 554 511 511> 328 33<135 288 135 289> 657 33<135 279 135 135> 736 94<291 385 291 385>
VStem: 97 38<0 328 361 657> 503 41<468.5 553>
AnchorPoint: "Anchor-0" 299 0 basechar 0
LayerCount: 2
Fore
SplineSet
319 736 m 1
 291 736 l 1
 344 830 l 1
 385 830 l 1
 319 736 l 1
508 187 m 0
 519 87 533 42 554 0 c 1
 511 0 l 1
 495 44 481 85 470 181 c 0
 461 257 428 323 348 327 c 0
 327 328 304 328 288 328 c 2
 135 328 l 1
 135 0 l 1
 97 0 l 1
 97 690 l 1
 279 690 l 2
 314 690 344 689 376 685 c 0
 481 672 544 616 544 513 c 0
 544 424 488 363 407 346 c 1
 468 325 500 263 508 187 c 0
135 361 m 1
 289 361 l 2
 316 361 333 361 362 363 c 0
 448 370 503 426 503 510 c 0
 503 596 454 641 367 652 c 0
 339 656 314 657 279 657 c 2
 135 657 l 1
 135 361 l 1
EndSplineSet
Position2: "'cpsp' Capital Spacing in Latin lookup 0 subtable" dx=5 dy=0 dh=10 dv=0
EndChar

StartChar: racute
Encoding: 341 341 191
Width: 275
GlyphClass: 2
Flags: MW
HStem: 0 21G<72 110 72 72> 507 20 518 20G<272 272> 521 20G<223.5 250> 580 110<125 226 125 226> 670 20G<185 226 226 226>
VStem: 72 38<0 292 420 527>
AnchorPoint: "Anchor-0" 91 0 basechar 0
LayerCount: 2
Fore
SplineSet
153 580 m 1x9a
 125 580 l 1
 185 690 l 1
 226 690 l 1
 153 580 l 1x9a
245 541 m 0
 255 541 264 540 272 538 c 1xa6
 272 507 l 1
 177 514 110 452 110 292 c 2
 110 0 l 1
 72 0 l 1
 72 527 l 1
 110 527 l 1xc6
 110 420 l 1
 138 484 l 1
 164 520 202 541 245 541 c 0
EndSplineSet
EndChar

StartChar: rcaron
Encoding: 345 345 192
Width: 275
GlyphClass: 2
Flags: MW
HStem: 0 21G<72 110 72 72> 507 20 518 20G<272 272> 521 20G<223.5 250> 580 24<127 143 143 143 143 159> 580 110<61 127 61 159>
VStem: 72 38<0 292 420 527>
AnchorPoint: "Anchor-0" 91 0 basechar 0
LayerCount: 2
Fore
SplineSet
127 580 m 1xc6
 61 690 l 1
 95 690 l 1x96
 143 604 l 1xca
 191 690 l 1
 224 690 l 1
 159 580 l 1
 127 580 l 1xc6
245 541 m 0
 255 541 264 540 272 538 c 1xa6
 272 507 l 1
 177 514 110 452 110 292 c 2
 110 0 l 1
 72 0 l 1
 72 527 l 1
 110 527 l 1xc6
 110 420 l 1
 138 484 l 1
 164 520 202 541 245 541 c 0
EndSplineSet
EndChar

StartChar: Sacute
Encoding: 346 346 81
Width: 566
GlyphClass: 2
Flags: MW
HStem: -14 33<239 344.5 239 356> 671 33<247 336.5> 736 94<269 363 269 363>
VStem: 74 41<485.5 578.5 485.5 578.5> 477 41<122 213.5>
AnchorPoint: "Anchor-0" 286 0 basechar 0
LayerCount: 2
Fore
SplineSet
297 736 m 1
 269 736 l 1
 322 830 l 1
 363 830 l 1
 297 736 l 1
292 704 m 0
 424 704 495 617 508 510 c 1
 468 510 l 1
 453 612 384 671 289 671 c 0
 205 671 115 625 115 532 c 0
 115 439 172 408 302 372 c 0
 447 333 518 282 518 172 c 0
 518 65 421 -14 291 -14 c 0
 162 -14 57 51 42 184 c 1
 82 184 l 1
 97 77 186 19 292 19 c 0
 397 19 477 78 477 166 c 0
 477 261 421 299 286 336 c 0
 144 374 74 418 74 526 c 0
 74 631 174 704 292 704 c 0
EndSplineSet
Position2: "'cpsp' Capital Spacing in Latin lookup 0 subtable" dx=5 dy=0 dh=10 dv=0
EndChar

StartChar: Scedilla
Encoding: 350 350 83
Width: 566
GlyphClass: 2
Flags: MW
HStem: -210 26<246 279 246 283.5> -71 23 -13 32<263 263> 671 33<247 336.5>
VStem: 74 41<485.5 578.5 485.5 578.5> 331 31<-146 -108> 477 41<122 213.5>
AnchorPoint: "Anchor-0" 286 0 basechar 0
LayerCount: 2
Fore
SplineSet
518 172 m 0
 518 66 423 -13 294 -14 c 1
 276 -48 l 1
 330 -54 362 -78 362 -127 c 0
 362 -184 311 -210 256 -210 c 0
 235 -210 218 -207 204 -200 c 1
 204 -173 l 1
 219 -181 235 -184 257 -184 c 0
 301 -184 331 -165 331 -127 c 0
 331 -89 301 -68 233 -71 c 1
 263 -13 l 1
 147 -4 56 61 42 184 c 1
 82 184 l 1
 97 77 186 19 292 19 c 0
 397 19 477 78 477 166 c 0
 477 261 421 299 286 336 c 0
 144 374 74 418 74 526 c 0
 74 631 174 704 292 704 c 0
 424 704 495 617 508 510 c 1
 468 510 l 1
 453 612 384 671 289 671 c 0
 205 671 115 625 115 532 c 0
 115 439 172 408 302 372 c 0
 447 333 518 282 518 172 c 0
EndSplineSet
Substitution2: "'locl' Localized Forms in Latin lookup 2 subtable" Scommaaccent
Substitution2: "'locl' Localized Forms in Latin lookup 1 subtable" Scommaaccent
Substitution2: "'aalt' Access All Alternates in Latin lookup 0 subtable" Scommaaccent
Position2: "'cpsp' Capital Spacing in Latin lookup 0 subtable" dx=5 dy=0 dh=10 dv=0
EndChar

StartChar: scedilla
Encoding: 351 351 197
Width: 441
GlyphClass: 2
Flags: MW
HStem: -210 26<187 220 187 224.5> -71 23 -13 31<204 204> 509 32<181 256>
VStem: 26 39<156 156> 50 39<364.5 433.5 364.5 438.5> 272 31<-146 -108> 367 39<90 158.5>
AnchorPoint: "Anchor-0" 227 0 basechar 0
LayerCount: 2
Fore
SplineSet
406 127 m 0xb7
 406 42 334 -10 235 -14 c 1
 217 -48 l 1
 271 -54 303 -78 303 -127 c 0
 303 -184 252 -210 197 -210 c 0
 176 -210 159 -207 145 -200 c 1
 145 -173 l 1
 160 -181 176 -184 198 -184 c 0
 242 -184 272 -165 272 -127 c 0
 272 -89 242 -68 174 -71 c 1
 204 -13 l 1
 112 -7 38 44 26 156 c 1
 65 156 l 1xfb
 81 54 146 18 227 18 c 0
 303 18 367 55 367 125 c 0
 367 192 326 222 209 250 c 0
 123 271 50 306 50 396 c 0
 50 481 119 541 218 541 c 0
 330 541 387 472 401 382 c 1
 362 382 l 1
 342 467 296 509 216 509 c 0
 146 509 89 468 89 399 c 0
 89 330 144 303 225 284 c 0
 346 256 406 216 406 127 c 0xb7
EndSplineSet
Substitution2: "'locl' Localized Forms in Latin lookup 2 subtable" scommaaccent
Substitution2: "'locl' Localized Forms in Latin lookup 1 subtable" scommaaccent
Substitution2: "'aalt' Access All Alternates in Latin lookup 0 subtable" scommaaccent
EndChar

StartChar: Scaron
Encoding: 352 352 82
Width: 566
GlyphClass: 2
Flags: MW
HStem: -14 33<239 344.5 239 356> 671 33<247 336.5> 736 20<271 287 287 287 287 303>
VStem: 74 41<485.5 578.5 485.5 578.5> 477 41<122 213.5>
AnchorPoint: "Anchor-0" 286 0 basechar 0
LayerCount: 2
Fore
SplineSet
271 736 m 1
 205 830 l 1
 240 830 l 1
 287 756 l 1
 334 830 l 1
 368 830 l 1
 303 736 l 1
 271 736 l 1
302 372 m 0
 447 333 518 282 518 172 c 0
 518 65 421 -14 291 -14 c 0
 162 -14 57 51 42 184 c 1
 82 184 l 1
 97 77 186 19 292 19 c 0
 397 19 477 78 477 166 c 0
 477 261 421 299 286 336 c 0
 144 374 74 418 74 526 c 0
 74 631 174 704 292 704 c 0
 424 704 495 617 508 510 c 1
 468 510 l 1
 453 612 384 671 289 671 c 0
 205 671 115 625 115 532 c 0
 115 439 172 408 302 372 c 0
EndSplineSet
Position2: "'cpsp' Capital Spacing in Latin lookup 0 subtable" dx=5 dy=0 dh=10 dv=0
EndChar

StartChar: scaron
Encoding: 353 353 196
Width: 441
GlyphClass: 2
Flags: MW
HStem: -14 32<186.5 265 186.5 276.5> 509 32<181 256> 580 24<203 219 219 219 219 235> 580 110<137 203 137 235>
VStem: 26 39<156 156> 50 39<364.5 433.5 364.5 438.5> 367 39<90 158.5>
AnchorPoint: "Anchor-0" 227 0 basechar 0
LayerCount: 2
Fore
SplineSet
203 580 m 1xd6
 137 690 l 1
 171 690 l 1xd6
 219 604 l 1xe6
 267 690 l 1
 300 690 l 1
 235 580 l 1
 203 580 l 1xd6
225 284 m 0
 346 256 406 216 406 127 c 0
 406 39 329 -14 224 -14 c 0
 123 -14 39 36 26 156 c 1
 65 156 l 1xda
 81 54 146 18 227 18 c 0
 303 18 367 55 367 125 c 0
 367 192 326 222 209 250 c 0
 123 271 50 306 50 396 c 0
 50 481 119 541 218 541 c 0
 330 541 387 472 401 382 c 1
 362 382 l 1
 342 467 296 509 216 509 c 0
 146 509 89 468 89 399 c 0
 89 330 144 303 225 284 c 0
EndSplineSet
EndChar

StartChar: Tcedilla
Encoding: 354 354 88
Width: 588
GlyphClass: 2
Flags: MW
HStem: -210 26<271 304 271 308.5> -71 23 0 21G<292 295 292 292 327 330 327 327> 658 32<33 292 33 590 330 590 330 330>
VStem: 292 38<0 6 8 658> 356 31<-146 -108>
AnchorPoint: "Anchor-0" 311 0 basechar 0
LayerCount: 2
Fore
SplineSet
330 658 m 1
 330 8 l 1
 331 8 l 1
 330 6 l 1
 330 0 l 1
 327 0 l 1xb8
 301 -48 l 1
 355 -54 387 -78 387 -127 c 0
 387 -184 336 -210 281 -210 c 0
 260 -210 243 -207 229 -200 c 1
 229 -173 l 1
 244 -181 260 -184 282 -184 c 0
 326 -184 356 -165 356 -127 c 0
 356 -89 326 -68 258 -71 c 1xfc
 295 0 l 1
 292 0 l 1
 292 658 l 1
 33 658 l 1
 33 690 l 1
 590 690 l 1
 590 658 l 1
 330 658 l 1
EndSplineSet
Substitution2: "'locl' Localized Forms in Latin lookup 2 subtable" uni021A
Substitution2: "'locl' Localized Forms in Latin lookup 1 subtable" uni021A
Substitution2: "'aalt' Access All Alternates in Latin lookup 0 subtable" uni021A
Position2: "'cpsp' Capital Spacing in Latin lookup 0 subtable" dx=5 dy=0 dh=10 dv=0
EndChar

StartChar: Tcaron
Encoding: 356 356 87
Width: 588
GlyphClass: 2
Flags: MW
HStem: 0 21G<292 330 292 292> 658 32<33 292 33 590 330 590 330 330> 658 172<230 265 230 292 359 393 230 590 230 330> 736 20<296 312 312 312 312 328>
VStem: 292 38<0 658 0 658>
AnchorPoint: "Anchor-0" 311 0 basechar 0
LayerCount: 2
Fore
SplineSet
296 736 m 1xd8
 230 830 l 1
 265 830 l 1xa8
 312 756 l 1xd8
 359 830 l 1
 393 830 l 1xa8
 328 736 l 1
 296 736 l 1xd8
590 658 m 1xd8
 330 658 l 1
 330 0 l 1
 292 0 l 1
 292 658 l 1
 33 658 l 1
 33 690 l 1
 590 690 l 1
 590 658 l 1xd8
EndSplineSet
Position2: "'cpsp' Capital Spacing in Latin lookup 0 subtable" dx=5 dy=0 dh=10 dv=0
EndChar

StartChar: Tbar
Encoding: 358 358 86
Width: 588
GlyphClass: 2
Flags: MW
HStem: 0 21G<292 330 292 292> 319 29<156 292 156 292 330 466> 658 32<33 292 33 590 330 590 330 330>
VStem: 292 38<0 319 0 319 348 658>
AnchorPoint: "Anchor-0" 311 0 basechar 0
LayerCount: 2
Fore
SplineSet
330 658 m 1
 330 348 l 1
 466 348 l 1
 466 319 l 1
 330 319 l 1
 330 0 l 1
 292 0 l 1
 292 319 l 1
 156 319 l 1
 156 348 l 1
 292 348 l 1
 292 658 l 1
 33 658 l 1
 33 690 l 1
 590 690 l 1
 590 658 l 1
 330 658 l 1
EndSplineSet
Position2: "'cpsp' Capital Spacing in Latin lookup 0 subtable" dx=5 dy=0 dh=10 dv=0
EndChar

StartChar: tbar
Encoding: 359 359 201
Width: 255
GlyphClass: 2
Flags: MW
HStem: -7 29.8 321 29<32 91 32 91 129 197> 493 30<26 91 26 91 129 231>
VStem: 91 38<137 321 350 493 523 635>
AnchorPoint: "Anchor-0" 161 0 basechar 0
LayerCount: 2
Fore
SplineSet
130 82 m 0
 134 30 157 15 232 26 c 1
 232 -4 l 1
 216 -6 195 -7 176 -7 c 0
 124 -7 97 16 93 67 c 0
 91 89 91 107 91 137 c 2
 91 321 l 1
 32 321 l 1
 32 350 l 1
 91 350 l 1
 91 493 l 1
 26 493 l 1
 26 523 l 1
 91 523 l 1
 91 635 l 1
 129 635 l 1
 129 523 l 1
 231 523 l 1
 231 493 l 1
 129 493 l 1
 129 350 l 1
 197 350 l 1
 197 321 l 1
 129 321 l 1
 129 135 l 2
 129 109 129 96 130 82 c 0
EndSplineSet
EndChar

StartChar: umacron
Encoding: 363 363 211
Width: 543
GlyphClass: 2
Flags: MW
HStem: -14 33<208.5 281> 0 21G<432 470 432 432> 507 20G<63 101 101 101 432 470 470 470> 616 29<184 349 184 349>
VStem: 63 38<229 239 239 527> 184 165<616 645 616 645> 432 38<0 113 113 113 235 527 0 527>
LayerCount: 2
Fore
SplineSet
349 616 m 1xbe
 184 616 l 1
 184 645 l 1
 349 645 l 1
 349 616 l 1xbe
470 527 m 1
 470 0 l 1
 432 0 l 1x7e
 432 113 l 1
 408 58 l 1
 367 9 312 -14 250 -14 c 0
 143 -14 79 46 67 141 c 0
 64 168 63 186 63 229 c 2
 63 527 l 1
 101 527 l 1
 101 239 l 2
 101 207 102 183 105 156 c 0
 115 74 162 19 255 19 c 0
 348 19 432 85 432 235 c 2
 432 527 l 1
 470 527 l 1
EndSplineSet
EndChar

StartChar: Uring
Encoding: 366 366 98
Width: 621
GlyphClass: 2
Flags: MW
HStem: -14 33<260 384.5 260 395> 670 20G<91 129 129 129 516 554 554 554> 721 24<309.5 334.5 309.5 341.5> 827 25<309.5 334.5>
VStem: 91 38<239 690> 252 31<774.5 797.5 774.5 806> 362 30<774.5 797.5> 516 38<238 239 239 690>
LayerCount: 2
Fore
SplineSet
322 852 m 0
 361 852 392 826 392 786 c 0
 392 746 361 721 322 721 c 0
 283 721 252 746 252 786 c 0
 252 826 283 852 322 852 c 0
322 827 m 0
 297 827 283 809 283 786 c 0
 283 763 297 745 322 745 c 0
 347 745 362 763 362 786 c 0
 362 809 347 827 322 827 c 0
554 690 m 1
 554 239 l 2
 554 222 553 201 551 173 c 0
 543 65 468 -14 322 -14 c 0
 177 -14 102 65 94 173 c 0
 92 201 91 222 91 239 c 2
 91 690 l 1
 129 690 l 1
 129 238 l 2
 129 215 130 196 132 176 c 0
 140 89 198 19 322 19 c 0
 447 19 505 89 513 176 c 0
 515 196 516 215 516 238 c 2
 516 690 l 1
 554 690 l 1
EndSplineSet
Position2: "'cpsp' Capital Spacing in Latin lookup 0 subtable" dx=5 dy=0 dh=10 dv=0
EndChar

StartChar: uring
Encoding: 367 367 213
Width: 543
GlyphClass: 2
Flags: MW
HStem: -14 33<208.5 281> 0 21G<432 470 432 432> 507 20G<63 101 101 101 432 470 470 470> 570 25<253.5 278.5 253.5 285.5> 681 24<253.5 278.5>
VStem: 63 38<229 239 239 527> 197 30<626 650 626 658.5> 306 29<626 650> 432 38<0 113 113 113 235 527 0 527>
LayerCount: 2
Fore
SplineSet
266 570 m 0xbf80
 227 570 197 597 197 638 c 0
 197 679 227 705 266 705 c 0
 305 705 335 679 335 638 c 0
 335 597 305 570 266 570 c 0xbf80
266 681 m 0
 241 681 227 662 227 638 c 0
 227 614 241 595 266 595 c 0
 291 595 306 614 306 638 c 0
 306 662 291 681 266 681 c 0
470 527 m 1
 470 0 l 1
 432 0 l 1x7f80
 432 113 l 1
 408 58 l 1
 367 9 312 -14 250 -14 c 0
 143 -14 79 46 67 141 c 0
 64 168 63 186 63 229 c 2
 63 527 l 1
 101 527 l 1
 101 239 l 2
 101 207 102 183 105 156 c 0
 115 74 162 19 255 19 c 0
 348 19 432 85 432 235 c 2
 432 527 l 1
 470 527 l 1
EndSplineSet
EndChar

StartChar: uhungarumlaut
Encoding: 369 369 210
Width: 543
GlyphClass: 2
Flags: MW
HStem: -14 33<208.5 281> 0 21G<432 470 432 432> 507 20G<63 101 101 101 432 470 470 470> 580 110<196 297 196 297 256 301 256 329>
VStem: 63 38<229 239 239 527> 432 38<0 113 113 113 235 527 0 527>
LayerCount: 2
Fore
SplineSet
224 580 m 1xbc
 196 580 l 1
 256 690 l 1
 297 690 l 1
 224 580 l 1xbc
329 580 m 1
 301 580 l 1
 361 690 l 1
 402 690 l 1
 329 580 l 1
470 527 m 1
 470 0 l 1
 432 0 l 1x7c
 432 113 l 1
 408 58 l 1
 367 9 312 -14 250 -14 c 0
 143 -14 79 46 67 141 c 0
 64 168 63 186 63 229 c 2
 63 527 l 1
 101 527 l 1
 101 239 l 2
 101 207 102 183 105 156 c 0
 115 74 162 19 255 19 c 0
 348 19 432 85 432 235 c 2
 432 527 l 1
 470 527 l 1
EndSplineSet
EndChar

StartChar: Uogonek
Encoding: 370 370 97
Width: 621
GlyphClass: 2
Flags: MW
HStem: -223 28<337.5 354.5> -14 33<260 322> 670 20G<91 129 129 129 516 554 554 554>
VStem: 91 38<239 690> 269 37<-161.5 -122> 516 38<238 239 239 690>
LayerCount: 2
Fore
SplineSet
554 690 m 1
 554 239 l 2
 554 222 553 201 551 173 c 0
 545 92 501 28 419 0 c 1
 355 -25 306 -77 306 -143 c 0
 306 -180 324 -195 351 -195 c 0
 373 -195 393 -186 414 -166 c 1
 414 -196 l 1
 393 -214 369 -223 340 -223 c 0
 302 -223 269 -206 269 -150 c 0
 269 -94 299 -46 346 -13 c 1
 322 -14 l 1
 177 -14 102 65 94 173 c 0
 92 201 91 222 91 239 c 2
 91 690 l 1
 129 690 l 1
 129 238 l 2
 129 215 130 196 132 176 c 0
 140 89 198 19 322 19 c 0
 447 19 505 89 513 176 c 0
 515 196 516 215 516 238 c 2
 516 690 l 1
 554 690 l 1
EndSplineSet
Position2: "'cpsp' Capital Spacing in Latin lookup 0 subtable" dx=5 dy=0 dh=10 dv=0
EndChar

StartChar: uogonek
Encoding: 371 371 212
Width: 543
GlyphClass: 2
Flags: MW
HStem: -223 28<374.5 391.5> -14 33<208.5 281> 0 13 507 20G<63 101 101 101 432 470 470 470>
VStem: 63 38<229 239 239 527> 306 37<-161.5 -113> 432 38<13 113 113 113 235 527 0 527>
LayerCount: 2
Fore
SplineSet
470 527 m 1xde
 470 0 l 1
 458 0 l 1
 391 -17 343 -77 343 -143 c 0
 343 -180 361 -195 388 -195 c 0
 410 -195 430 -186 451 -166 c 1
 451 -196 l 1
 430 -214 406 -223 377 -223 c 0
 339 -223 306 -206 306 -150 c 0
 306 -76 358 -11 432 13 c 1
 432 113 l 1xbe
 408 58 l 1
 367 9 312 -14 250 -14 c 0
 143 -14 79 46 67 141 c 0
 64 168 63 186 63 229 c 2
 63 527 l 1
 101 527 l 1
 101 239 l 2
 101 207 102 183 105 156 c 0
 115 74 162 19 255 19 c 0
 348 19 432 85 432 235 c 2
 432 527 l 1
 470 527 l 1xde
EndSplineSet
EndChar

StartChar: Wcircumflex
Encoding: 372 372 102
Width: 855
GlyphClass: 2
Flags: MW
HStem: 0 36<229 229 229 252 201 229> 643 37<441 441> 670 20G<26 68 68 68 817 856 856 856> 810 20<434 434>
VStem: 26 830<690 690>
LayerCount: 2
Fore
SplineSet
387 736 m 1xb8
 353 736 l 1
 419 830 l 1
 451 830 l 1
 516 736 l 1
 481 736 l 1
 434 810 l 1
 387 736 l 1xb8
856 690 m 1
 668 0 l 1
 619 0 l 1
 441 643 l 1xd8
 252 0 l 1
 201 0 l 1
 26 690 l 1
 68 690 l 1xb8
 229 36 l 1
 416 680 l 1
 468 680 l 1xd8
 645 37 l 1
 817 690 l 1
 856 690 l 1
EndSplineSet
Position2: "'cpsp' Capital Spacing in Latin lookup 0 subtable" dx=5 dy=0 dh=10 dv=0
EndChar

StartChar: wcircumflex
Encoding: 373 373 217
Width: 733
GlyphClass: 2
Flags: MW
HStem: 0 37<204 204 204 229 178 204> 487 39<371 371> 580 110<289 387 289 387 355 418 355 452> 666 24<370 370>
VStem: 10 716<527 527>
LayerCount: 2
Fore
SplineSet
322 580 m 1xe8
 289 580 l 1xe8
 355 690 l 1
 387 690 l 1xd8
 452 580 l 1
 418 580 l 1xe8
 370 666 l 1xd8
 322 580 l 1xe8
726 527 m 1
 559 0 l 1
 513 0 l 1
 371 487 l 1
 229 0 l 1
 178 0 l 1
 10 527 l 1
 54 527 l 1
 204 37 l 1
 346 526 l 1
 396 526 l 1
 539 39 l 1
 685 527 l 1
 726 527 l 1
EndSplineSet
EndChar

StartChar: Ycircumflex
Encoding: 374 374 108
Width: 554
GlyphClass: 2
Flags: MW
HStem: 0 21G<267 305 267 267> 670 20G<22 66 66 66 506 550 550 550> 810 20<286 286>
VStem: 267 38<0 280 0 280>
LayerCount: 2
Fore
SplineSet
239 736 m 1
 205 736 l 1
 271 830 l 1
 303 830 l 1
 368 736 l 1
 333 736 l 1
 286 810 l 1
 239 736 l 1
305 280 m 1
 305 0 l 1
 267 0 l 1
 267 280 l 1
 22 690 l 1
 66 690 l 1
 288 318 l 1
 506 690 l 1
 550 690 l 1
 305 280 l 1
EndSplineSet
Position2: "'cpsp' Capital Spacing in Latin lookup 0 subtable" dx=5 dy=0 dh=10 dv=0
EndChar

StartChar: ycircumflex
Encoding: 375 375 223
Width: 471
GlyphClass: 2
Flags: MW
HStem: -210 33<76 103.5 76 114.5> 507 20G<10 53 53 53 421 464 464 464> 580 110<156 254 156 254 222 285 222 319> 666 24<237 237>
VStem: 10 454<527 527>
LayerCount: 2
Fore
SplineSet
189 580 m 1xe8
 156 580 l 1xe8
 222 690 l 1
 254 690 l 1xd8
 319 580 l 1
 285 580 l 1xe8
 237 666 l 1xd8
 189 580 l 1xe8
464 527 m 1
 257 -11 l 2
 193 -178 147 -210 82 -210 c 0
 67 -210 56 -209 45 -207 c 1
 45 -174 l 1
 58 -177 70 -177 82 -177 c 0
 125 -177 162 -151 203 -51 c 1
 218 -13 l 1
 10 527 l 1
 53 527 l 1
 237 30 l 1
 421 527 l 1
 464 527 l 1
EndSplineSet
EndChar

StartChar: Ydieresis
Encoding: 376 376 109
Width: 554
GlyphClass: 2
Flags: MW
HStem: 0 21G<267 305 267 267> 670 20G<22 66 66 66 506 550 550 550> 757 53<235 249.5 322.5 337>
VStem: 216 53<776 790.5> 267 38<0 280 0 280> 303 53<776 790.5>
LayerCount: 2
Fore
SplineSet
242 757 m 0xf4
 228 757 216 769 216 783 c 0
 216 798 228 810 242 810 c 0
 257 810 269 798 269 783 c 0
 269 769 257 757 242 757 c 0xf4
330 757 m 0
 315 757 303 769 303 783 c 0
 303 798 315 810 330 810 c 0
 344 810 356 798 356 783 c 0
 356 769 344 757 330 757 c 0
305 280 m 1xe8
 305 0 l 1
 267 0 l 1
 267 280 l 1
 22 690 l 1
 66 690 l 1
 288 318 l 1
 506 690 l 1
 550 690 l 1
 305 280 l 1xe8
EndSplineSet
Position2: "'cpsp' Capital Spacing in Latin lookup 0 subtable" dx=5 dy=0 dh=10 dv=0
EndChar

StartChar: Zacute
Encoding: 377 377 112
Width: 551
GlyphClass: 2
Flags: MW
HStem: 0 33<85 526 85 526> 657 33<67 476 67 520> 657 173<318 359 318 476>
VStem: 39 487<0 29 29 29>
LayerCount: 2
Fore
SplineSet
293 736 m 1xb0
 265 736 l 1
 318 830 l 1
 359 830 l 1
 293 736 l 1xb0
526 33 m 1
 526 0 l 1
 39 0 l 1
 39 29 l 1
 476 657 l 1
 67 657 l 1
 67 690 l 1
 520 690 l 1
 520 658 l 1xd0
 85 33 l 1
 526 33 l 1
EndSplineSet
Position2: "'cpsp' Capital Spacing in Latin lookup 0 subtable" dx=5 dy=0 dh=10 dv=0
EndChar

StartChar: zacute
Encoding: 378 378 227
Width: 449
GlyphClass: 2
Flags: MW
HStem: 0 31<61 425 61 425> 487 33<41 374 41 421> 487 203<267 308 267 374> 580 110<207 308 207 308>
VStem: 15 410<0 30 30 30>
LayerCount: 2
Fore
SplineSet
235 580 m 1xd8
 207 580 l 1xd8
 267 690 l 1
 308 690 l 1xa8
 235 580 l 1xd8
425 31 m 1
 425 0 l 1
 15 0 l 1
 15 30 l 1
 374 487 l 1
 41 487 l 1
 41 520 l 1
 421 520 l 1
 421 488 l 1
 61 31 l 1
 425 31 l 1
EndSplineSet
EndChar

StartChar: Zdotaccent
Encoding: 379 379 114
Width: 551
GlyphClass: 2
Flags: MW
HStem: 0 33<85 526 85 526> 657 33<67 476 67 520> 757 53<275 289.5>
VStem: 256 53<776 790.5>
LayerCount: 2
Fore
SplineSet
282 757 m 0
 268 757 256 769 256 783 c 0
 256 798 268 810 282 810 c 0
 297 810 309 798 309 783 c 0
 309 769 297 757 282 757 c 0
526 33 m 1
 526 0 l 1
 39 0 l 1
 39 29 l 1
 476 657 l 1
 67 657 l 1
 67 690 l 1
 520 690 l 1
 520 658 l 1
 85 33 l 1
 526 33 l 1
EndSplineSet
Position2: "'cpsp' Capital Spacing in Latin lookup 0 subtable" dx=5 dy=0 dh=10 dv=0
EndChar

StartChar: zdotaccent
Encoding: 380 380 229
Width: 449
GlyphClass: 2
Flags: MW
HStem: 0 31<61 425 61 425> 487 33<41 374 41 421> 608 58<216 232>
VStem: 195 58<629 645>
LayerCount: 2
Fore
SplineSet
224 608 m 0
 208 608 195 621 195 637 c 0
 195 653 208 666 224 666 c 0
 240 666 253 653 253 637 c 0
 253 621 240 608 224 608 c 0
425 31 m 1
 425 0 l 1
 15 0 l 1
 15 30 l 1
 374 487 l 1
 41 487 l 1
 41 520 l 1
 421 520 l 1
 421 488 l 1
 61 31 l 1
 425 31 l 1
EndSplineSet
EndChar

StartChar: Zcaron
Encoding: 381 381 113
Width: 551
GlyphClass: 2
Flags: MW
HStem: 0 33<85 526 85 526> 657 33<67 476 67 520> 657 173<201 236 330 364 201 476 67 236> 736 20<267 283 283 283 283 299>
VStem: 39 487<0 29 29 29>
LayerCount: 2
Fore
SplineSet
267 736 m 1xd8
 201 830 l 1
 236 830 l 1xa8
 283 756 l 1xd8
 330 830 l 1
 364 830 l 1xa8
 299 736 l 1
 267 736 l 1xd8
526 33 m 1
 526 0 l 1
 39 0 l 1
 39 29 l 1
 476 657 l 1
 67 657 l 1
 67 690 l 1
 520 690 l 1
 520 658 l 1xd8
 85 33 l 1
 526 33 l 1
EndSplineSet
Position2: "'cpsp' Capital Spacing in Latin lookup 0 subtable" dx=5 dy=0 dh=10 dv=0
EndChar

StartChar: zcaron
Encoding: 382 382 228
Width: 449
GlyphClass: 2
Flags: MW
HStem: 0 31<61 425 61 425> 487 33<41 374 41 421> 487 203<143 177 273 306 143 374 41 177> 580 24<209 225 225 225 225 241> 580 110<143 209 143 241>
VStem: 15 410<0 30 30 30>
LayerCount: 2
Fore
SplineSet
209 580 m 1xcc
 143 690 l 1
 177 690 l 1xa4
 225 604 l 1xd4
 273 690 l 1
 306 690 l 1xa4
 241 580 l 1
 209 580 l 1xcc
425 31 m 1
 425 0 l 1
 15 0 l 1
 15 30 l 1
 374 487 l 1
 41 487 l 1
 41 520 l 1
 421 520 l 1
 421 488 l 1xcc
 61 31 l 1
 425 31 l 1
EndSplineSet
EndChar

StartChar: scommaaccent
Encoding: 537 537 198
Width: 441
GlyphClass: 2
Flags: MW
HStem: -179 128<166 247 166 247> -14 32<186.5 265 186.5 276.5> 509 32<181 256>
VStem: 26 39<156 156> 50 39<364.5 433.5 364.5 438.5> 367 39<90 158.5>
AnchorPoint: "Anchor-0" 227 0 basechar 0
LayerCount: 2
Fore
SplineSet
218 541 m 0x6c
 330 541 387 472 401 382 c 1
 362 382 l 1
 342 467 296 509 216 509 c 0
 146 509 89 468 89 399 c 0x6c
 89 330 144 303 225 284 c 0
 346 256 406 216 406 127 c 0
 406 39 329 -14 224 -14 c 0
 123 -14 39 36 26 156 c 1
 65 156 l 1x74
 81 54 146 18 227 18 c 0
 303 18 367 55 367 125 c 0
 367 192 326 222 209 250 c 0
 123 271 50 306 50 396 c 0
 50 481 119 541 218 541 c 0x6c
247 -58 m 1xec
 195 -179 l 1
 166 -179 l 1
 211 -51 l 1
 247 -51 l 1
 247 -58 l 1xec
EndSplineSet
EndChar

StartChar: circumflex
Encoding: 710 710 328
Width: 300
Flags: MW
HStem: 580 110<69 167 69 167 135 232 135 198> 666 24<150 150>
VStem: 69 163<580 580>
LayerCount: 2
Fore
SplineSet
198 580 m 1xa0
 150 666 l 1x60
 102 580 l 1
 69 580 l 1xa0
 135 690 l 1
 167 690 l 1x60
 232 580 l 1
 198 580 l 1xa0
EndSplineSet
EndChar

StartChar: caron
Encoding: 711 711 326
Width: 300
Flags: MW
HStem: 580 24<151 151 151 167 135 151> 580 110<69 167 69 135>
VStem: 69 163<690 690>
LayerCount: 2
Fore
SplineSet
232 690 m 1x60
 167 580 l 1
 135 580 l 1
 69 690 l 1
 103 690 l 1x60
 151 604 l 1xa0
 199 690 l 1
 232 690 l 1x60
EndSplineSet
EndChar

StartChar: breve
Encoding: 728 728 325
Width: 300
Flags: MW
HStem: 569 30<129 171 129 182> 670 20G<56 83 83 83 216 243 243 243>
VStem: 56 27<652.5 690> 216 27<652.5 690>
LayerCount: 2
Fore
SplineSet
216 690 m 1
 243 690 l 1
 243 615 214 569 150 569 c 0
 86 569 56 615 56 690 c 1
 83 690 l 1
 84 631 108 599 150 599 c 0
 192 599 215 631 216 690 c 1
EndSplineSet
EndChar

StartChar: dotaccent
Encoding: 729 729 330
Width: 300
Flags: MW
HStem: 608 58<142 158>
VStem: 121 58<629 645>
LayerCount: 2
Fore
SplineSet
150 666 m 0
 166 666 179 653 179 637 c 0
 179 621 166 608 150 608 c 0
 134 608 121 621 121 637 c 0
 121 653 134 666 150 666 c 0
EndSplineSet
EndChar

StartChar: ring
Encoding: 730 730 335
Width: 300
Flags: MW
HStem: 570 25<137.5 162.5 137.5 169.5> 681 24<137.5 162.5>
VStem: 81 30<626 650 626 658.5> 190 29<626 650>
LayerCount: 2
Fore
SplineSet
150 705 m 0
 189 705 219 679 219 638 c 0
 219 597 189 570 150 570 c 0
 111 570 81 597 81 638 c 0
 81 679 111 705 150 705 c 0
150 681 m 0
 125 681 111 662 111 638 c 0
 111 614 125 595 150 595 c 0
 175 595 190 614 190 638 c 0
 190 662 175 681 150 681 c 0
EndSplineSet
EndChar

StartChar: ogonek
Encoding: 731 731 334
Width: 300
Flags: MW
HStem: -223 28<92.5 109.5> 0 21G<176 176>
VStem: 24 37<-161.5 -113>
LayerCount: 2
Fore
SplineSet
150 13 m 1
 176 0 l 1
 109 -17 61 -77 61 -143 c 0
 61 -180 79 -195 106 -195 c 0
 128 -195 148 -186 169 -166 c 1
 169 -196 l 1
 148 -214 124 -223 95 -223 c 0
 57 -223 24 -206 24 -150 c 0
 24 -76 76 -11 150 13 c 1
EndSplineSet
EndChar

StartChar: tilde
Encoding: 732 732 336
Width: 300
Flags: MW
HStem: 619 27<197.5 207 197.5 216> 643 28<93 102.5>
VStem: 58 24<623 630.5 623 639.5> 218 25<659.5 667>
LayerCount: 2
Fore
SplineSet
98 671 m 0x70
 114 671 129 667 156 658 c 0
 180 650 193 646 202 646 c 0
 212 646 218 652 218 667 c 1
 243 667 l 1
 243 634 229 619 203 619 c 0xb0
 186 619 171 623 144 632 c 0
 120 640 107 643 98 643 c 0
 88 643 82 638 82 623 c 1
 58 623 l 1
 58 656 72 671 98 671 c 0x70
EndSplineSet
EndChar

StartChar: hungarumlaut
Encoding: 733 733 332
Width: 300
Flags: MW
HStem: 580 110<80 181 80 181 140 185 140 213>
VStem: 80 206<580 690>
LayerCount: 2
Fore
SplineSet
108 580 m 1
 80 580 l 1
 140 690 l 1
 181 690 l 1
 108 580 l 1
213 580 m 1
 185 580 l 1
 245 690 l 1
 286 690 l 1
 213 580 l 1
EndSplineSet
EndChar

StartChar: uni0326
Encoding: 806 806 337
Width: 0
GlyphClass: 4
Flags: MW
HStem: -179 128<90 171 90 171>
VStem: 90 81
AnchorPoint: "Anchor-0" 152 0 mark 0
LayerCount: 2
Fore
SplineSet
171 -58 m 1
 119 -179 l 1
 90 -179 l 1
 135 -51 l 1
 171 -51 l 1
 171 -58 l 1
EndSplineSet
EndChar

StartChar: Wgrave
Encoding: 7808 7808 104
Width: 855
GlyphClass: 2
Flags: MW
HStem: 0 36<229 229 229 252 201 229> 643 37<441 441> 670 20G<26 68 68 68 817 856 856 856> 736 94<355 421 355 449>
VStem: 26 830<690 690>
LayerCount: 2
Fore
SplineSet
421 736 m 1xb8
 355 830 l 1
 396 830 l 1
 449 736 l 1
 421 736 l 1xb8
856 690 m 1
 668 0 l 1
 619 0 l 1
 441 643 l 1xd8
 252 0 l 1
 201 0 l 1
 26 690 l 1
 68 690 l 1xb8
 229 36 l 1
 416 680 l 1
 468 680 l 1xd8
 645 37 l 1
 817 690 l 1
 856 690 l 1
EndSplineSet
Position2: "'cpsp' Capital Spacing in Latin lookup 0 subtable" dx=5 dy=0 dh=10 dv=0
EndChar

StartChar: Wacute
Encoding: 7810 7810 101
Width: 855
GlyphClass: 2
Flags: MW
HStem: 0 36<229 229 229 252 201 229> 643 37<441 441> 670 20G<26 68 68 68 817 856 856 856> 736 94<417 511 417 511>
VStem: 26 830<690 690>
LayerCount: 2
Fore
SplineSet
445 736 m 1xb8
 417 736 l 1
 470 830 l 1
 511 830 l 1
 445 736 l 1xb8
856 690 m 1
 668 0 l 1
 619 0 l 1
 441 643 l 1xd8
 252 0 l 1
 201 0 l 1
 26 690 l 1
 68 690 l 1xb8
 229 36 l 1
 416 680 l 1
 468 680 l 1xd8
 645 37 l 1
 817 690 l 1
 856 690 l 1
EndSplineSet
Position2: "'cpsp' Capital Spacing in Latin lookup 0 subtable" dx=5 dy=0 dh=10 dv=0
EndChar

StartChar: wacute
Encoding: 7811 7811 216
Width: 733
GlyphClass: 2
Flags: MW
HStem: 0 37<204 204 204 229 178 204> 487 39<371 371> 580 110<353 454 353 454>
VStem: 10 716<527 527>
LayerCount: 2
Fore
SplineSet
381 580 m 1
 353 580 l 1
 413 690 l 1
 454 690 l 1
 381 580 l 1
726 527 m 1
 559 0 l 1
 513 0 l 1
 371 487 l 1
 229 0 l 1
 178 0 l 1
 10 527 l 1
 54 527 l 1
 204 37 l 1
 346 526 l 1
 396 526 l 1
 539 39 l 1
 685 527 l 1
 726 527 l 1
EndSplineSet
EndChar

StartChar: Wdieresis
Encoding: 7812 7812 103
Width: 855
GlyphClass: 2
Flags: MW
HStem: 0 36<229 229 229 252 201 229> 643 37<441 441> 670 20G<26 68 68 68 817 856 856 856> 757 53<383 397.5 470.5 485>
VStem: 364 53<776 790.5> 451 53<776 790.5>
LayerCount: 2
Fore
SplineSet
390 757 m 0xbc
 376 757 364 769 364 783 c 0
 364 798 376 810 390 810 c 0
 405 810 417 798 417 783 c 0
 417 769 405 757 390 757 c 0xbc
478 757 m 0
 463 757 451 769 451 783 c 0
 451 798 463 810 478 810 c 0
 492 810 504 798 504 783 c 0
 504 769 492 757 478 757 c 0
856 690 m 1
 668 0 l 1
 619 0 l 1
 441 643 l 1xdc
 252 0 l 1
 201 0 l 1
 26 690 l 1
 68 690 l 1xbc
 229 36 l 1
 416 680 l 1
 468 680 l 1xdc
 645 37 l 1
 817 690 l 1
 856 690 l 1
EndSplineSet
Position2: "'cpsp' Capital Spacing in Latin lookup 0 subtable" dx=5 dy=0 dh=10 dv=0
EndChar

StartChar: wdieresis
Encoding: 7813 7813 218
Width: 733
GlyphClass: 2
Flags: MW
HStem: 0 37<204 204 204 229 178 204> 487 39<371 371> 606 53<314.5 329 411 425.5>
VStem: 295 53<625 639.5> 392 53<625 639.5>
LayerCount: 2
Fore
SplineSet
322 606 m 0
 307 606 295 618 295 632 c 0
 295 647 307 659 322 659 c 0
 336 659 348 647 348 632 c 0
 348 618 336 606 322 606 c 0
418 606 m 0
 404 606 392 618 392 632 c 0
 392 647 404 659 418 659 c 0
 433 659 445 647 445 632 c 0
 445 618 433 606 418 606 c 0
726 527 m 1
 559 0 l 1
 513 0 l 1
 371 487 l 1
 229 0 l 1
 178 0 l 1
 10 527 l 1
 54 527 l 1
 204 37 l 1
 346 526 l 1
 396 526 l 1
 539 39 l 1
 685 527 l 1
 726 527 l 1
EndSplineSet
EndChar

StartChar: Ygrave
Encoding: 7922 7922 110
Width: 554
GlyphClass: 2
Flags: MW
HStem: 0 21G<267 305 267 267> 670 20G<22 66 66 66 506 550 550 550> 736 94<207 273 207 301>
VStem: 267 38<0 280 0 280>
LayerCount: 2
Fore
SplineSet
273 736 m 1
 207 830 l 1
 248 830 l 1
 301 736 l 1
 273 736 l 1
305 280 m 1
 305 0 l 1
 267 0 l 1
 267 280 l 1
 22 690 l 1
 66 690 l 1
 288 318 l 1
 506 690 l 1
 550 690 l 1
 305 280 l 1
EndSplineSet
Position2: "'cpsp' Capital Spacing in Latin lookup 0 subtable" dx=5 dy=0 dh=10 dv=0
EndChar

StartChar: ygrave
Encoding: 7923 7923 225
Width: 471
GlyphClass: 2
Flags: MW
HStem: -210 33<76 103.5 76 114.5> 507 20G<10 53 53 53 421 464 464 464> 580 110<154 227 154 255>
VStem: 10 454<527 527>
LayerCount: 2
Fore
SplineSet
227 580 m 1
 154 690 l 1
 195 690 l 1
 255 580 l 1
 227 580 l 1
464 527 m 1
 257 -11 l 2
 193 -178 147 -210 82 -210 c 0
 67 -210 56 -209 45 -207 c 1
 45 -174 l 1
 58 -177 70 -177 82 -177 c 0
 125 -177 162 -151 203 -51 c 1
 218 -13 l 1
 10 527 l 1
 53 527 l 1
 237 30 l 1
 421 527 l 1
 464 527 l 1
EndSplineSet
EndChar

StartChar: endash
Encoding: 8211 8211 268
Width: 500
Flags: MW
HStem: 276 30<70 430 70 430>
VStem: 70 360<276 306 276 306>
LayerCount: 2
Fore
SplineSet
430 276 m 1
 70 276 l 1
 70 306 l 1
 430 306 l 1
 430 276 l 1
EndSplineSet
EndChar

StartChar: emdash
Encoding: 8212 8212 267
Width: 1000
Flags: MW
HStem: 276 30<70 930 70 930>
VStem: 70 860<276 306 276 306>
LayerCount: 2
Fore
SplineSet
930 276 m 1
 70 276 l 1
 70 306 l 1
 930 306 l 1
 930 276 l 1
EndSplineSet
EndChar

StartChar: quoteleft
Encoding: 8216 8216 277
Width: 147
Flags: MW
HStem: 715 20G<103 137 137 137>
VStem: 24 113
LayerCount: 2
Fore
SplineSet
24 496 m 1
 103 735 l 1
 137 735 l 1
 65 490 l 1
 25 490 l 1
 24 496 l 1
EndSplineSet
EndChar

StartChar: quoteright
Encoding: 8217 8217 278
Width: 147
Flags: MW
HStem: 715 20G<82 123 123 123>
VStem: 10 113
LayerCount: 2
Fore
SplineSet
123 729 m 1
 44 490 l 1
 10 490 l 1
 82 735 l 1
 123 735 l 1
 123 729 l 1
EndSplineSet
EndChar

StartChar: quotedblleft
Encoding: 8220 8220 275
Width: 257
Flags: MW
HStem: 716 20G<103 137 137 137 213 247 247 247>
VStem: 24 223
LayerCount: 2
Fore
SplineSet
24 496 m 1
 103 736 l 1
 137 736 l 1
 65 490 l 1
 25 490 l 1
 24 496 l 1
134 496 m 1
 213 736 l 1
 247 736 l 1
 175 490 l 1
 135 490 l 1
 134 496 l 1
EndSplineSet
EndChar

StartChar: quotedblright
Encoding: 8221 8221 276
Width: 257
Flags: MW
HStem: 715 20G<82 123 123 123 192 233 233 233>
VStem: 10 223
LayerCount: 2
Fore
SplineSet
123 729 m 1
 44 490 l 1
 10 490 l 1
 82 735 l 1
 123 735 l 1
 123 729 l 1
233 729 m 1
 154 490 l 1
 120 490 l 1
 192 735 l 1
 233 735 l 1
 233 729 l 1
EndSplineSet
EndChar

StartChar: quotedblbase
Encoding: 8222 8222 274
Width: 263
Flags: MW
HStem: -117 160<-9 85 -9 85 45 86 45 120>
VStem: -9 190<-117 37>
LayerCount: 2
Fore
SplineSet
86 37 m 1
 25 -117 l 1
 -9 -117 l 1
 45 43 l 1
 85 43 l 1
 86 37 l 1
181 37 m 1
 120 -117 l 1
 86 -117 l 1
 140 43 l 1
 180 43 l 1
 181 37 l 1
EndSplineSet
EndChar

StartChar: dagger
Encoding: 8224 8224 317
Width: 550
Flags: MW
HStem: 397.5 34 670 20G<253 298 298 298>
VStem: 255 41
LayerCount: 2
Fore
SplineSet
479 396 m 1
 294 399 l 1
 298 -160 l 1
 254 -160 l 1
 256 399 l 1
 71 396 l 1
 71 433 l 1
 256 430 l 1
 253 690 l 1
 298 690 l 1
 294 430 l 1
 479 433 l 1
 479 396 l 1
EndSplineSet
EndChar

StartChar: daggerdbl
Encoding: 8225 8225 318
Width: 550
Flags: MW
HStem: 97.5 34 397.5 34 670 20G<253 298 298 298>
VStem: 256 38<99 99 130 399>
LayerCount: 2
Fore
SplineSet
294 399 m 1
 294 130 l 1
 479 133 l 1
 479 96 l 1
 294 99 l 1
 298 -160 l 1
 254 -160 l 1
 256 99 l 1
 71 96 l 1
 71 133 l 1
 256 130 l 1
 256 399 l 1
 71 396 l 1
 71 433 l 1
 256 430 l 1
 253 690 l 1
 298 690 l 1
 294 430 l 1
 479 433 l 1
 479 396 l 1
 294 399 l 1
EndSplineSet
EndChar

StartChar: bullet
Encoding: 8226 8226 245
Width: 222
Flags: MW
HStem: 245 120<94 128>
VStem: 51 120<288 322>
LayerCount: 2
Fore
SplineSet
111 365 m 0
 145 365 171 339 171 305 c 0
 171 271 145 245 111 245 c 0
 77 245 51 271 51 305 c 0
 51 339 77 365 111 365 c 0
EndSplineSet
EndChar

StartChar: ellipsis
Encoding: 8230 8230 248
Width: 418
Flags: MW
HStem: -14 62<61.5 79 186.5 204 311.5 329>
VStem: 39 62<8 26> 164 62<8 26> 289 62<8 26>
LayerCount: 2
Fore
SplineSet
70 48 m 0
 88 48 101 35 101 17 c 0
 101 -1 88 -14 70 -14 c 0
 53 -14 39 -1 39 17 c 0
 39 35 53 48 70 48 c 0
195 48 m 0
 213 48 226 35 226 17 c 0
 226 -1 213 -14 195 -14 c 0
 178 -14 164 -1 164 17 c 0
 164 35 178 48 195 48 c 0
320 48 m 0
 338 48 351 35 351 17 c 0
 351 -1 338 -14 320 -14 c 0
 303 -14 289 -1 289 17 c 0
 289 35 303 48 320 48 c 0
EndSplineSet
EndChar

StartChar: perthousand
Encoding: 8240 8240 304
Width: 1024
Flags: MW
HStem: -14 31<482.5 543 482.5 554 797 857.5> 0 21G<111 152 111 111> 273 31<482.5 543 797 857.5> 385 31<166.5 227 166.5 238> 670 20G<558 599 599 599> 672 31<166.5 227>
VStem: 64 39<506 582.5 506 590> 291 39<506 582.5> 380 39<107 183.5 107 191> 607 39<107 183.5> 694 39<107 183.5 107 191> 921 39<107 183.5>
LayerCount: 2
Fore
SplineSet
330 544 m 0xb7f0
 330 454 279 385 197 385 c 0
 114 385 64 454 64 544 c 0
 64 636 114 703 197 703 c 0
 279 703 330 636 330 544 c 0xb7f0
599 690 m 1x5a40
 152 0 l 1
 111 0 l 1
 558 690 l 1
 599 690 l 1x5a40
103 544 m 0
 103 468 136 416 197 416 c 0
 257 416 291 468 291 544 c 0
 291 621 257 672 197 672 c 0x17
 136 672 103 621 103 544 c 0
513 304 m 0xa0f0
 595 304 646 237 646 145 c 0
 646 55 595 -14 513 -14 c 0
 430 -14 380 55 380 145 c 0
 380 237 430 304 513 304 c 0xa0f0
827 304 m 0
 910 304 960 237 960 145 c 0
 960 55 910 -14 827 -14 c 0
 745 -14 694 55 694 145 c 0
 694 237 745 304 827 304 c 0
513 17 m 0
 573 17 607 69 607 145 c 0
 607 222 573 273 513 273 c 0
 452 273 419 222 419 145 c 0
 419 69 452 17 513 17 c 0
827 17 m 0
 888 17 921 69 921 145 c 0
 921 222 888 273 827 273 c 0
 767 273 733 222 733 145 c 0
 733 69 767 17 827 17 c 0
EndSplineSet
EndChar

StartChar: guilsinglleft
Encoding: 8249 8249 272
Width: 383
Flags: MW
HStem: 82 332<271 311 271 311>
VStem: 134 177<82 248>
LayerCount: 2
Fore
SplineSet
311 414 m 1
 174 248 l 1
 311 82 l 1
 271 82 l 1
 134 248 l 1
 271 414 l 1
 311 414 l 1
EndSplineSet
EndChar

StartChar: guilsinglright
Encoding: 8250 8250 273
Width: 383
Flags: MW
HStem: 82 332<72 112 72 112>
VStem: 72 177<82 248 248 414>
LayerCount: 2
Fore
SplineSet
249 248 m 1
 112 82 l 1
 72 82 l 1
 209 248 l 1
 72 414 l 1
 112 414 l 1
 249 248 l 1
EndSplineSet
EndChar

StartChar: fraction
Encoding: 8260 8260 242
Width: 114
Flags: MW
HStem: 0 21G<-188 -146 -188 -188> 670 20G<260 301 301 301>
VStem: -188 489
LayerCount: 2
Fore
SplineSet
-146 0 m 1
 -188 0 l 1
 260 690 l 1
 301 690 l 1
 -146 0 l 1
EndSplineSet
EndChar

StartChar: Euro
Encoding: 8364 8364 284
Width: 543
Flags: MW
HStem: -14 33<282.5 368.5> 275 30<15 75 15 77 5 75 119 427 119 119> 385 30<38 75 28 78 119 460> 671 33<293.5 378>
VStem: 74 43<305 349.5>
LayerCount: 2
Fore
SplineSet
347 671 m 0
 240 671 139 603 119 415 c 1
 471 415 l 1
 460 385 l 1
 117 385 l 1
 116 372 116 359 116 346 c 0
 116 332 116 318 117 305 c 1
 436 305 l 1
 427 275 l 1
 119 275 l 1
 135 97 216 19 349 19 c 0
 401 19 447 31 491 59 c 1
 491 23 l 1
 442 -5 393 -14 344 -14 c 0
 188 -14 93 72 77 275 c 1
 5 275 l 1
 15 305 l 1
 75 305 l 1
 74 342 l 2
 74 357 74 371 75 385 c 1
 28 385 l 1
 38 415 l 1
 78 415 l 1
 99 611 207 704 349 704 c 0
 423 704 471 686 512 644 c 1
 491 617 l 1
 452 657 409 671 347 671 c 0
EndSplineSet
EndChar

StartChar: trademark
Encoding: 8482 8482 323
Width: 523
Flags: MW
HStem: 459 22<347 347 347 362 331 347> 636 24<23 105 23 215 134 215 134 134>
VStem: 105 29<456 636 456 636> 241 27.5 425 26
LayerCount: 2
Fore
SplineSet
215 660 m 1
 215 636 l 1
 134 636 l 1
 134 456 l 1
 105 456 l 1
 105 636 l 1
 23 636 l 1
 23 660 l 1
 215 660 l 1
451 659 m 1
 451 456 l 1
 424 456 l 1
 426 630 l 1
 362 459 l 1
 331 459 l 1
 268 629 l 1
 269 456 l 1
 241 456 l 1
 241 659 l 1
 283 659 l 1
 347 481 l 1
 411 659 l 1
 451 659 l 1
EndSplineSet
EndChar

StartChar: partialdiff
Encoding: 8706 8706 302
Width: 543
Flags: MW
HStem: -14 32<208.5 315 208.5 329.5> 434 32<218.5 308.5> 726 32<216.5 316>
VStem: 49 41<153.5 280.5 153.5 289.5> 440 41
LayerCount: 2
Fore
SplineSet
248 758 m 0
 430 758 481 563 481 330 c 0
 481 108 406 -14 253 -14 c 0
 135 -14 49 76 49 214 c 0
 49 365 139 466 275 466 c 0
 352 466 410 427 440 373 c 1
 435 564 387 726 245 726 c 0
 188 726 148 711 104 675 c 1
 85 700 l 1
 135 742 184 758 248 758 c 0
255 18 m 0
 375 18 437 115 440 324 c 1
 404 403 340 434 277 434 c 0
 160 434 90 344 90 217 c 0
 90 90 162 18 255 18 c 0
EndSplineSet
EndChar

StartChar: emptyset
Encoding: 8709 8709 290
Width: 838
Flags: MW
HStem: -20 31<374.5 511 374.5 520> -2 21G<84 84> 670 20G<776 776> 700 30<327 463.5>
VStem: 50 34<310.5 452.5> 754 34<257.5 399.5>
LayerCount: 2
Fore
SplineSet
776 690 m 1xbc
 693 607 l 1
 752 541 788 453 788 355 c 0
 788 143 621 -20 419 -20 c 0
 322 -20 233 18 166 80 c 1xbc
 84 -2 l 1
 62 20 l 1
 145 103 l 1
 86 169 50 257 50 355 c 0
 50 567 217 730 419 730 c 0
 516 730 605 692 672 630 c 1
 754 712 l 1x5c
 776 690 l 1xbc
84 355 m 0
 84 266 116 186 168 126 c 1
 649 607 l 1
 589 665 508 700 419 700 c 0x9c
 235 700 84 550 84 355 c 0
419 11 m 0
 603 11 754 160 754 355 c 0
 754 444 722 524 670 584 c 1
 189 103 l 1
 249 46 330 11 419 11 c 0
EndSplineSet
EndChar

StartChar: product
Encoding: 8719 8719 307
Width: 543
Flags: MW
HStem: 657 33<40 97 40 503 135 407 135 135 445 503 445 445>
VStem: 97 38<-110 657 -110 657> 407 38<-110 657 -110 657>
LayerCount: 2
Fore
SplineSet
503 657 m 1
 445 657 l 1
 445 -110 l 1
 407 -110 l 1
 407 657 l 1
 135 657 l 1
 135 -110 l 1
 97 -110 l 1
 97 657 l 1
 40 657 l 1
 40 690 l 1
 503 690 l 1
 503 657 l 1
EndSplineSet
EndChar

StartChar: summation
Encoding: 8721 8721 309
Width: 543
Flags: MW
HStem: -110 33<78 507 78 507> 657 33<108 501 108 108>
VStem: 33 474<-110 -78 -78 -78>
LayerCount: 2
Fore
SplineSet
507 -77 m 1
 507 -110 l 1
 33 -110 l 1
 33 -78 l 1
 317 301 l 1
 63 658 l 1
 63 690 l 1
 501 690 l 1
 501 657 l 1
 108 657 l 1
 363 300 l 1
 78 -77 l 1
 507 -77 l 1
EndSplineSet
EndChar

StartChar: minus
Encoding: 8722 8722 299
Width: 543
Flags: MW
HStem: 303 30<69 474 69 474>
VStem: 69 405<303 333 303 333>
LayerCount: 2
Fore
SplineSet
474 303 m 1
 69 303 l 1
 69 333 l 1
 474 333 l 1
 474 303 l 1
EndSplineSet
EndChar

StartChar: radical
Encoding: 8730 8730 308
Width: 543
Flags: MW
HStem: -160 32<266 266 266 289 246 266> 280 30<49 115 49 139>
VStem: 49 457
LayerCount: 2
Fore
SplineSet
506 780 m 1
 289 -160 l 1
 246 -160 l 1
 115 280 l 1
 49 280 l 1
 49 310 l 1
 139 310 l 1
 266 -128 l 1
 474 780 l 1
 506 780 l 1
EndSplineSet
EndChar

StartChar: infinity
Encoding: 8734 8734 294
Width: 992
Flags: MW
HStem: -14 32<215 310.5 215 322 681.5 777> 512 32<215 310.5 681.5 777>
VStem: 30 42<183 345.5> 497 23 921 41<183 345.5 183 346>
LayerCount: 2
Fore
SplineSet
727 544 m 0
 873 544 962 427 962 264 c 0
 962 102 873 -14 727 -14 c 0
 615 -14 535 54 495 191 c 1
 458 54 379 -14 265 -14 c 0
 119 -14 30 102 30 264 c 0
 30 427 119 544 265 544 c 0
 376 544 458 477 497 340 c 1
 533 474 613 544 727 544 c 0
265 18 m 0
 356 18 455 81 472 265 c 1
 445 449 356 512 265 512 c 0
 165 512 72 428 72 264 c 0
 72 101 165 18 265 18 c 0
727 18 m 0
 827 18 921 101 921 264 c 0
 921 428 827 512 727 512 c 0
 636 512 536 449 520 265 c 1
 546 81 636 18 727 18 c 0
EndSplineSet
EndChar

StartChar: integral
Encoding: 8747 8747 295
Width: 543
Flags: MW
HStem: -160 30<210 238.5 210 244.5> 724 30<287 315>
VStem: 205 34<562.5 635.5 562.5 651.5> 287 33<-41.5 31.5>
LayerCount: 2
Fore
SplineSet
306 754 m 0
 330 754 353 746 371 728 c 1
 357 703 l 1
 341 720 324 724 306 724 c 0
 268 724 239 684 239 587 c 0
 239 538 244 481 279 301 c 0
 310 138 320 71 320 3 c 0
 320 -117 270 -160 219 -160 c 0
 195 -160 172 -152 154 -134 c 1
 168 -109 l 1
 185 -126 201 -130 219 -130 c 0
 258 -130 287 -90 287 7 c 0
 287 56 281 113 247 293 c 0
 216 457 205 523 205 592 c 0
 205 711 255 754 306 754 c 0
EndSplineSet
EndChar

StartChar: approxequal
Encoding: 8776 8776 287
Width: 543
Flags: MW
HStem: 163 31<360.5 397.5> 234 31<145.5 182.5> 338 31<360.5 397.5> 409 31<145.5 182.5>
VStem: 52 439<194 235 235 369>
LayerCount: 2
Fore
SplineSet
168 440 m 0
 204 440 229 429 279 402 c 0
 325 378 345 369 376 369 c 0
 419 369 442 385 469 428 c 1
 491 410 l 1
 462 361 425 338 375 338 c 0
 339 338 315 349 264 376 c 0
 218 400 198 409 167 409 c 0
 124 409 102 393 74 351 c 1
 52 369 l 1
 81 418 118 440 168 440 c 0
168 265 m 0
 204 265 229 254 279 227 c 0
 325 203 345 194 376 194 c 0
 419 194 442 210 469 253 c 1
 491 235 l 1
 462 186 425 163 375 163 c 0
 339 163 315 174 264 201 c 0
 218 225 198 234 167 234 c 0
 124 234 102 218 74 176 c 1
 52 194 l 1
 81 243 118 265 168 265 c 0
EndSplineSet
EndChar

StartChar: notequal
Encoding: 8800 8800 301
Width: 543
Flags: MW
HStem: 210 29<61 191 61 208 243 481 61 226> 395 29<61 299 61 316 351 481 61 334> 395 137<61 414 379 414 379 481 334 414>
VStem: 61 420<210 239 210 239 395 424 210 424>
LayerCount: 2
Fore
SplineSet
334 395 m 1xd0
 243 239 l 1
 481 239 l 1
 481 210 l 1
 226 210 l 1
 163 102 l 1
 128 102 l 1
 191 210 l 1
 61 210 l 1
 61 239 l 1
 208 239 l 1
 299 395 l 1
 61 395 l 1
 61 424 l 1
 316 424 l 1xd0
 379 532 l 1
 414 532 l 1xb0
 351 424 l 1
 481 424 l 1
 481 395 l 1
 334 395 l 1xd0
EndSplineSet
EndChar

StartChar: lessequal
Encoding: 8804 8804 297
Width: 543
Flags: MW
HStem: 0 30<77 482 77 482>
VStem: 77 36<283 283 283 299 283 299>
LayerCount: 2
Fore
SplineSet
482 438 m 1
 113 283 l 1
 482 129 l 1
 482 93 l 1
 77 267 l 1
 77 299 l 1
 482 473 l 1
 482 438 l 1
77 30 m 1
 482 30 l 1
 482 0 l 1
 77 0 l 1
 77 30 l 1
EndSplineSet
EndChar

StartChar: greaterequal
Encoding: 8805 8805 293
Width: 543
Flags: MW
HStem: 0 30<61 466 61 466>
VStem: 431 35<283 283>
LayerCount: 2
Fore
SplineSet
466 299 m 1
 466 267 l 1
 61 93 l 1
 61 128 l 1
 431 283 l 1
 61 438 l 1
 61 473 l 1
 466 299 l 1
61 30 m 1
 466 30 l 1
 466 0 l 1
 61 0 l 1
 61 30 l 1
EndSplineSet
EndChar

StartChar: lozenge
Encoding: 9674 9674 310
Width: 479
Flags: MW
HStem: 0 32<240 240 240 256 223 240> 657 33<239 239>
VStem: 56 367<345 345>
LayerCount: 2
Fore
SplineSet
423 345 m 1
 256 0 l 1
 223 0 l 1
 56 345 l 1
 223 690 l 1
 256 690 l 1
 423 345 l 1
389 345 m 1
 239 657 l 1
 91 345 l 1
 240 32 l 1
 389 345 l 1
EndSplineSet
EndChar

StartChar: fi
Encoding: 64257 64257 230
Width: 428
GlyphClass: 3
Flags: MW
HStem: 0 21G<81 119 81 81 317 355 317 317> 491 32<24 81 24 81 119 317> 718.89 30.11 718.89 35.11
VStem: 81 38<0 491 0 491 523 560 560 562> 317 38<0 491 491 491>
LayerCount: 2
Fore
SplineSet
355 523 m 1xec
 355 0 l 1
 317 0 l 1
 317 491 l 1
 119 491 l 1
 119 0 l 1
 81 0 l 1
 81 491 l 1
 24 491 l 1
 24 523 l 1
 81 523 l 1
 81 560 l 2
 81 576 81 595 83 615 c 0
 91 697 155 754 266 754 c 0xdc
 287 754 299 753 317 749 c 1
 317 716 l 1
 183 732 128 679 121 613 c 0
 119 593 119 577 119 562 c 2
 119 523 l 1
 355 523 l 1xec
EndSplineSet
Ligature2: "'liga' Standard Ligatures in Latin lookup 4 subtable" f i
EndChar

StartChar: fl
Encoding: 64258 64258 231
Width: 411
GlyphClass: 3
Flags: MW
HStem: -5 33<331.5 385> 0 21G<71 109 71 71> 491 32<24 71 24 71 109 217> 715 20G<326 326> 722 32<189 241.5>
VStem: 71 38<0 491 0 491 523 560 560 562> 288 38<127 128 128 711 711 711>
LayerCount: 2
Fore
SplineSet
327 64 m 0xae
 329 31 343 23 385 28 c 1
 385 -2 l 1
 373 -5 361 -5 348 -5 c 0
 315 -5 291 8 289 54 c 0xae
 288 74 288 92 288 127 c 2
 288 711 l 1
 273 719 254 722 229 722 c 0
 149 722 117 670 111 613 c 0
 109 593 109 577 109 562 c 2
 109 523 l 1
 217 523 l 1
 217 491 l 1
 109 491 l 1
 109 0 l 1
 71 0 l 1
 71 491 l 1
 24 491 l 1
 24 523 l 1
 71 523 l 1
 71 560 l 2
 71 576 71 595 73 615 c 0
 81 697 132 754 229 754 c 0x6e
 269 754 302 747 326 735 c 1xb6
 326 128 l 2
 326 98 326 79 327 64 c 0xae
EndSplineSet
Ligature2: "'liga' Standard Ligatures in Latin lookup 4 subtable" f l
EndChar
